<?xml version="1.0" encoding="UTF-8"?>
<svg xmlns="http://www.w3.org/2000/svg" xmlns:xlink="http://www.w3.org/1999/xlink" width="32px" height="32px" viewBox="0 0 32 32" version="1.1">
<defs>
<clipPath id="clip1">
  <path d="M 0.597656 0.597656 L 31.402344 0.597656 L 31.402344 31.402344 L 0.597656 31.402344 Z M 0.597656 0.597656 "/>
</clipPath>
<clipPath id="clip2">
  <path d="M 5.109375 0.640625 L 26.890625 0.640625 C 27.035156 0.640625 27.183594 0.648438 27.328125 0.664062 C 27.472656 0.679688 27.617188 0.699219 27.761719 0.726562 C 27.90625 0.757812 28.046875 0.792969 28.1875 0.835938 C 28.328125 0.878906 28.464844 0.925781 28.601562 0.980469 C 28.734375 1.039062 28.867188 1.101562 28.996094 1.167969 C 29.125 1.238281 29.25 1.3125 29.371094 1.394531 C 29.492188 1.476562 29.613281 1.5625 29.722656 1.65625 C 29.835938 1.75 29.945312 1.847656 30.050781 1.949219 C 30.152344 2.054688 30.25 2.164062 30.34375 2.277344 C 30.4375 2.386719 30.523438 2.507812 30.605469 2.628906 C 30.6875 2.75 30.761719 2.875 30.832031 3.003906 C 30.898438 3.132812 30.960938 3.265625 31.019531 3.398438 C 31.074219 3.535156 31.121094 3.671875 31.164062 3.8125 C 31.207031 3.953125 31.242188 4.09375 31.273438 4.238281 C 31.300781 4.382812 31.320312 4.527344 31.335938 4.671875 C 31.351562 4.816406 31.359375 4.964844 31.359375 5.109375 L 31.359375 26.890625 C 31.359375 27.035156 31.351562 27.183594 31.335938 27.328125 C 31.320312 27.472656 31.300781 27.617188 31.273438 27.761719 C 31.242188 27.90625 31.207031 28.046875 31.164062 28.1875 C 31.121094 28.328125 31.074219 28.464844 31.019531 28.601562 C 30.960938 28.734375 30.898438 28.867188 30.832031 28.996094 C 30.761719 29.125 30.6875 29.25 30.605469 29.371094 C 30.523438 29.492188 30.4375 29.613281 30.34375 29.722656 C 30.25 29.835938 30.152344 29.945312 30.050781 30.050781 C 29.945312 30.152344 29.835938 30.25 29.722656 30.34375 C 29.613281 30.4375 29.492188 30.523438 29.371094 30.605469 C 29.25 30.6875 29.125 30.761719 28.996094 30.832031 C 28.867188 30.898438 28.734375 30.960938 28.601562 31.019531 C 28.464844 31.074219 28.328125 31.121094 28.1875 31.164062 C 28.046875 31.207031 27.90625 31.242188 27.761719 31.273438 C 27.617188 31.300781 27.472656 31.320312 27.328125 31.335938 C 27.183594 31.351562 27.035156 31.359375 26.890625 31.359375 L 5.109375 31.359375 C 4.964844 31.359375 4.816406 31.351562 4.671875 31.335938 C 4.527344 31.320312 4.382812 31.300781 4.238281 31.273438 C 4.09375 31.242188 3.953125 31.207031 3.8125 31.164062 C 3.671875 31.121094 3.535156 31.074219 3.398438 31.019531 C 3.265625 30.960938 3.132812 30.898438 3.003906 30.832031 C 2.875 30.761719 2.75 30.6875 2.628906 30.605469 C 2.507812 30.523438 2.386719 30.4375 2.277344 30.34375 C 2.164062 30.25 2.054688 30.152344 1.949219 30.050781 C 1.847656 29.945312 1.75 29.835938 1.65625 29.722656 C 1.5625 29.613281 1.476562 29.492188 1.394531 29.371094 C 1.3125 29.25 1.238281 29.125 1.167969 28.996094 C 1.101562 28.867188 1.039062 28.734375 0.980469 28.601562 C 0.925781 28.464844 0.878906 28.328125 0.835938 28.1875 C 0.792969 28.046875 0.757812 27.90625 0.726562 27.761719 C 0.699219 27.617188 0.679688 27.472656 0.664062 27.328125 C 0.648438 27.183594 0.640625 27.035156 0.640625 26.890625 L 0.640625 5.109375 C 0.640625 4.964844 0.648438 4.816406 0.664062 4.671875 C 0.679688 4.527344 0.699219 4.382812 0.726562 4.238281 C 0.757812 4.09375 0.792969 3.953125 0.835938 3.8125 C 0.878906 3.671875 0.925781 3.535156 0.980469 3.398438 C 1.039062 3.265625 1.101562 3.132812 1.167969 3.003906 C 1.238281 2.875 1.3125 2.75 1.394531 2.628906 C 1.476562 2.507812 1.5625 2.386719 1.65625 2.277344 C 1.75 2.164062 1.847656 2.054688 1.949219 1.949219 C 2.054688 1.847656 2.164062 1.75 2.277344 1.65625 C 2.386719 1.5625 2.507812 1.476562 2.628906 1.394531 C 2.75 1.3125 2.875 1.238281 3.003906 1.167969 C 3.132812 1.101562 3.265625 1.039062 3.398438 0.980469 C 3.535156 0.925781 3.671875 0.878906 3.8125 0.835938 C 3.953125 0.792969 4.09375 0.757812 4.238281 0.726562 C 4.382812 0.699219 4.527344 0.679688 4.671875 0.664062 C 4.816406 0.648438 4.964844 0.640625 5.109375 0.640625 Z M 5.109375 0.640625 "/>
</clipPath>
<linearGradient id="linear0" gradientUnits="userSpaceOnUse" x1="286.5" y1="11.5" x2="286.5" y2="561.5" gradientTransform="matrix(0.0558464,0,0,0.0558464,0,0)">
<stop offset="0" style="stop-color:rgb(65.490196%,66.27451%,67.45098%);stop-opacity:1;"/>
<stop offset="0.004" style="stop-color:rgb(65.882353%,66.666667%,67.843137%);stop-opacity:1;"/>
<stop offset="0.008" style="stop-color:rgb(66.27451%,67.058824%,68.235294%);stop-opacity:1;"/>
<stop offset="0.012" style="stop-color:rgb(66.27451%,67.058824%,68.235294%);stop-opacity:1;"/>
<stop offset="0.016" style="stop-color:rgb(66.666667%,67.45098%,68.627451%);stop-opacity:1;"/>
<stop offset="0.02" style="stop-color:rgb(67.058824%,67.843137%,69.019608%);stop-opacity:1;"/>
<stop offset="0.023" style="stop-color:rgb(67.45098%,68.235294%,69.411765%);stop-opacity:1;"/>
<stop offset="0.027" style="stop-color:rgb(67.45098%,68.235294%,69.411765%);stop-opacity:1;"/>
<stop offset="0.031" style="stop-color:rgb(67.843137%,68.627451%,69.803922%);stop-opacity:1;"/>
<stop offset="0.035" style="stop-color:rgb(68.235294%,69.019608%,70.196078%);stop-opacity:1;"/>
<stop offset="0.039" style="stop-color:rgb(68.627451%,69.411765%,70.588235%);stop-opacity:1;"/>
<stop offset="0.043" style="stop-color:rgb(68.627451%,69.411765%,70.588235%);stop-opacity:1;"/>
<stop offset="0.047" style="stop-color:rgb(69.019608%,69.803922%,70.980392%);stop-opacity:1;"/>
<stop offset="0.051" style="stop-color:rgb(69.411765%,70.196078%,71.372549%);stop-opacity:1;"/>
<stop offset="0.055" style="stop-color:rgb(69.803922%,70.196078%,71.372549%);stop-opacity:1;"/>
<stop offset="0.059" style="stop-color:rgb(69.803922%,70.588235%,71.764706%);stop-opacity:1;"/>
<stop offset="0.063" style="stop-color:rgb(70.196078%,70.980392%,72.156863%);stop-opacity:1;"/>
<stop offset="0.066" style="stop-color:rgb(70.588235%,71.372549%,72.156863%);stop-opacity:1;"/>
<stop offset="0.07" style="stop-color:rgb(70.588235%,71.372549%,72.54902%);stop-opacity:1;"/>
<stop offset="0.074" style="stop-color:rgb(70.980392%,71.764706%,72.941176%);stop-opacity:1;"/>
<stop offset="0.078" style="stop-color:rgb(71.372549%,72.156863%,72.941176%);stop-opacity:1;"/>
<stop offset="0.082" style="stop-color:rgb(71.764706%,72.156863%,73.333333%);stop-opacity:1;"/>
<stop offset="0.086" style="stop-color:rgb(71.764706%,72.54902%,73.72549%);stop-opacity:1;"/>
<stop offset="0.09" style="stop-color:rgb(72.156863%,72.941176%,73.72549%);stop-opacity:1;"/>
<stop offset="0.094" style="stop-color:rgb(72.54902%,73.333333%,74.117647%);stop-opacity:1;"/>
<stop offset="0.098" style="stop-color:rgb(72.941176%,73.333333%,74.509804%);stop-opacity:1;"/>
<stop offset="0.102" style="stop-color:rgb(72.941176%,73.72549%,74.901961%);stop-opacity:1;"/>
<stop offset="0.105" style="stop-color:rgb(73.333333%,74.117647%,74.901961%);stop-opacity:1;"/>
<stop offset="0.109" style="stop-color:rgb(73.72549%,74.117647%,75.294118%);stop-opacity:1;"/>
<stop offset="0.113" style="stop-color:rgb(74.117647%,74.509804%,75.686275%);stop-opacity:1;"/>
<stop offset="0.117" style="stop-color:rgb(74.117647%,74.901961%,75.686275%);stop-opacity:1;"/>
<stop offset="0.121" style="stop-color:rgb(74.509804%,74.901961%,76.078431%);stop-opacity:1;"/>
<stop offset="0.125" style="stop-color:rgb(74.901961%,75.294118%,76.470588%);stop-opacity:1;"/>
<stop offset="0.129" style="stop-color:rgb(74.901961%,75.686275%,76.470588%);stop-opacity:1;"/>
<stop offset="0.133" style="stop-color:rgb(75.294118%,76.078431%,76.862745%);stop-opacity:1;"/>
<stop offset="0.137" style="stop-color:rgb(75.686275%,76.078431%,77.254902%);stop-opacity:1;"/>
<stop offset="0.141" style="stop-color:rgb(76.078431%,76.470588%,77.254902%);stop-opacity:1;"/>
<stop offset="0.145" style="stop-color:rgb(76.078431%,76.862745%,77.647059%);stop-opacity:1;"/>
<stop offset="0.148" style="stop-color:rgb(76.470588%,76.862745%,78.039216%);stop-opacity:1;"/>
<stop offset="0.152" style="stop-color:rgb(76.862745%,77.254902%,78.039216%);stop-opacity:1;"/>
<stop offset="0.156" style="stop-color:rgb(77.254902%,77.647059%,78.431373%);stop-opacity:1;"/>
<stop offset="0.16" style="stop-color:rgb(77.254902%,78.039216%,78.823529%);stop-opacity:1;"/>
<stop offset="0.164" style="stop-color:rgb(77.647059%,78.039216%,78.823529%);stop-opacity:1;"/>
<stop offset="0.168" style="stop-color:rgb(78.039216%,78.431373%,79.215686%);stop-opacity:1;"/>
<stop offset="0.172" style="stop-color:rgb(78.431373%,78.823529%,79.607843%);stop-opacity:1;"/>
<stop offset="0.176" style="stop-color:rgb(78.431373%,78.823529%,80%);stop-opacity:1;"/>
<stop offset="0.18" style="stop-color:rgb(78.823529%,79.215686%,80%);stop-opacity:1;"/>
<stop offset="0.184" style="stop-color:rgb(79.215686%,79.607843%,80.392157%);stop-opacity:1;"/>
<stop offset="0.188" style="stop-color:rgb(79.607843%,80%,80.784314%);stop-opacity:1;"/>
<stop offset="0.191" style="stop-color:rgb(79.607843%,80%,80.784314%);stop-opacity:1;"/>
<stop offset="0.195" style="stop-color:rgb(80%,80.392157%,81.176471%);stop-opacity:1;"/>
<stop offset="0.199" style="stop-color:rgb(80%,80.392157%,81.176471%);stop-opacity:1;"/>
<stop offset="0.203" style="stop-color:rgb(80.392157%,80.784314%,81.568627%);stop-opacity:1;"/>
<stop offset="0.207" style="stop-color:rgb(80.392157%,80.784314%,81.568627%);stop-opacity:1;"/>
<stop offset="0.211" style="stop-color:rgb(80.784314%,81.176471%,81.960784%);stop-opacity:1;"/>
<stop offset="0.215" style="stop-color:rgb(80.784314%,81.176471%,81.960784%);stop-opacity:1;"/>
<stop offset="0.219" style="stop-color:rgb(81.176471%,81.568627%,82.352941%);stop-opacity:1;"/>
<stop offset="0.223" style="stop-color:rgb(81.176471%,81.568627%,82.352941%);stop-opacity:1;"/>
<stop offset="0.227" style="stop-color:rgb(81.568627%,81.960784%,82.745098%);stop-opacity:1;"/>
<stop offset="0.23" style="stop-color:rgb(81.568627%,81.960784%,82.745098%);stop-opacity:1;"/>
<stop offset="0.234" style="stop-color:rgb(81.960784%,82.352941%,83.137255%);stop-opacity:1;"/>
<stop offset="0.238" style="stop-color:rgb(81.960784%,82.745098%,83.137255%);stop-opacity:1;"/>
<stop offset="0.242" style="stop-color:rgb(82.352941%,82.745098%,83.529412%);stop-opacity:1;"/>
<stop offset="0.246" style="stop-color:rgb(82.745098%,83.137255%,83.529412%);stop-opacity:1;"/>
<stop offset="0.25" style="stop-color:rgb(82.745098%,83.137255%,83.921569%);stop-opacity:1;"/>
<stop offset="0.254" style="stop-color:rgb(83.137255%,83.529412%,83.921569%);stop-opacity:1;"/>
<stop offset="0.258" style="stop-color:rgb(83.137255%,83.529412%,84.313725%);stop-opacity:1;"/>
<stop offset="0.262" style="stop-color:rgb(83.529412%,83.921569%,84.313725%);stop-opacity:1;"/>
<stop offset="0.266" style="stop-color:rgb(83.529412%,83.921569%,84.705882%);stop-opacity:1;"/>
<stop offset="0.27" style="stop-color:rgb(83.921569%,84.313725%,84.705882%);stop-opacity:1;"/>
<stop offset="0.273" style="stop-color:rgb(83.921569%,84.313725%,85.098039%);stop-opacity:1;"/>
<stop offset="0.277" style="stop-color:rgb(84.313725%,84.705882%,85.098039%);stop-opacity:1;"/>
<stop offset="0.281" style="stop-color:rgb(84.313725%,84.705882%,85.490196%);stop-opacity:1;"/>
<stop offset="0.285" style="stop-color:rgb(84.705882%,85.098039%,85.490196%);stop-opacity:1;"/>
<stop offset="0.289" style="stop-color:rgb(84.705882%,85.098039%,85.882353%);stop-opacity:1;"/>
<stop offset="0.293" style="stop-color:rgb(85.098039%,85.490196%,85.882353%);stop-opacity:1;"/>
<stop offset="0.297" style="stop-color:rgb(85.098039%,85.490196%,86.27451%);stop-opacity:1;"/>
<stop offset="0.301" style="stop-color:rgb(85.490196%,85.882353%,86.27451%);stop-opacity:1;"/>
<stop offset="0.305" style="stop-color:rgb(85.490196%,85.882353%,86.666667%);stop-opacity:1;"/>
<stop offset="0.309" style="stop-color:rgb(85.882353%,86.27451%,86.666667%);stop-opacity:1;"/>
<stop offset="0.313" style="stop-color:rgb(86.27451%,86.666667%,87.058824%);stop-opacity:1;"/>
<stop offset="0.316" style="stop-color:rgb(86.27451%,86.666667%,87.058824%);stop-opacity:1;"/>
<stop offset="0.32" style="stop-color:rgb(86.666667%,87.058824%,87.45098%);stop-opacity:1;"/>
<stop offset="0.324" style="stop-color:rgb(86.666667%,87.058824%,87.45098%);stop-opacity:1;"/>
<stop offset="0.328" style="stop-color:rgb(87.058824%,87.45098%,87.843137%);stop-opacity:1;"/>
<stop offset="0.332" style="stop-color:rgb(87.058824%,87.45098%,87.843137%);stop-opacity:1;"/>
<stop offset="0.336" style="stop-color:rgb(87.45098%,87.843137%,88.235294%);stop-opacity:1;"/>
<stop offset="0.34" style="stop-color:rgb(87.45098%,87.843137%,88.235294%);stop-opacity:1;"/>
<stop offset="0.344" style="stop-color:rgb(87.843137%,88.235294%,88.627451%);stop-opacity:1;"/>
<stop offset="0.348" style="stop-color:rgb(87.843137%,88.235294%,88.627451%);stop-opacity:1;"/>
<stop offset="0.352" style="stop-color:rgb(88.235294%,88.627451%,89.019608%);stop-opacity:1;"/>
<stop offset="0.355" style="stop-color:rgb(88.235294%,88.627451%,89.019608%);stop-opacity:1;"/>
<stop offset="0.359" style="stop-color:rgb(88.627451%,89.019608%,89.411765%);stop-opacity:1;"/>
<stop offset="0.367" style="stop-color:rgb(88.627451%,89.019608%,89.411765%);stop-opacity:1;"/>
<stop offset="0.375" style="stop-color:rgb(89.019608%,89.411765%,89.803922%);stop-opacity:1;"/>
<stop offset="0.383" style="stop-color:rgb(89.411765%,89.803922%,90.196078%);stop-opacity:1;"/>
<stop offset="0.391" style="stop-color:rgb(89.411765%,89.803922%,90.196078%);stop-opacity:1;"/>
<stop offset="0.398" style="stop-color:rgb(89.803922%,90.196078%,90.588235%);stop-opacity:1;"/>
<stop offset="0.406" style="stop-color:rgb(90.196078%,90.588235%,90.980392%);stop-opacity:1;"/>
<stop offset="0.414" style="stop-color:rgb(90.196078%,90.588235%,90.980392%);stop-opacity:1;"/>
<stop offset="0.422" style="stop-color:rgb(90.588235%,90.980392%,91.372549%);stop-opacity:1;"/>
<stop offset="0.43" style="stop-color:rgb(90.980392%,91.372549%,91.372549%);stop-opacity:1;"/>
<stop offset="0.438" style="stop-color:rgb(90.980392%,91.764706%,91.764706%);stop-opacity:1;"/>
<stop offset="0.445" style="stop-color:rgb(91.372549%,91.764706%,92.156863%);stop-opacity:1;"/>
<stop offset="0.453" style="stop-color:rgb(91.764706%,92.156863%,92.156863%);stop-opacity:1;"/>
<stop offset="0.461" style="stop-color:rgb(92.156863%,92.54902%,92.54902%);stop-opacity:1;"/>
<stop offset="0.469" style="stop-color:rgb(92.156863%,92.54902%,92.941176%);stop-opacity:1;"/>
<stop offset="0.477" style="stop-color:rgb(92.54902%,92.941176%,92.941176%);stop-opacity:1;"/>
<stop offset="0.484" style="stop-color:rgb(92.941176%,93.333333%,93.333333%);stop-opacity:1;"/>
<stop offset="0.492" style="stop-color:rgb(92.941176%,93.333333%,93.72549%);stop-opacity:1;"/>
<stop offset="0.5" style="stop-color:rgb(93.333333%,93.72549%,93.72549%);stop-opacity:1;"/>
<stop offset="0.508" style="stop-color:rgb(93.72549%,94.117647%,94.117647%);stop-opacity:1;"/>
<stop offset="0.516" style="stop-color:rgb(93.72549%,94.117647%,94.509804%);stop-opacity:1;"/>
<stop offset="0.523" style="stop-color:rgb(94.117647%,94.509804%,94.509804%);stop-opacity:1;"/>
<stop offset="0.531" style="stop-color:rgb(94.509804%,94.901961%,94.901961%);stop-opacity:1;"/>
<stop offset="0.539" style="stop-color:rgb(94.901961%,95.294118%,95.294118%);stop-opacity:1;"/>
<stop offset="0.547" style="stop-color:rgb(94.901961%,95.294118%,95.294118%);stop-opacity:1;"/>
<stop offset="0.563" style="stop-color:rgb(95.294118%,95.686275%,95.686275%);stop-opacity:1;"/>
<stop offset="0.578" style="stop-color:rgb(95.294118%,95.686275%,95.686275%);stop-opacity:1;"/>
<stop offset="0.594" style="stop-color:rgb(95.686275%,96.078431%,96.078431%);stop-opacity:1;"/>
<stop offset="0.609" style="stop-color:rgb(96.078431%,96.470588%,96.470588%);stop-opacity:1;"/>
<stop offset="0.625" style="stop-color:rgb(96.470588%,96.470588%,96.470588%);stop-opacity:1;"/>
<stop offset="0.641" style="stop-color:rgb(96.862745%,96.862745%,96.862745%);stop-opacity:1;"/>
<stop offset="0.656" style="stop-color:rgb(96.862745%,97.254902%,97.254902%);stop-opacity:1;"/>
<stop offset="0.672" style="stop-color:rgb(97.254902%,97.647059%,97.647059%);stop-opacity:1;"/>
<stop offset="0.688" style="stop-color:rgb(97.647059%,97.647059%,97.647059%);stop-opacity:1;"/>
<stop offset="0.703" style="stop-color:rgb(98.039216%,98.039216%,98.039216%);stop-opacity:1;"/>
<stop offset="0.719" style="stop-color:rgb(98.039216%,98.431373%,98.431373%);stop-opacity:1;"/>
<stop offset="0.734" style="stop-color:rgb(98.431373%,98.431373%,98.431373%);stop-opacity:1;"/>
<stop offset="0.75" style="stop-color:rgb(98.823529%,98.823529%,98.823529%);stop-opacity:1;"/>
<stop offset="0.813" style="stop-color:rgb(98.823529%,98.823529%,98.823529%);stop-opacity:1;"/>
<stop offset="0.875" style="stop-color:rgb(99.215686%,99.215686%,99.215686%);stop-opacity:1;"/>
<stop offset="0.938" style="stop-color:rgb(99.607843%,99.607843%,99.607843%);stop-opacity:1;"/>
<stop offset="1" style="stop-color:rgb(100%,100%,100%);stop-opacity:1;"/>
</linearGradient>
<clipPath id="clip3">
  <path d="M 2.558594 2.558594 L 29.441406 2.558594 L 29.441406 29.441406 L 2.558594 29.441406 Z M 2.558594 2.558594 "/>
</clipPath>
<clipPath id="clip4">
  <path d="M 5.390625 2.597656 L 26.609375 2.597656 C 26.703125 2.597656 26.792969 2.601562 26.882812 2.609375 C 26.976562 2.621094 27.066406 2.632812 27.15625 2.652344 C 27.246094 2.667969 27.335938 2.691406 27.421875 2.71875 C 27.507812 2.742188 27.59375 2.773438 27.679688 2.808594 C 27.765625 2.84375 27.847656 2.882812 27.925781 2.925781 C 28.007812 2.96875 28.085938 3.015625 28.160156 3.066406 C 28.238281 3.117188 28.3125 3.171875 28.382812 3.230469 C 28.453125 3.289062 28.519531 3.351562 28.585938 3.414062 C 28.648438 3.480469 28.710938 3.546875 28.769531 3.617188 C 28.828125 3.6875 28.882812 3.761719 28.933594 3.839844 C 28.984375 3.914062 29.03125 3.992188 29.074219 4.074219 C 29.117188 4.152344 29.15625 4.234375 29.191406 4.320312 C 29.226562 4.40625 29.257812 4.492188 29.28125 4.578125 C 29.308594 4.664062 29.332031 4.753906 29.347656 4.84375 C 29.367188 4.933594 29.378906 5.023438 29.390625 5.117188 C 29.398438 5.207031 29.402344 5.296875 29.402344 5.390625 L 29.402344 26.609375 C 29.402344 26.703125 29.398438 26.792969 29.390625 26.882812 C 29.378906 26.976562 29.367188 27.066406 29.347656 27.15625 C 29.332031 27.246094 29.308594 27.335938 29.28125 27.421875 C 29.257812 27.507812 29.226562 27.59375 29.191406 27.679688 C 29.15625 27.765625 29.117188 27.847656 29.074219 27.925781 C 29.03125 28.007812 28.984375 28.085938 28.933594 28.160156 C 28.882812 28.238281 28.828125 28.3125 28.769531 28.382812 C 28.710938 28.453125 28.648438 28.519531 28.585938 28.585938 C 28.519531 28.648438 28.453125 28.710938 28.382812 28.769531 C 28.3125 28.828125 28.238281 28.882812 28.160156 28.933594 C 28.085938 28.984375 28.007812 29.03125 27.925781 29.074219 C 27.847656 29.117188 27.765625 29.15625 27.679688 29.191406 C 27.59375 29.226562 27.507812 29.257812 27.421875 29.28125 C 27.335938 29.308594 27.246094 29.332031 27.15625 29.347656 C 27.066406 29.367188 26.976562 29.378906 26.882812 29.390625 C 26.792969 29.398438 26.703125 29.402344 26.609375 29.402344 L 5.390625 29.402344 C 5.296875 29.402344 5.207031 29.398438 5.117188 29.390625 C 5.023438 29.378906 4.933594 29.367188 4.84375 29.347656 C 4.753906 29.332031 4.664062 29.308594 4.578125 29.28125 C 4.492188 29.257812 4.40625 29.226562 4.320312 29.191406 C 4.234375 29.15625 4.152344 29.117188 4.074219 29.074219 C 3.992188 29.03125 3.914062 28.984375 3.839844 28.933594 C 3.761719 28.882812 3.6875 28.828125 3.617188 28.769531 C 3.546875 28.710938 3.480469 28.648438 3.414062 28.585938 C 3.351562 28.519531 3.289062 28.453125 3.230469 28.382812 C 3.171875 28.3125 3.117188 28.238281 3.066406 28.160156 C 3.015625 28.085938 2.96875 28.007812 2.925781 27.925781 C 2.882812 27.847656 2.84375 27.765625 2.808594 27.679688 C 2.773438 27.59375 2.742188 27.507812 2.71875 27.421875 C 2.691406 27.335938 2.667969 27.246094 2.652344 27.15625 C 2.632812 27.066406 2.621094 26.976562 2.609375 26.882812 C 2.601562 26.792969 2.597656 26.703125 2.597656 26.609375 L 2.597656 5.390625 C 2.597656 5.296875 2.601562 5.207031 2.609375 5.117188 C 2.621094 5.023438 2.632812 4.933594 2.652344 4.84375 C 2.667969 4.753906 2.691406 4.664062 2.71875 4.578125 C 2.742188 4.492188 2.773438 4.40625 2.808594 4.320312 C 2.84375 4.234375 2.882812 4.152344 2.925781 4.074219 C 2.96875 3.992188 3.015625 3.914062 3.066406 3.839844 C 3.117188 3.761719 3.171875 3.6875 3.230469 3.617188 C 3.289062 3.546875 3.351562 3.480469 3.414062 3.414062 C 3.480469 3.351562 3.546875 3.289062 3.617188 3.230469 C 3.6875 3.171875 3.761719 3.117188 3.839844 3.066406 C 3.914062 3.015625 3.992188 2.96875 4.074219 2.925781 C 4.152344 2.882812 4.234375 2.84375 4.320312 2.808594 C 4.40625 2.773438 4.492188 2.742188 4.578125 2.71875 C 4.664062 2.691406 4.753906 2.667969 4.84375 2.652344 C 4.933594 2.632812 5.023438 2.621094 5.117188 2.609375 C 5.207031 2.601562 5.296875 2.597656 5.390625 2.597656 Z M 5.390625 2.597656 "/>
</clipPath>
<linearGradient id="linear1" gradientUnits="userSpaceOnUse" x1="286.5" y1="46.5" x2="286.5" y2="526.5" gradientTransform="matrix(0.0558464,0,0,0.0558464,0,0)">
<stop offset="0" style="stop-color:rgb(100%,100%,100%);stop-opacity:1;"/>
<stop offset="0.063" style="stop-color:rgb(100%,100%,100%);stop-opacity:1;"/>
<stop offset="0.125" style="stop-color:rgb(99.607843%,99.607843%,99.607843%);stop-opacity:1;"/>
<stop offset="0.188" style="stop-color:rgb(99.215686%,99.215686%,99.215686%);stop-opacity:1;"/>
<stop offset="0.25" style="stop-color:rgb(99.215686%,99.215686%,99.215686%);stop-opacity:1;"/>
<stop offset="0.313" style="stop-color:rgb(98.823529%,98.823529%,98.823529%);stop-opacity:1;"/>
<stop offset="0.328" style="stop-color:rgb(98.431373%,98.431373%,98.431373%);stop-opacity:1;"/>
<stop offset="0.344" style="stop-color:rgb(98.431373%,98.431373%,98.431373%);stop-opacity:1;"/>
<stop offset="0.359" style="stop-color:rgb(98.039216%,98.039216%,98.039216%);stop-opacity:1;"/>
<stop offset="0.375" style="stop-color:rgb(98.039216%,98.039216%,98.039216%);stop-opacity:1;"/>
<stop offset="0.391" style="stop-color:rgb(97.647059%,97.647059%,97.647059%);stop-opacity:1;"/>
<stop offset="0.406" style="stop-color:rgb(97.254902%,97.254902%,97.254902%);stop-opacity:1;"/>
<stop offset="0.422" style="stop-color:rgb(97.254902%,97.254902%,97.254902%);stop-opacity:1;"/>
<stop offset="0.438" style="stop-color:rgb(96.862745%,96.862745%,96.862745%);stop-opacity:1;"/>
<stop offset="0.453" style="stop-color:rgb(96.470588%,96.470588%,96.470588%);stop-opacity:1;"/>
<stop offset="0.469" style="stop-color:rgb(96.470588%,96.470588%,96.470588%);stop-opacity:1;"/>
<stop offset="0.484" style="stop-color:rgb(96.078431%,96.078431%,96.078431%);stop-opacity:1;"/>
<stop offset="0.5" style="stop-color:rgb(95.686275%,95.686275%,95.686275%);stop-opacity:1;"/>
<stop offset="0.516" style="stop-color:rgb(95.686275%,95.686275%,95.686275%);stop-opacity:1;"/>
<stop offset="0.523" style="stop-color:rgb(95.294118%,95.294118%,95.294118%);stop-opacity:1;"/>
<stop offset="0.531" style="stop-color:rgb(94.901961%,94.901961%,94.901961%);stop-opacity:1;"/>
<stop offset="0.539" style="stop-color:rgb(94.901961%,94.901961%,94.901961%);stop-opacity:1;"/>
<stop offset="0.547" style="stop-color:rgb(94.509804%,94.509804%,94.509804%);stop-opacity:1;"/>
<stop offset="0.555" style="stop-color:rgb(94.117647%,94.117647%,94.117647%);stop-opacity:1;"/>
<stop offset="0.563" style="stop-color:rgb(94.117647%,94.117647%,94.117647%);stop-opacity:1;"/>
<stop offset="0.57" style="stop-color:rgb(93.72549%,93.72549%,93.72549%);stop-opacity:1;"/>
<stop offset="0.578" style="stop-color:rgb(93.333333%,93.333333%,93.333333%);stop-opacity:1;"/>
<stop offset="0.586" style="stop-color:rgb(93.333333%,93.333333%,93.333333%);stop-opacity:1;"/>
<stop offset="0.594" style="stop-color:rgb(92.941176%,92.941176%,92.941176%);stop-opacity:1;"/>
<stop offset="0.602" style="stop-color:rgb(92.54902%,92.54902%,92.54902%);stop-opacity:1;"/>
<stop offset="0.609" style="stop-color:rgb(92.156863%,92.156863%,92.156863%);stop-opacity:1;"/>
<stop offset="0.617" style="stop-color:rgb(92.156863%,92.156863%,92.156863%);stop-opacity:1;"/>
<stop offset="0.625" style="stop-color:rgb(91.764706%,91.764706%,91.764706%);stop-opacity:1;"/>
<stop offset="0.633" style="stop-color:rgb(91.372549%,91.372549%,91.372549%);stop-opacity:1;"/>
<stop offset="0.641" style="stop-color:rgb(91.372549%,91.372549%,91.372549%);stop-opacity:1;"/>
<stop offset="0.648" style="stop-color:rgb(90.980392%,90.980392%,90.980392%);stop-opacity:1;"/>
<stop offset="0.656" style="stop-color:rgb(90.588235%,90.588235%,90.588235%);stop-opacity:1;"/>
<stop offset="0.664" style="stop-color:rgb(90.588235%,90.588235%,90.588235%);stop-opacity:1;"/>
<stop offset="0.672" style="stop-color:rgb(90.196078%,90.196078%,90.196078%);stop-opacity:1;"/>
<stop offset="0.68" style="stop-color:rgb(89.803922%,89.803922%,89.803922%);stop-opacity:1;"/>
<stop offset="0.688" style="stop-color:rgb(89.803922%,89.803922%,89.803922%);stop-opacity:1;"/>
<stop offset="0.695" style="stop-color:rgb(89.411765%,89.411765%,89.411765%);stop-opacity:1;"/>
<stop offset="0.699" style="stop-color:rgb(89.019608%,89.019608%,89.019608%);stop-opacity:1;"/>
<stop offset="0.703" style="stop-color:rgb(88.627451%,88.627451%,88.627451%);stop-opacity:1;"/>
<stop offset="0.707" style="stop-color:rgb(88.627451%,88.627451%,88.627451%);stop-opacity:1;"/>
<stop offset="0.711" style="stop-color:rgb(88.235294%,88.235294%,88.235294%);stop-opacity:1;"/>
<stop offset="0.715" style="stop-color:rgb(88.235294%,88.235294%,88.235294%);stop-opacity:1;"/>
<stop offset="0.719" style="stop-color:rgb(87.843137%,87.843137%,87.843137%);stop-opacity:1;"/>
<stop offset="0.723" style="stop-color:rgb(87.843137%,87.843137%,87.843137%);stop-opacity:1;"/>
<stop offset="0.727" style="stop-color:rgb(87.45098%,87.45098%,87.45098%);stop-opacity:1;"/>
<stop offset="0.73" style="stop-color:rgb(87.45098%,87.45098%,87.45098%);stop-opacity:1;"/>
<stop offset="0.734" style="stop-color:rgb(87.058824%,87.058824%,87.058824%);stop-opacity:1;"/>
<stop offset="0.738" style="stop-color:rgb(87.058824%,87.058824%,87.058824%);stop-opacity:1;"/>
<stop offset="0.742" style="stop-color:rgb(86.666667%,86.666667%,86.666667%);stop-opacity:1;"/>
<stop offset="0.746" style="stop-color:rgb(86.666667%,86.666667%,86.666667%);stop-opacity:1;"/>
<stop offset="0.75" style="stop-color:rgb(86.27451%,86.27451%,86.27451%);stop-opacity:1;"/>
<stop offset="0.754" style="stop-color:rgb(86.27451%,86.27451%,86.27451%);stop-opacity:1;"/>
<stop offset="0.758" style="stop-color:rgb(85.882353%,85.882353%,85.882353%);stop-opacity:1;"/>
<stop offset="0.762" style="stop-color:rgb(85.882353%,85.882353%,85.882353%);stop-opacity:1;"/>
<stop offset="0.766" style="stop-color:rgb(85.490196%,85.490196%,85.490196%);stop-opacity:1;"/>
<stop offset="0.77" style="stop-color:rgb(85.490196%,85.490196%,85.490196%);stop-opacity:1;"/>
<stop offset="0.773" style="stop-color:rgb(85.098039%,85.098039%,85.098039%);stop-opacity:1;"/>
<stop offset="0.777" style="stop-color:rgb(85.098039%,85.098039%,85.098039%);stop-opacity:1;"/>
<stop offset="0.781" style="stop-color:rgb(84.705882%,84.705882%,84.705882%);stop-opacity:1;"/>
<stop offset="0.785" style="stop-color:rgb(84.705882%,84.705882%,84.705882%);stop-opacity:1;"/>
<stop offset="0.789" style="stop-color:rgb(84.313725%,84.313725%,84.313725%);stop-opacity:1;"/>
<stop offset="0.793" style="stop-color:rgb(84.313725%,84.313725%,84.313725%);stop-opacity:1;"/>
<stop offset="0.797" style="stop-color:rgb(83.921569%,83.921569%,83.921569%);stop-opacity:1;"/>
<stop offset="0.801" style="stop-color:rgb(83.529412%,83.529412%,83.529412%);stop-opacity:1;"/>
<stop offset="0.805" style="stop-color:rgb(83.529412%,83.529412%,83.529412%);stop-opacity:1;"/>
<stop offset="0.809" style="stop-color:rgb(83.137255%,83.137255%,83.137255%);stop-opacity:1;"/>
<stop offset="0.813" style="stop-color:rgb(83.137255%,83.137255%,83.137255%);stop-opacity:1;"/>
<stop offset="0.816" style="stop-color:rgb(82.745098%,82.745098%,82.745098%);stop-opacity:1;"/>
<stop offset="0.82" style="stop-color:rgb(82.745098%,82.745098%,82.745098%);stop-opacity:1;"/>
<stop offset="0.824" style="stop-color:rgb(82.352941%,82.352941%,82.352941%);stop-opacity:1;"/>
<stop offset="0.828" style="stop-color:rgb(82.352941%,82.352941%,82.352941%);stop-opacity:1;"/>
<stop offset="0.832" style="stop-color:rgb(81.960784%,81.960784%,81.960784%);stop-opacity:1;"/>
<stop offset="0.836" style="stop-color:rgb(81.960784%,81.960784%,81.960784%);stop-opacity:1;"/>
<stop offset="0.84" style="stop-color:rgb(81.568627%,81.568627%,81.568627%);stop-opacity:1;"/>
<stop offset="0.844" style="stop-color:rgb(81.568627%,81.568627%,81.568627%);stop-opacity:1;"/>
<stop offset="0.848" style="stop-color:rgb(81.176471%,81.176471%,81.176471%);stop-opacity:1;"/>
<stop offset="0.852" style="stop-color:rgb(81.176471%,81.176471%,81.176471%);stop-opacity:1;"/>
<stop offset="0.855" style="stop-color:rgb(80.784314%,80.784314%,80.784314%);stop-opacity:1;"/>
<stop offset="0.859" style="stop-color:rgb(80.392157%,80.392157%,80.392157%);stop-opacity:1;"/>
<stop offset="0.863" style="stop-color:rgb(80%,80%,80%);stop-opacity:1;"/>
<stop offset="0.867" style="stop-color:rgb(80%,80%,80%);stop-opacity:1;"/>
<stop offset="0.871" style="stop-color:rgb(79.607843%,79.607843%,79.607843%);stop-opacity:1;"/>
<stop offset="0.875" style="stop-color:rgb(79.215686%,79.215686%,79.215686%);stop-opacity:1;"/>
<stop offset="0.879" style="stop-color:rgb(78.823529%,78.823529%,78.823529%);stop-opacity:1;"/>
<stop offset="0.883" style="stop-color:rgb(78.823529%,78.823529%,78.823529%);stop-opacity:1;"/>
<stop offset="0.887" style="stop-color:rgb(78.431373%,78.431373%,78.431373%);stop-opacity:1;"/>
<stop offset="0.891" style="stop-color:rgb(78.039216%,78.039216%,78.039216%);stop-opacity:1;"/>
<stop offset="0.895" style="stop-color:rgb(77.647059%,77.647059%,77.647059%);stop-opacity:1;"/>
<stop offset="0.898" style="stop-color:rgb(77.647059%,77.647059%,77.647059%);stop-opacity:1;"/>
<stop offset="0.902" style="stop-color:rgb(77.254902%,77.254902%,77.254902%);stop-opacity:1;"/>
<stop offset="0.906" style="stop-color:rgb(76.862745%,76.862745%,76.862745%);stop-opacity:1;"/>
<stop offset="0.91" style="stop-color:rgb(76.470588%,76.470588%,76.470588%);stop-opacity:1;"/>
<stop offset="0.914" style="stop-color:rgb(76.470588%,76.470588%,76.470588%);stop-opacity:1;"/>
<stop offset="0.918" style="stop-color:rgb(76.078431%,76.078431%,76.078431%);stop-opacity:1;"/>
<stop offset="0.922" style="stop-color:rgb(75.686275%,75.686275%,75.686275%);stop-opacity:1;"/>
<stop offset="0.926" style="stop-color:rgb(75.294118%,75.294118%,75.294118%);stop-opacity:1;"/>
<stop offset="0.93" style="stop-color:rgb(75.294118%,75.294118%,75.294118%);stop-opacity:1;"/>
<stop offset="0.934" style="stop-color:rgb(74.901961%,74.901961%,74.901961%);stop-opacity:1;"/>
<stop offset="0.938" style="stop-color:rgb(74.509804%,74.509804%,74.509804%);stop-opacity:1;"/>
<stop offset="0.941" style="stop-color:rgb(74.117647%,74.117647%,74.117647%);stop-opacity:1;"/>
<stop offset="0.945" style="stop-color:rgb(74.117647%,74.117647%,74.117647%);stop-opacity:1;"/>
<stop offset="0.949" style="stop-color:rgb(73.72549%,73.72549%,73.72549%);stop-opacity:1;"/>
<stop offset="0.953" style="stop-color:rgb(73.333333%,73.333333%,73.333333%);stop-opacity:1;"/>
<stop offset="0.957" style="stop-color:rgb(72.941176%,72.941176%,72.941176%);stop-opacity:1;"/>
<stop offset="0.961" style="stop-color:rgb(72.941176%,72.941176%,72.941176%);stop-opacity:1;"/>
<stop offset="0.965" style="stop-color:rgb(72.54902%,72.54902%,72.54902%);stop-opacity:1;"/>
<stop offset="0.969" style="stop-color:rgb(72.156863%,72.156863%,72.156863%);stop-opacity:1;"/>
<stop offset="0.973" style="stop-color:rgb(71.764706%,71.764706%,71.764706%);stop-opacity:1;"/>
<stop offset="0.977" style="stop-color:rgb(71.764706%,71.764706%,71.764706%);stop-opacity:1;"/>
<stop offset="0.98" style="stop-color:rgb(71.372549%,71.372549%,71.372549%);stop-opacity:1;"/>
<stop offset="0.984" style="stop-color:rgb(70.980392%,70.980392%,70.980392%);stop-opacity:1;"/>
<stop offset="0.988" style="stop-color:rgb(70.588235%,70.588235%,70.588235%);stop-opacity:1;"/>
<stop offset="0.992" style="stop-color:rgb(70.588235%,70.588235%,70.588235%);stop-opacity:1;"/>
<stop offset="1" style="stop-color:rgb(70.196078%,70.196078%,70.196078%);stop-opacity:1;"/>
</linearGradient>
</defs>
<g id="surface1">
<g clip-path="url(#clip1)" clip-rule="nonzero">
<g clip-path="url(#clip2)" clip-rule="nonzero">
<path style=" stroke:none;fill-rule:nonzero;fill:url(#linear0);" d="M 0.640625 0.640625 L 0.640625 31.359375 L 31.359375 31.359375 L 31.359375 0.640625 Z M 0.640625 0.640625 "/>
</g>
</g>
<path style="fill:none;stroke-width:23;stroke-linecap:butt;stroke-linejoin:miter;stroke:rgb(50.196081%,50.196081%,50.196081%);stroke-opacity:1;stroke-miterlimit:10;" d="M 91.489783 11.471196 L 481.510447 11.471196 C 484.098461 11.471196 486.756421 11.611089 489.344435 11.890874 C 491.932448 12.170659 494.520462 12.520391 497.108476 13.010015 C 499.696489 13.569586 502.214557 14.199102 504.732624 14.968512 C 507.250692 15.737921 509.698813 16.577277 512.146934 17.556526 C 514.525109 18.60572 516.903283 19.724861 519.211512 20.913949 C 521.51974 22.172983 523.758023 23.501963 525.926358 24.970835 C 528.094694 26.439708 530.193084 27.978527 532.221527 29.657238 C 534.24997 31.33595 536.208467 33.084608 538.097018 34.903212 C 539.915622 36.791763 541.66428 38.75026 543.342991 40.778703 C 545.021703 42.7372 546.560522 44.905536 548.029395 47.073871 C 549.498267 49.242207 550.827247 51.480489 552.086281 53.788718 C 553.275368 56.096946 554.394509 58.475121 555.443704 60.853296 C 556.422953 63.301417 557.262308 65.749538 558.031718 68.267606 C 558.801127 70.785673 559.430644 73.30374 559.990215 75.891754 C 560.479839 78.479768 560.829571 81.067782 561.109356 83.655795 C 561.389141 86.243809 561.529034 88.901769 561.529034 91.489783 L 561.529034 481.510447 C 561.529034 484.098461 561.389141 486.756421 561.109356 489.344435 C 560.829571 491.932448 560.479839 494.520462 559.990215 497.108476 C 559.430644 499.696489 558.801127 502.214557 558.031718 504.732624 C 557.262308 507.250692 556.422953 509.698813 555.443704 512.146934 C 554.394509 514.525109 553.275368 516.903283 552.086281 519.211512 C 550.827247 521.51974 549.498267 523.758023 548.029395 525.926358 C 546.560522 528.094694 545.021703 530.193084 543.342991 532.221527 C 541.66428 534.24997 539.915622 536.208467 538.097018 538.097018 C 536.208467 539.915622 534.24997 541.66428 532.221527 543.342991 C 530.193084 545.021703 528.094694 546.560522 525.926358 548.029395 C 523.758023 549.498267 521.51974 550.827247 519.211512 552.086281 C 516.903283 553.275368 514.525109 554.394509 512.146934 555.443704 C 509.698813 556.422953 507.250692 557.262308 504.732624 558.031718 C 502.214557 558.801127 499.696489 559.430644 497.108476 559.990215 C 494.520462 560.479839 491.932448 560.829571 489.344435 561.109356 C 486.756421 561.389141 484.098461 561.529034 481.510447 561.529034 L 91.489783 561.529034 C 88.901769 561.529034 86.243809 561.389141 83.655795 561.109356 C 81.067782 560.829571 78.479768 560.479839 75.891754 559.990215 C 73.30374 559.430644 70.785673 558.801127 68.267606 558.031718 C 65.749538 557.262308 63.301417 556.422953 60.853296 555.443704 C 58.475121 554.394509 56.096946 553.275368 53.788718 552.086281 C 51.480489 550.827247 49.242207 549.498267 47.073871 548.029395 C 44.905536 546.560522 42.7372 545.021703 40.778703 543.342991 C 38.75026 541.66428 36.791763 539.915622 34.903212 538.097018 C 33.084608 536.208467 31.33595 534.24997 29.657238 532.221527 C 27.978527 530.193084 26.439708 528.094694 24.970835 525.926358 C 23.501963 523.758023 22.172983 521.51974 20.913949 519.211512 C 19.724861 516.903283 18.60572 514.525109 17.556526 512.146934 C 16.577277 509.698813 15.737921 507.250692 14.968512 504.732624 C 14.199102 502.214557 13.569586 499.696489 13.010015 497.108476 C 12.520391 494.520462 12.170659 491.932448 11.890874 489.344435 C 11.611089 486.756421 11.471196 484.098461 11.471196 481.510447 L 11.471196 91.489783 C 11.471196 88.901769 11.611089 86.243809 11.890874 83.655795 C 12.170659 81.067782 12.520391 78.479768 13.010015 75.891754 C 13.569586 73.30374 14.199102 70.785673 14.968512 68.267606 C 15.737921 65.749538 16.577277 63.301417 17.556526 60.853296 C 18.60572 58.475121 19.724861 56.096946 20.913949 53.788718 C 22.172983 51.480489 23.501963 49.242207 24.970835 47.073871 C 26.439708 44.905536 27.978527 42.7372 29.657238 40.778703 C 31.33595 38.75026 33.084608 36.791763 34.903212 34.903212 C 36.791763 33.084608 38.75026 31.33595 40.778703 29.657238 C 42.7372 27.978527 44.905536 26.439708 47.073871 24.970835 C 49.242207 23.501963 51.480489 22.172983 53.788718 20.913949 C 56.096946 19.724861 58.475121 18.60572 60.853296 17.556526 C 63.301417 16.577277 65.749538 15.737921 68.267606 14.968512 C 70.785673 14.199102 73.30374 13.569586 75.891754 13.010015 C 78.479768 12.520391 81.067782 12.170659 83.655795 11.890874 C 86.243809 11.611089 88.901769 11.471196 91.489783 11.471196 Z M 91.489783 11.471196 " transform="matrix(0.0558464,0,0,0.0558464,0,0)"/>
<g clip-path="url(#clip3)" clip-rule="nonzero">
<g clip-path="url(#clip4)" clip-rule="nonzero">
<path style=" stroke:none;fill-rule:nonzero;fill:url(#linear1);" d="M 2.597656 2.597656 L 2.597656 29.402344 L 29.402344 29.402344 L 29.402344 2.597656 Z M 2.597656 2.597656 "/>
</g>
</g>
<path style="fill:none;stroke-width:20;stroke-linecap:butt;stroke-linejoin:miter;stroke:rgb(0%,0%,0%);stroke-opacity:1;stroke-miterlimit:10;" d="M 436.534965 386.523348 L 136.465265 386.523348 " transform="matrix(0.0558464,0,0,0.0558464,0,0)"/>
<path style="fill:none;stroke-width:20;stroke-linecap:butt;stroke-linejoin:miter;stroke:rgb(0%,0%,0%);stroke-opacity:1;stroke-miterlimit:10;" d="M 286.500115 386.523348 L 286.500115 186.476881 " transform="matrix(0.0558464,0,0,0.0558464,0,0)"/>
</g>
</svg>
