<?xml version="1.0" encoding="UTF-8"?>
<svg xmlns="http://www.w3.org/2000/svg" xmlns:xlink="http://www.w3.org/1999/xlink" width="16px" height="16px" viewBox="0 0 16 16" version="1.1">
<defs>
<clipPath id="clip1">
  <path d="M 0.296875 0.296875 L 15.703125 0.296875 L 15.703125 15.703125 L 0.296875 15.703125 Z M 0.296875 0.296875 "/>
</clipPath>
<clipPath id="clip2">
  <path d="M 2.554688 0.320312 L 13.445312 0.320312 C 13.515625 0.320312 13.59375 0.324219 13.664062 0.332031 C 13.734375 0.339844 13.808594 0.351562 13.882812 0.363281 C 13.953125 0.378906 14.023438 0.398438 14.09375 0.417969 C 14.164062 0.4375 14.234375 0.460938 14.300781 0.492188 C 14.367188 0.519531 14.433594 0.550781 14.5 0.585938 C 14.5625 0.617188 14.625 0.65625 14.6875 0.695312 C 14.746094 0.738281 14.804688 0.78125 14.859375 0.828125 C 14.917969 0.875 14.972656 0.921875 15.023438 0.976562 C 15.078125 1.027344 15.125 1.082031 15.171875 1.140625 C 15.21875 1.195312 15.261719 1.253906 15.304688 1.3125 C 15.34375 1.375 15.382812 1.4375 15.414062 1.5 C 15.449219 1.566406 15.480469 1.632812 15.507812 1.699219 C 15.539062 1.765625 15.5625 1.835938 15.582031 1.90625 C 15.601562 1.976562 15.621094 2.046875 15.636719 2.117188 C 15.648438 2.191406 15.660156 2.265625 15.667969 2.335938 C 15.675781 2.40625 15.679688 2.484375 15.679688 2.554688 L 15.679688 13.445312 C 15.679688 13.515625 15.675781 13.59375 15.667969 13.664062 C 15.660156 13.734375 15.648438 13.808594 15.636719 13.882812 C 15.621094 13.953125 15.601562 14.023438 15.582031 14.09375 C 15.5625 14.164062 15.539062 14.234375 15.507812 14.300781 C 15.480469 14.367188 15.449219 14.433594 15.414062 14.5 C 15.382812 14.5625 15.34375 14.625 15.304688 14.6875 C 15.261719 14.746094 15.21875 14.804688 15.171875 14.859375 C 15.125 14.917969 15.078125 14.972656 15.023438 15.023438 C 14.972656 15.078125 14.917969 15.125 14.859375 15.171875 C 14.804688 15.21875 14.746094 15.261719 14.6875 15.304688 C 14.625 15.34375 14.5625 15.382812 14.5 15.414062 C 14.433594 15.449219 14.367188 15.480469 14.300781 15.507812 C 14.234375 15.539062 14.164062 15.5625 14.09375 15.582031 C 14.023438 15.601562 13.953125 15.621094 13.882812 15.636719 C 13.808594 15.648438 13.734375 15.660156 13.664062 15.667969 C 13.59375 15.675781 13.515625 15.679688 13.445312 15.679688 L 2.554688 15.679688 C 2.484375 15.679688 2.40625 15.675781 2.335938 15.667969 C 2.265625 15.660156 2.191406 15.648438 2.117188 15.636719 C 2.046875 15.621094 1.976562 15.601562 1.90625 15.582031 C 1.835938 15.5625 1.765625 15.539062 1.699219 15.507812 C 1.632812 15.480469 1.566406 15.449219 1.5 15.414062 C 1.4375 15.382812 1.375 15.34375 1.3125 15.304688 C 1.253906 15.261719 1.195312 15.21875 1.140625 15.171875 C 1.082031 15.125 1.027344 15.078125 0.976562 15.023438 C 0.921875 14.972656 0.875 14.917969 0.828125 14.859375 C 0.78125 14.804688 0.738281 14.746094 0.695312 14.6875 C 0.65625 14.625 0.617188 14.5625 0.585938 14.5 C 0.550781 14.433594 0.519531 14.367188 0.492188 14.300781 C 0.460938 14.234375 0.4375 14.164062 0.417969 14.09375 C 0.398438 14.023438 0.378906 13.953125 0.363281 13.882812 C 0.351562 13.808594 0.339844 13.734375 0.332031 13.664062 C 0.324219 13.59375 0.320312 13.515625 0.320312 13.445312 L 0.320312 2.554688 C 0.320312 2.484375 0.324219 2.40625 0.332031 2.335938 C 0.339844 2.265625 0.351562 2.191406 0.363281 2.117188 C 0.378906 2.046875 0.398438 1.976562 0.417969 1.90625 C 0.4375 1.835938 0.460938 1.765625 0.492188 1.699219 C 0.519531 1.632812 0.550781 1.566406 0.585938 1.5 C 0.617188 1.4375 0.65625 1.375 0.695312 1.3125 C 0.738281 1.253906 0.78125 1.195312 0.828125 1.140625 C 0.875 1.082031 0.921875 1.027344 0.976562 0.976562 C 1.027344 0.921875 1.082031 0.875 1.140625 0.828125 C 1.195312 0.78125 1.253906 0.738281 1.3125 0.695312 C 1.375 0.65625 1.4375 0.617188 1.5 0.585938 C 1.566406 0.550781 1.632812 0.519531 1.699219 0.492188 C 1.765625 0.460938 1.835938 0.4375 1.90625 0.417969 C 1.976562 0.398438 2.046875 0.378906 2.117188 0.363281 C 2.191406 0.351562 2.265625 0.339844 2.335938 0.332031 C 2.40625 0.324219 2.484375 0.320312 2.554688 0.320312 Z M 2.554688 0.320312 "/>
</clipPath>
<linearGradient id="linear0" gradientUnits="userSpaceOnUse" x1="286.5" y1="11.5" x2="286.5" y2="561.5" gradientTransform="matrix(0.0279232,0,0,0.0279232,0,0)">
<stop offset="0" style="stop-color:rgb(65.490196%,66.27451%,67.45098%);stop-opacity:1;"/>
<stop offset="0.004" style="stop-color:rgb(65.882353%,66.666667%,67.843137%);stop-opacity:1;"/>
<stop offset="0.008" style="stop-color:rgb(66.27451%,67.058824%,68.235294%);stop-opacity:1;"/>
<stop offset="0.012" style="stop-color:rgb(66.27451%,67.058824%,68.235294%);stop-opacity:1;"/>
<stop offset="0.016" style="stop-color:rgb(66.666667%,67.45098%,68.627451%);stop-opacity:1;"/>
<stop offset="0.02" style="stop-color:rgb(67.058824%,67.843137%,69.019608%);stop-opacity:1;"/>
<stop offset="0.023" style="stop-color:rgb(67.45098%,68.235294%,69.411765%);stop-opacity:1;"/>
<stop offset="0.027" style="stop-color:rgb(67.45098%,68.235294%,69.411765%);stop-opacity:1;"/>
<stop offset="0.031" style="stop-color:rgb(67.843137%,68.627451%,69.803922%);stop-opacity:1;"/>
<stop offset="0.035" style="stop-color:rgb(68.235294%,69.019608%,70.196078%);stop-opacity:1;"/>
<stop offset="0.039" style="stop-color:rgb(68.627451%,69.411765%,70.588235%);stop-opacity:1;"/>
<stop offset="0.043" style="stop-color:rgb(68.627451%,69.411765%,70.588235%);stop-opacity:1;"/>
<stop offset="0.047" style="stop-color:rgb(69.019608%,69.803922%,70.980392%);stop-opacity:1;"/>
<stop offset="0.051" style="stop-color:rgb(69.411765%,70.196078%,71.372549%);stop-opacity:1;"/>
<stop offset="0.055" style="stop-color:rgb(69.803922%,70.196078%,71.372549%);stop-opacity:1;"/>
<stop offset="0.059" style="stop-color:rgb(69.803922%,70.588235%,71.764706%);stop-opacity:1;"/>
<stop offset="0.063" style="stop-color:rgb(70.196078%,70.980392%,72.156863%);stop-opacity:1;"/>
<stop offset="0.066" style="stop-color:rgb(70.588235%,71.372549%,72.156863%);stop-opacity:1;"/>
<stop offset="0.07" style="stop-color:rgb(70.588235%,71.372549%,72.54902%);stop-opacity:1;"/>
<stop offset="0.074" style="stop-color:rgb(70.980392%,71.764706%,72.941176%);stop-opacity:1;"/>
<stop offset="0.078" style="stop-color:rgb(71.372549%,72.156863%,72.941176%);stop-opacity:1;"/>
<stop offset="0.082" style="stop-color:rgb(71.764706%,72.156863%,73.333333%);stop-opacity:1;"/>
<stop offset="0.086" style="stop-color:rgb(71.764706%,72.54902%,73.72549%);stop-opacity:1;"/>
<stop offset="0.09" style="stop-color:rgb(72.156863%,72.941176%,73.72549%);stop-opacity:1;"/>
<stop offset="0.094" style="stop-color:rgb(72.54902%,73.333333%,74.117647%);stop-opacity:1;"/>
<stop offset="0.098" style="stop-color:rgb(72.941176%,73.333333%,74.509804%);stop-opacity:1;"/>
<stop offset="0.102" style="stop-color:rgb(72.941176%,73.72549%,74.901961%);stop-opacity:1;"/>
<stop offset="0.105" style="stop-color:rgb(73.333333%,74.117647%,74.901961%);stop-opacity:1;"/>
<stop offset="0.109" style="stop-color:rgb(73.72549%,74.117647%,75.294118%);stop-opacity:1;"/>
<stop offset="0.113" style="stop-color:rgb(74.117647%,74.509804%,75.686275%);stop-opacity:1;"/>
<stop offset="0.117" style="stop-color:rgb(74.117647%,74.901961%,75.686275%);stop-opacity:1;"/>
<stop offset="0.121" style="stop-color:rgb(74.509804%,74.901961%,76.078431%);stop-opacity:1;"/>
<stop offset="0.125" style="stop-color:rgb(74.901961%,75.294118%,76.470588%);stop-opacity:1;"/>
<stop offset="0.129" style="stop-color:rgb(74.901961%,75.686275%,76.470588%);stop-opacity:1;"/>
<stop offset="0.133" style="stop-color:rgb(75.294118%,76.078431%,76.862745%);stop-opacity:1;"/>
<stop offset="0.137" style="stop-color:rgb(75.686275%,76.078431%,77.254902%);stop-opacity:1;"/>
<stop offset="0.141" style="stop-color:rgb(76.078431%,76.470588%,77.254902%);stop-opacity:1;"/>
<stop offset="0.145" style="stop-color:rgb(76.078431%,76.862745%,77.647059%);stop-opacity:1;"/>
<stop offset="0.148" style="stop-color:rgb(76.470588%,76.862745%,78.039216%);stop-opacity:1;"/>
<stop offset="0.152" style="stop-color:rgb(76.862745%,77.254902%,78.039216%);stop-opacity:1;"/>
<stop offset="0.156" style="stop-color:rgb(77.254902%,77.647059%,78.431373%);stop-opacity:1;"/>
<stop offset="0.16" style="stop-color:rgb(77.254902%,78.039216%,78.823529%);stop-opacity:1;"/>
<stop offset="0.164" style="stop-color:rgb(77.647059%,78.039216%,78.823529%);stop-opacity:1;"/>
<stop offset="0.168" style="stop-color:rgb(78.039216%,78.431373%,79.215686%);stop-opacity:1;"/>
<stop offset="0.172" style="stop-color:rgb(78.431373%,78.823529%,79.607843%);stop-opacity:1;"/>
<stop offset="0.176" style="stop-color:rgb(78.431373%,78.823529%,80%);stop-opacity:1;"/>
<stop offset="0.18" style="stop-color:rgb(78.823529%,79.215686%,80%);stop-opacity:1;"/>
<stop offset="0.184" style="stop-color:rgb(79.215686%,79.607843%,80.392157%);stop-opacity:1;"/>
<stop offset="0.188" style="stop-color:rgb(79.607843%,80%,80.784314%);stop-opacity:1;"/>
<stop offset="0.191" style="stop-color:rgb(79.607843%,80%,80.784314%);stop-opacity:1;"/>
<stop offset="0.195" style="stop-color:rgb(80%,80.392157%,81.176471%);stop-opacity:1;"/>
<stop offset="0.199" style="stop-color:rgb(80%,80.392157%,81.176471%);stop-opacity:1;"/>
<stop offset="0.203" style="stop-color:rgb(80.392157%,80.784314%,81.568627%);stop-opacity:1;"/>
<stop offset="0.207" style="stop-color:rgb(80.392157%,80.784314%,81.568627%);stop-opacity:1;"/>
<stop offset="0.211" style="stop-color:rgb(80.784314%,81.176471%,81.960784%);stop-opacity:1;"/>
<stop offset="0.215" style="stop-color:rgb(80.784314%,81.176471%,81.960784%);stop-opacity:1;"/>
<stop offset="0.219" style="stop-color:rgb(81.176471%,81.568627%,82.352941%);stop-opacity:1;"/>
<stop offset="0.223" style="stop-color:rgb(81.176471%,81.568627%,82.352941%);stop-opacity:1;"/>
<stop offset="0.227" style="stop-color:rgb(81.568627%,81.960784%,82.745098%);stop-opacity:1;"/>
<stop offset="0.23" style="stop-color:rgb(81.568627%,81.960784%,82.745098%);stop-opacity:1;"/>
<stop offset="0.234" style="stop-color:rgb(81.960784%,82.352941%,83.137255%);stop-opacity:1;"/>
<stop offset="0.238" style="stop-color:rgb(81.960784%,82.745098%,83.137255%);stop-opacity:1;"/>
<stop offset="0.242" style="stop-color:rgb(82.352941%,82.745098%,83.529412%);stop-opacity:1;"/>
<stop offset="0.246" style="stop-color:rgb(82.745098%,83.137255%,83.529412%);stop-opacity:1;"/>
<stop offset="0.25" style="stop-color:rgb(82.745098%,83.137255%,83.921569%);stop-opacity:1;"/>
<stop offset="0.254" style="stop-color:rgb(83.137255%,83.529412%,83.921569%);stop-opacity:1;"/>
<stop offset="0.258" style="stop-color:rgb(83.137255%,83.529412%,84.313725%);stop-opacity:1;"/>
<stop offset="0.262" style="stop-color:rgb(83.529412%,83.921569%,84.313725%);stop-opacity:1;"/>
<stop offset="0.266" style="stop-color:rgb(83.529412%,83.921569%,84.705882%);stop-opacity:1;"/>
<stop offset="0.27" style="stop-color:rgb(83.921569%,84.313725%,84.705882%);stop-opacity:1;"/>
<stop offset="0.273" style="stop-color:rgb(83.921569%,84.313725%,85.098039%);stop-opacity:1;"/>
<stop offset="0.277" style="stop-color:rgb(84.313725%,84.705882%,85.098039%);stop-opacity:1;"/>
<stop offset="0.281" style="stop-color:rgb(84.313725%,84.705882%,85.490196%);stop-opacity:1;"/>
<stop offset="0.285" style="stop-color:rgb(84.705882%,85.098039%,85.490196%);stop-opacity:1;"/>
<stop offset="0.289" style="stop-color:rgb(84.705882%,85.098039%,85.882353%);stop-opacity:1;"/>
<stop offset="0.293" style="stop-color:rgb(85.098039%,85.490196%,85.882353%);stop-opacity:1;"/>
<stop offset="0.297" style="stop-color:rgb(85.098039%,85.490196%,86.27451%);stop-opacity:1;"/>
<stop offset="0.301" style="stop-color:rgb(85.490196%,85.882353%,86.27451%);stop-opacity:1;"/>
<stop offset="0.305" style="stop-color:rgb(85.490196%,85.882353%,86.666667%);stop-opacity:1;"/>
<stop offset="0.309" style="stop-color:rgb(85.882353%,86.27451%,86.666667%);stop-opacity:1;"/>
<stop offset="0.313" style="stop-color:rgb(86.27451%,86.666667%,87.058824%);stop-opacity:1;"/>
<stop offset="0.316" style="stop-color:rgb(86.27451%,86.666667%,87.058824%);stop-opacity:1;"/>
<stop offset="0.32" style="stop-color:rgb(86.666667%,87.058824%,87.45098%);stop-opacity:1;"/>
<stop offset="0.324" style="stop-color:rgb(86.666667%,87.058824%,87.45098%);stop-opacity:1;"/>
<stop offset="0.328" style="stop-color:rgb(87.058824%,87.45098%,87.843137%);stop-opacity:1;"/>
<stop offset="0.332" style="stop-color:rgb(87.058824%,87.45098%,87.843137%);stop-opacity:1;"/>
<stop offset="0.336" style="stop-color:rgb(87.45098%,87.843137%,88.235294%);stop-opacity:1;"/>
<stop offset="0.34" style="stop-color:rgb(87.45098%,87.843137%,88.235294%);stop-opacity:1;"/>
<stop offset="0.344" style="stop-color:rgb(87.843137%,88.235294%,88.627451%);stop-opacity:1;"/>
<stop offset="0.348" style="stop-color:rgb(87.843137%,88.235294%,88.627451%);stop-opacity:1;"/>
<stop offset="0.352" style="stop-color:rgb(88.235294%,88.627451%,89.019608%);stop-opacity:1;"/>
<stop offset="0.355" style="stop-color:rgb(88.235294%,88.627451%,89.019608%);stop-opacity:1;"/>
<stop offset="0.359" style="stop-color:rgb(88.627451%,89.019608%,89.411765%);stop-opacity:1;"/>
<stop offset="0.367" style="stop-color:rgb(88.627451%,89.019608%,89.411765%);stop-opacity:1;"/>
<stop offset="0.375" style="stop-color:rgb(89.019608%,89.411765%,89.803922%);stop-opacity:1;"/>
<stop offset="0.383" style="stop-color:rgb(89.411765%,89.803922%,90.196078%);stop-opacity:1;"/>
<stop offset="0.391" style="stop-color:rgb(89.411765%,89.803922%,90.196078%);stop-opacity:1;"/>
<stop offset="0.398" style="stop-color:rgb(89.803922%,90.196078%,90.588235%);stop-opacity:1;"/>
<stop offset="0.406" style="stop-color:rgb(90.196078%,90.588235%,90.980392%);stop-opacity:1;"/>
<stop offset="0.414" style="stop-color:rgb(90.196078%,90.588235%,90.980392%);stop-opacity:1;"/>
<stop offset="0.422" style="stop-color:rgb(90.588235%,90.980392%,91.372549%);stop-opacity:1;"/>
<stop offset="0.43" style="stop-color:rgb(90.980392%,91.372549%,91.372549%);stop-opacity:1;"/>
<stop offset="0.438" style="stop-color:rgb(90.980392%,91.764706%,91.764706%);stop-opacity:1;"/>
<stop offset="0.445" style="stop-color:rgb(91.372549%,91.764706%,92.156863%);stop-opacity:1;"/>
<stop offset="0.453" style="stop-color:rgb(91.764706%,92.156863%,92.156863%);stop-opacity:1;"/>
<stop offset="0.461" style="stop-color:rgb(92.156863%,92.54902%,92.54902%);stop-opacity:1;"/>
<stop offset="0.469" style="stop-color:rgb(92.156863%,92.54902%,92.941176%);stop-opacity:1;"/>
<stop offset="0.477" style="stop-color:rgb(92.54902%,92.941176%,92.941176%);stop-opacity:1;"/>
<stop offset="0.484" style="stop-color:rgb(92.941176%,93.333333%,93.333333%);stop-opacity:1;"/>
<stop offset="0.492" style="stop-color:rgb(92.941176%,93.333333%,93.72549%);stop-opacity:1;"/>
<stop offset="0.5" style="stop-color:rgb(93.333333%,93.72549%,93.72549%);stop-opacity:1;"/>
<stop offset="0.508" style="stop-color:rgb(93.72549%,94.117647%,94.117647%);stop-opacity:1;"/>
<stop offset="0.516" style="stop-color:rgb(93.72549%,94.117647%,94.509804%);stop-opacity:1;"/>
<stop offset="0.523" style="stop-color:rgb(94.117647%,94.509804%,94.509804%);stop-opacity:1;"/>
<stop offset="0.531" style="stop-color:rgb(94.509804%,94.901961%,94.901961%);stop-opacity:1;"/>
<stop offset="0.539" style="stop-color:rgb(94.901961%,95.294118%,95.294118%);stop-opacity:1;"/>
<stop offset="0.547" style="stop-color:rgb(94.901961%,95.294118%,95.294118%);stop-opacity:1;"/>
<stop offset="0.563" style="stop-color:rgb(95.294118%,95.686275%,95.686275%);stop-opacity:1;"/>
<stop offset="0.578" style="stop-color:rgb(95.294118%,95.686275%,95.686275%);stop-opacity:1;"/>
<stop offset="0.594" style="stop-color:rgb(95.686275%,96.078431%,96.078431%);stop-opacity:1;"/>
<stop offset="0.609" style="stop-color:rgb(96.078431%,96.470588%,96.470588%);stop-opacity:1;"/>
<stop offset="0.625" style="stop-color:rgb(96.470588%,96.470588%,96.470588%);stop-opacity:1;"/>
<stop offset="0.641" style="stop-color:rgb(96.862745%,96.862745%,96.862745%);stop-opacity:1;"/>
<stop offset="0.656" style="stop-color:rgb(96.862745%,97.254902%,97.254902%);stop-opacity:1;"/>
<stop offset="0.672" style="stop-color:rgb(97.254902%,97.647059%,97.647059%);stop-opacity:1;"/>
<stop offset="0.688" style="stop-color:rgb(97.647059%,97.647059%,97.647059%);stop-opacity:1;"/>
<stop offset="0.703" style="stop-color:rgb(98.039216%,98.039216%,98.039216%);stop-opacity:1;"/>
<stop offset="0.719" style="stop-color:rgb(98.039216%,98.431373%,98.431373%);stop-opacity:1;"/>
<stop offset="0.734" style="stop-color:rgb(98.431373%,98.431373%,98.431373%);stop-opacity:1;"/>
<stop offset="0.75" style="stop-color:rgb(98.823529%,98.823529%,98.823529%);stop-opacity:1;"/>
<stop offset="0.813" style="stop-color:rgb(98.823529%,98.823529%,98.823529%);stop-opacity:1;"/>
<stop offset="0.875" style="stop-color:rgb(99.215686%,99.215686%,99.215686%);stop-opacity:1;"/>
<stop offset="0.938" style="stop-color:rgb(99.607843%,99.607843%,99.607843%);stop-opacity:1;"/>
<stop offset="1" style="stop-color:rgb(100%,100%,100%);stop-opacity:1;"/>
</linearGradient>
<clipPath id="clip3">
  <path d="M 1.28125 1.28125 L 14.71875 1.28125 L 14.71875 14.71875 L 1.28125 14.71875 Z M 1.28125 1.28125 "/>
</clipPath>
<clipPath id="clip4">
  <path d="M 2.695312 1.296875 L 13.304688 1.296875 C 13.351562 1.296875 13.398438 1.300781 13.441406 1.304688 C 13.488281 1.3125 13.53125 1.316406 13.578125 1.328125 C 13.625 1.335938 13.667969 1.34375 13.710938 1.359375 C 13.753906 1.371094 13.796875 1.386719 13.839844 1.40625 C 13.882812 1.421875 13.921875 1.441406 13.960938 1.460938 C 14.003906 1.484375 14.042969 1.507812 14.078125 1.53125 C 14.117188 1.558594 14.15625 1.585938 14.191406 1.617188 C 14.226562 1.644531 14.257812 1.675781 14.292969 1.707031 C 14.324219 1.742188 14.355469 1.773438 14.382812 1.808594 C 14.414062 1.84375 14.441406 1.882812 14.46875 1.921875 C 14.492188 1.957031 14.515625 1.996094 14.539062 2.039062 C 14.558594 2.078125 14.578125 2.117188 14.59375 2.160156 C 14.613281 2.203125 14.628906 2.246094 14.640625 2.289062 C 14.65625 2.332031 14.664062 2.375 14.671875 2.421875 C 14.683594 2.46875 14.6875 2.511719 14.695312 2.558594 C 14.699219 2.601562 14.703125 2.648438 14.703125 2.695312 L 14.703125 13.304688 C 14.703125 13.351562 14.699219 13.398438 14.695312 13.441406 C 14.6875 13.488281 14.683594 13.53125 14.671875 13.578125 C 14.664062 13.625 14.65625 13.667969 14.640625 13.710938 C 14.628906 13.753906 14.613281 13.796875 14.59375 13.839844 C 14.578125 13.882812 14.558594 13.921875 14.539062 13.960938 C 14.515625 14.003906 14.492188 14.042969 14.46875 14.078125 C 14.441406 14.117188 14.414062 14.15625 14.382812 14.191406 C 14.355469 14.226562 14.324219 14.257812 14.292969 14.292969 C 14.257812 14.324219 14.226562 14.355469 14.191406 14.382812 C 14.15625 14.414062 14.117188 14.441406 14.078125 14.46875 C 14.042969 14.492188 14.003906 14.515625 13.960938 14.539062 C 13.921875 14.558594 13.882812 14.578125 13.839844 14.59375 C 13.796875 14.613281 13.753906 14.628906 13.710938 14.640625 C 13.667969 14.65625 13.625 14.664062 13.578125 14.671875 C 13.53125 14.683594 13.488281 14.6875 13.441406 14.695312 C 13.398438 14.699219 13.351562 14.703125 13.304688 14.703125 L 2.695312 14.703125 C 2.648438 14.703125 2.601562 14.699219 2.558594 14.695312 C 2.511719 14.6875 2.46875 14.683594 2.421875 14.671875 C 2.375 14.664062 2.332031 14.65625 2.289062 14.640625 C 2.246094 14.628906 2.203125 14.613281 2.160156 14.59375 C 2.117188 14.578125 2.078125 14.558594 2.039062 14.539062 C 1.996094 14.515625 1.957031 14.492188 1.921875 14.46875 C 1.882812 14.441406 1.84375 14.414062 1.808594 14.382812 C 1.773438 14.355469 1.742188 14.324219 1.707031 14.292969 C 1.675781 14.257812 1.644531 14.226562 1.617188 14.191406 C 1.585938 14.15625 1.558594 14.117188 1.53125 14.078125 C 1.507812 14.042969 1.484375 14.003906 1.460938 13.960938 C 1.441406 13.921875 1.421875 13.882812 1.40625 13.839844 C 1.386719 13.796875 1.371094 13.753906 1.359375 13.710938 C 1.34375 13.667969 1.335938 13.625 1.328125 13.578125 C 1.316406 13.53125 1.3125 13.488281 1.304688 13.441406 C 1.300781 13.398438 1.296875 13.351562 1.296875 13.304688 L 1.296875 2.695312 C 1.296875 2.648438 1.300781 2.601562 1.304688 2.558594 C 1.3125 2.511719 1.316406 2.46875 1.328125 2.421875 C 1.335938 2.375 1.34375 2.332031 1.359375 2.289062 C 1.371094 2.246094 1.386719 2.203125 1.40625 2.160156 C 1.421875 2.117188 1.441406 2.078125 1.460938 2.039062 C 1.484375 1.996094 1.507812 1.957031 1.53125 1.921875 C 1.558594 1.882812 1.585938 1.84375 1.617188 1.808594 C 1.644531 1.773438 1.675781 1.742188 1.707031 1.707031 C 1.742188 1.675781 1.773438 1.644531 1.808594 1.617188 C 1.84375 1.585938 1.882812 1.558594 1.921875 1.53125 C 1.957031 1.507812 1.996094 1.484375 2.039062 1.460938 C 2.078125 1.441406 2.117188 1.421875 2.160156 1.40625 C 2.203125 1.386719 2.246094 1.371094 2.289062 1.359375 C 2.332031 1.34375 2.375 1.335938 2.421875 1.328125 C 2.46875 1.316406 2.511719 1.3125 2.558594 1.304688 C 2.601562 1.300781 2.648438 1.296875 2.695312 1.296875 Z M 2.695312 1.296875 "/>
</clipPath>
<linearGradient id="linear1" gradientUnits="userSpaceOnUse" x1="286.5" y1="46.5" x2="286.5" y2="526.5" gradientTransform="matrix(0.0279232,0,0,0.0279232,0,0)">
<stop offset="0" style="stop-color:rgb(100%,100%,100%);stop-opacity:1;"/>
<stop offset="0.063" style="stop-color:rgb(100%,100%,100%);stop-opacity:1;"/>
<stop offset="0.125" style="stop-color:rgb(99.607843%,99.607843%,99.607843%);stop-opacity:1;"/>
<stop offset="0.188" style="stop-color:rgb(99.215686%,99.215686%,99.215686%);stop-opacity:1;"/>
<stop offset="0.25" style="stop-color:rgb(99.215686%,99.215686%,99.215686%);stop-opacity:1;"/>
<stop offset="0.313" style="stop-color:rgb(98.823529%,98.823529%,98.823529%);stop-opacity:1;"/>
<stop offset="0.328" style="stop-color:rgb(98.431373%,98.431373%,98.431373%);stop-opacity:1;"/>
<stop offset="0.344" style="stop-color:rgb(98.431373%,98.431373%,98.431373%);stop-opacity:1;"/>
<stop offset="0.359" style="stop-color:rgb(98.039216%,98.039216%,98.039216%);stop-opacity:1;"/>
<stop offset="0.375" style="stop-color:rgb(98.039216%,98.039216%,98.039216%);stop-opacity:1;"/>
<stop offset="0.391" style="stop-color:rgb(97.647059%,97.647059%,97.647059%);stop-opacity:1;"/>
<stop offset="0.406" style="stop-color:rgb(97.254902%,97.254902%,97.254902%);stop-opacity:1;"/>
<stop offset="0.422" style="stop-color:rgb(97.254902%,97.254902%,97.254902%);stop-opacity:1;"/>
<stop offset="0.438" style="stop-color:rgb(96.862745%,96.862745%,96.862745%);stop-opacity:1;"/>
<stop offset="0.453" style="stop-color:rgb(96.470588%,96.470588%,96.470588%);stop-opacity:1;"/>
<stop offset="0.469" style="stop-color:rgb(96.470588%,96.470588%,96.470588%);stop-opacity:1;"/>
<stop offset="0.484" style="stop-color:rgb(96.078431%,96.078431%,96.078431%);stop-opacity:1;"/>
<stop offset="0.5" style="stop-color:rgb(95.686275%,95.686275%,95.686275%);stop-opacity:1;"/>
<stop offset="0.516" style="stop-color:rgb(95.686275%,95.686275%,95.686275%);stop-opacity:1;"/>
<stop offset="0.523" style="stop-color:rgb(95.294118%,95.294118%,95.294118%);stop-opacity:1;"/>
<stop offset="0.531" style="stop-color:rgb(94.901961%,94.901961%,94.901961%);stop-opacity:1;"/>
<stop offset="0.539" style="stop-color:rgb(94.901961%,94.901961%,94.901961%);stop-opacity:1;"/>
<stop offset="0.547" style="stop-color:rgb(94.509804%,94.509804%,94.509804%);stop-opacity:1;"/>
<stop offset="0.555" style="stop-color:rgb(94.117647%,94.117647%,94.117647%);stop-opacity:1;"/>
<stop offset="0.563" style="stop-color:rgb(94.117647%,94.117647%,94.117647%);stop-opacity:1;"/>
<stop offset="0.57" style="stop-color:rgb(93.72549%,93.72549%,93.72549%);stop-opacity:1;"/>
<stop offset="0.578" style="stop-color:rgb(93.333333%,93.333333%,93.333333%);stop-opacity:1;"/>
<stop offset="0.586" style="stop-color:rgb(93.333333%,93.333333%,93.333333%);stop-opacity:1;"/>
<stop offset="0.594" style="stop-color:rgb(92.941176%,92.941176%,92.941176%);stop-opacity:1;"/>
<stop offset="0.602" style="stop-color:rgb(92.54902%,92.54902%,92.54902%);stop-opacity:1;"/>
<stop offset="0.609" style="stop-color:rgb(92.156863%,92.156863%,92.156863%);stop-opacity:1;"/>
<stop offset="0.617" style="stop-color:rgb(92.156863%,92.156863%,92.156863%);stop-opacity:1;"/>
<stop offset="0.625" style="stop-color:rgb(91.764706%,91.764706%,91.764706%);stop-opacity:1;"/>
<stop offset="0.633" style="stop-color:rgb(91.372549%,91.372549%,91.372549%);stop-opacity:1;"/>
<stop offset="0.641" style="stop-color:rgb(91.372549%,91.372549%,91.372549%);stop-opacity:1;"/>
<stop offset="0.648" style="stop-color:rgb(90.980392%,90.980392%,90.980392%);stop-opacity:1;"/>
<stop offset="0.656" style="stop-color:rgb(90.588235%,90.588235%,90.588235%);stop-opacity:1;"/>
<stop offset="0.664" style="stop-color:rgb(90.588235%,90.588235%,90.588235%);stop-opacity:1;"/>
<stop offset="0.672" style="stop-color:rgb(90.196078%,90.196078%,90.196078%);stop-opacity:1;"/>
<stop offset="0.68" style="stop-color:rgb(89.803922%,89.803922%,89.803922%);stop-opacity:1;"/>
<stop offset="0.688" style="stop-color:rgb(89.803922%,89.803922%,89.803922%);stop-opacity:1;"/>
<stop offset="0.695" style="stop-color:rgb(89.411765%,89.411765%,89.411765%);stop-opacity:1;"/>
<stop offset="0.699" style="stop-color:rgb(89.019608%,89.019608%,89.019608%);stop-opacity:1;"/>
<stop offset="0.703" style="stop-color:rgb(88.627451%,88.627451%,88.627451%);stop-opacity:1;"/>
<stop offset="0.707" style="stop-color:rgb(88.627451%,88.627451%,88.627451%);stop-opacity:1;"/>
<stop offset="0.711" style="stop-color:rgb(88.235294%,88.235294%,88.235294%);stop-opacity:1;"/>
<stop offset="0.715" style="stop-color:rgb(88.235294%,88.235294%,88.235294%);stop-opacity:1;"/>
<stop offset="0.719" style="stop-color:rgb(87.843137%,87.843137%,87.843137%);stop-opacity:1;"/>
<stop offset="0.723" style="stop-color:rgb(87.843137%,87.843137%,87.843137%);stop-opacity:1;"/>
<stop offset="0.727" style="stop-color:rgb(87.45098%,87.45098%,87.45098%);stop-opacity:1;"/>
<stop offset="0.73" style="stop-color:rgb(87.45098%,87.45098%,87.45098%);stop-opacity:1;"/>
<stop offset="0.734" style="stop-color:rgb(87.058824%,87.058824%,87.058824%);stop-opacity:1;"/>
<stop offset="0.738" style="stop-color:rgb(87.058824%,87.058824%,87.058824%);stop-opacity:1;"/>
<stop offset="0.742" style="stop-color:rgb(86.666667%,86.666667%,86.666667%);stop-opacity:1;"/>
<stop offset="0.746" style="stop-color:rgb(86.666667%,86.666667%,86.666667%);stop-opacity:1;"/>
<stop offset="0.75" style="stop-color:rgb(86.27451%,86.27451%,86.27451%);stop-opacity:1;"/>
<stop offset="0.754" style="stop-color:rgb(86.27451%,86.27451%,86.27451%);stop-opacity:1;"/>
<stop offset="0.758" style="stop-color:rgb(85.882353%,85.882353%,85.882353%);stop-opacity:1;"/>
<stop offset="0.762" style="stop-color:rgb(85.882353%,85.882353%,85.882353%);stop-opacity:1;"/>
<stop offset="0.766" style="stop-color:rgb(85.490196%,85.490196%,85.490196%);stop-opacity:1;"/>
<stop offset="0.77" style="stop-color:rgb(85.490196%,85.490196%,85.490196%);stop-opacity:1;"/>
<stop offset="0.773" style="stop-color:rgb(85.098039%,85.098039%,85.098039%);stop-opacity:1;"/>
<stop offset="0.777" style="stop-color:rgb(85.098039%,85.098039%,85.098039%);stop-opacity:1;"/>
<stop offset="0.781" style="stop-color:rgb(84.705882%,84.705882%,84.705882%);stop-opacity:1;"/>
<stop offset="0.785" style="stop-color:rgb(84.705882%,84.705882%,84.705882%);stop-opacity:1;"/>
<stop offset="0.789" style="stop-color:rgb(84.313725%,84.313725%,84.313725%);stop-opacity:1;"/>
<stop offset="0.793" style="stop-color:rgb(84.313725%,84.313725%,84.313725%);stop-opacity:1;"/>
<stop offset="0.797" style="stop-color:rgb(83.921569%,83.921569%,83.921569%);stop-opacity:1;"/>
<stop offset="0.801" style="stop-color:rgb(83.529412%,83.529412%,83.529412%);stop-opacity:1;"/>
<stop offset="0.805" style="stop-color:rgb(83.529412%,83.529412%,83.529412%);stop-opacity:1;"/>
<stop offset="0.809" style="stop-color:rgb(83.137255%,83.137255%,83.137255%);stop-opacity:1;"/>
<stop offset="0.813" style="stop-color:rgb(83.137255%,83.137255%,83.137255%);stop-opacity:1;"/>
<stop offset="0.816" style="stop-color:rgb(82.745098%,82.745098%,82.745098%);stop-opacity:1;"/>
<stop offset="0.82" style="stop-color:rgb(82.745098%,82.745098%,82.745098%);stop-opacity:1;"/>
<stop offset="0.824" style="stop-color:rgb(82.352941%,82.352941%,82.352941%);stop-opacity:1;"/>
<stop offset="0.828" style="stop-color:rgb(82.352941%,82.352941%,82.352941%);stop-opacity:1;"/>
<stop offset="0.832" style="stop-color:rgb(81.960784%,81.960784%,81.960784%);stop-opacity:1;"/>
<stop offset="0.836" style="stop-color:rgb(81.960784%,81.960784%,81.960784%);stop-opacity:1;"/>
<stop offset="0.84" style="stop-color:rgb(81.568627%,81.568627%,81.568627%);stop-opacity:1;"/>
<stop offset="0.844" style="stop-color:rgb(81.568627%,81.568627%,81.568627%);stop-opacity:1;"/>
<stop offset="0.848" style="stop-color:rgb(81.176471%,81.176471%,81.176471%);stop-opacity:1;"/>
<stop offset="0.852" style="stop-color:rgb(81.176471%,81.176471%,81.176471%);stop-opacity:1;"/>
<stop offset="0.855" style="stop-color:rgb(80.784314%,80.784314%,80.784314%);stop-opacity:1;"/>
<stop offset="0.859" style="stop-color:rgb(80.392157%,80.392157%,80.392157%);stop-opacity:1;"/>
<stop offset="0.863" style="stop-color:rgb(80%,80%,80%);stop-opacity:1;"/>
<stop offset="0.867" style="stop-color:rgb(80%,80%,80%);stop-opacity:1;"/>
<stop offset="0.871" style="stop-color:rgb(79.607843%,79.607843%,79.607843%);stop-opacity:1;"/>
<stop offset="0.875" style="stop-color:rgb(79.215686%,79.215686%,79.215686%);stop-opacity:1;"/>
<stop offset="0.879" style="stop-color:rgb(78.823529%,78.823529%,78.823529%);stop-opacity:1;"/>
<stop offset="0.883" style="stop-color:rgb(78.823529%,78.823529%,78.823529%);stop-opacity:1;"/>
<stop offset="0.887" style="stop-color:rgb(78.431373%,78.431373%,78.431373%);stop-opacity:1;"/>
<stop offset="0.891" style="stop-color:rgb(78.039216%,78.039216%,78.039216%);stop-opacity:1;"/>
<stop offset="0.895" style="stop-color:rgb(77.647059%,77.647059%,77.647059%);stop-opacity:1;"/>
<stop offset="0.898" style="stop-color:rgb(77.647059%,77.647059%,77.647059%);stop-opacity:1;"/>
<stop offset="0.902" style="stop-color:rgb(77.254902%,77.254902%,77.254902%);stop-opacity:1;"/>
<stop offset="0.906" style="stop-color:rgb(76.862745%,76.862745%,76.862745%);stop-opacity:1;"/>
<stop offset="0.91" style="stop-color:rgb(76.470588%,76.470588%,76.470588%);stop-opacity:1;"/>
<stop offset="0.914" style="stop-color:rgb(76.470588%,76.470588%,76.470588%);stop-opacity:1;"/>
<stop offset="0.918" style="stop-color:rgb(76.078431%,76.078431%,76.078431%);stop-opacity:1;"/>
<stop offset="0.922" style="stop-color:rgb(75.686275%,75.686275%,75.686275%);stop-opacity:1;"/>
<stop offset="0.926" style="stop-color:rgb(75.294118%,75.294118%,75.294118%);stop-opacity:1;"/>
<stop offset="0.93" style="stop-color:rgb(75.294118%,75.294118%,75.294118%);stop-opacity:1;"/>
<stop offset="0.934" style="stop-color:rgb(74.901961%,74.901961%,74.901961%);stop-opacity:1;"/>
<stop offset="0.938" style="stop-color:rgb(74.509804%,74.509804%,74.509804%);stop-opacity:1;"/>
<stop offset="0.941" style="stop-color:rgb(74.117647%,74.117647%,74.117647%);stop-opacity:1;"/>
<stop offset="0.945" style="stop-color:rgb(74.117647%,74.117647%,74.117647%);stop-opacity:1;"/>
<stop offset="0.949" style="stop-color:rgb(73.72549%,73.72549%,73.72549%);stop-opacity:1;"/>
<stop offset="0.953" style="stop-color:rgb(73.333333%,73.333333%,73.333333%);stop-opacity:1;"/>
<stop offset="0.957" style="stop-color:rgb(72.941176%,72.941176%,72.941176%);stop-opacity:1;"/>
<stop offset="0.961" style="stop-color:rgb(72.941176%,72.941176%,72.941176%);stop-opacity:1;"/>
<stop offset="0.965" style="stop-color:rgb(72.54902%,72.54902%,72.54902%);stop-opacity:1;"/>
<stop offset="0.969" style="stop-color:rgb(72.156863%,72.156863%,72.156863%);stop-opacity:1;"/>
<stop offset="0.973" style="stop-color:rgb(71.764706%,71.764706%,71.764706%);stop-opacity:1;"/>
<stop offset="0.977" style="stop-color:rgb(71.764706%,71.764706%,71.764706%);stop-opacity:1;"/>
<stop offset="0.98" style="stop-color:rgb(71.372549%,71.372549%,71.372549%);stop-opacity:1;"/>
<stop offset="0.984" style="stop-color:rgb(70.980392%,70.980392%,70.980392%);stop-opacity:1;"/>
<stop offset="0.988" style="stop-color:rgb(70.588235%,70.588235%,70.588235%);stop-opacity:1;"/>
<stop offset="0.992" style="stop-color:rgb(70.588235%,70.588235%,70.588235%);stop-opacity:1;"/>
<stop offset="1" style="stop-color:rgb(70.196078%,70.196078%,70.196078%);stop-opacity:1;"/>
</linearGradient>
</defs>
<g id="surface1">
<g clip-path="url(#clip1)" clip-rule="nonzero">
<g clip-path="url(#clip2)" clip-rule="nonzero">
<path style=" stroke:none;fill-rule:nonzero;fill:url(#linear0);" d="M 0.320312 0.320312 L 0.320312 15.679688 L 15.679688 15.679688 L 15.679688 0.320312 Z M 0.320312 0.320312 "/>
</g>
</g>
<path style="fill:none;stroke-width:23;stroke-linecap:butt;stroke-linejoin:miter;stroke:rgb(50.196081%,50.196081%,50.196081%);stroke-opacity:1;stroke-miterlimit:10;" d="M 91.489782 11.471196 L 481.510442 11.471196 C 484.168402 11.471196 486.826362 11.611089 489.344429 11.890874 C 492.002389 12.170659 494.520457 12.590337 497.178417 13.010015 C 499.696484 13.569585 502.214551 14.129156 504.732619 14.968512 C 507.250686 15.667975 509.768753 16.647223 512.146928 17.626472 C 514.525103 18.60572 516.903278 19.724861 519.281453 20.983895 C 521.519735 22.242929 523.758017 23.501962 525.996299 25.040781 C 528.094688 26.439708 530.193078 27.978527 532.291467 29.657238 C 534.249964 31.33595 536.208461 33.154554 538.166958 34.973158 C 539.985562 36.791762 541.664274 38.750259 543.342985 40.848649 C 545.021697 42.807146 546.560516 44.905535 548.099335 47.143817 C 549.498261 49.242207 550.897188 51.480489 552.156221 53.858664 C 553.275362 56.096946 554.394503 58.47512 555.513644 60.853295 C 556.492893 63.371363 557.332249 65.749537 558.031712 68.267605 C 558.871068 70.785672 559.430638 73.30374 559.990209 75.9617 C 560.549779 78.479767 560.829564 81.137727 561.10935 83.655794 C 561.389135 86.313754 561.529028 88.971714 561.529028 91.489782 L 561.529028 481.510442 C 561.529028 484.168402 561.389135 486.826362 561.10935 489.344429 C 560.829564 492.002389 560.549779 494.520457 559.990209 497.178417 C 559.430638 499.696484 558.871068 502.214551 558.031712 504.732619 C 557.332249 507.250686 556.492893 509.768753 555.513644 512.146928 C 554.394503 514.525103 553.275362 516.903278 552.156221 519.281453 C 550.897188 521.519735 549.498261 523.758017 548.099335 525.996299 C 546.560516 528.094688 545.021697 530.193078 543.342985 532.291467 C 541.664274 534.249964 539.985562 536.208461 538.166958 538.166958 C 536.208461 539.985562 534.249964 541.664274 532.291467 543.342985 C 530.193078 545.021697 528.094688 546.560516 525.996299 548.099335 C 523.758017 549.498261 521.519735 550.897188 519.281453 552.156221 C 516.903278 553.275362 514.525103 554.394503 512.146928 555.513644 C 509.768753 556.492893 507.250686 557.332249 504.732619 558.031712 C 502.214551 558.871068 499.696484 559.430638 497.178417 559.990209 C 494.520457 560.549779 492.002389 560.829564 489.344429 561.10935 C 486.826362 561.389135 484.168402 561.529028 481.510442 561.529028 L 91.489782 561.529028 C 88.971714 561.529028 86.313754 561.389135 83.655794 561.10935 C 81.137727 560.829564 78.479767 560.549779 75.9617 559.990209 C 73.30374 559.430638 70.785672 558.871068 68.267605 558.031712 C 65.749537 557.332249 63.371363 556.492893 60.853295 555.513644 C 58.47512 554.394503 56.096946 553.275362 53.858664 552.156221 C 51.480489 550.897188 49.242207 549.498261 47.143817 548.099335 C 44.905535 546.560516 42.807146 545.021697 40.848649 543.342985 C 38.750259 541.664274 36.791762 539.985562 34.973158 538.166958 C 33.154554 536.208461 31.33595 534.249964 29.657238 532.291467 C 27.978527 530.193078 26.439708 528.094688 25.040781 525.996299 C 23.501962 523.758017 22.242929 521.519735 20.983895 519.281453 C 19.724861 516.903278 18.60572 514.525103 17.626472 512.146928 C 16.647223 509.768753 15.667975 507.250686 14.968512 504.732619 C 14.129156 502.214551 13.569585 499.696484 13.010015 497.178417 C 12.590337 494.520457 12.170659 492.002389 11.890874 489.344429 C 11.611089 486.826362 11.471196 484.168402 11.471196 481.510442 L 11.471196 91.489782 C 11.471196 88.971714 11.611089 86.313754 11.890874 83.655794 C 12.170659 81.137727 12.590337 78.479767 13.010015 75.9617 C 13.569585 73.30374 14.129156 70.785672 14.968512 68.267605 C 15.667975 65.749537 16.647223 63.371363 17.626472 60.853295 C 18.60572 58.47512 19.724861 56.096946 20.983895 53.858664 C 22.242929 51.480489 23.501962 49.242207 25.040781 47.143817 C 26.439708 44.905535 27.978527 42.807146 29.657238 40.848649 C 31.33595 38.750259 33.154554 36.791762 34.973158 34.973158 C 36.791762 33.154554 38.750259 31.33595 40.848649 29.657238 C 42.807146 27.978527 44.905535 26.439708 47.143817 25.040781 C 49.242207 23.501962 51.480489 22.242929 53.858664 20.983895 C 56.096946 19.724861 58.47512 18.60572 60.853295 17.626472 C 63.371363 16.647223 65.749537 15.667975 68.267605 14.968512 C 70.785672 14.129156 73.30374 13.569585 75.9617 13.010015 C 78.479767 12.590337 81.137727 12.170659 83.655794 11.890874 C 86.313754 11.611089 88.971714 11.471196 91.489782 11.471196 Z M 91.489782 11.471196 " transform="matrix(0.0279232,0,0,0.0279232,0,0)"/>
<g clip-path="url(#clip3)" clip-rule="nonzero">
<g clip-path="url(#clip4)" clip-rule="nonzero">
<path style=" stroke:none;fill-rule:nonzero;fill:url(#linear1);" d="M 1.296875 1.296875 L 1.296875 14.703125 L 14.703125 14.703125 L 14.703125 1.296875 Z M 1.296875 1.296875 "/>
</g>
</g>
<path style=" stroke:none;fill-rule:nonzero;fill:rgb(0%,0%,0%);fill-opacity:1;" d="M 8 4.71875 C 8.0625 4.71875 8.125 4.71875 8.1875 4.726562 C 8.25 4.726562 8.3125 4.734375 8.375 4.742188 C 8.4375 4.75 8.5 4.757812 8.5625 4.765625 C 8.625 4.777344 8.683594 4.789062 8.742188 4.804688 C 8.804688 4.820312 8.867188 4.835938 8.925781 4.851562 C 8.984375 4.871094 9.046875 4.890625 9.105469 4.910156 C 9.164062 4.929688 9.222656 4.953125 9.28125 4.976562 C 9.335938 5.003906 9.394531 5.03125 9.453125 5.054688 C 9.507812 5.085938 9.5625 5.117188 9.617188 5.144531 C 9.671875 5.175781 9.726562 5.210938 9.777344 5.242188 C 9.828125 5.277344 9.882812 5.3125 9.929688 5.351562 C 9.984375 5.386719 10.03125 5.421875 10.078125 5.464844 C 10.128906 5.503906 10.175781 5.546875 10.222656 5.585938 C 10.269531 5.628906 10.3125 5.671875 10.359375 5.71875 C 10.398438 5.765625 10.445312 5.8125 10.484375 5.859375 C 10.523438 5.90625 10.5625 5.953125 10.601562 6 C 10.640625 6.054688 10.679688 6.101562 10.710938 6.15625 C 10.75 6.207031 10.78125 6.257812 10.8125 6.3125 C 10.84375 6.367188 10.875 6.421875 10.90625 6.476562 C 10.933594 6.53125 10.960938 6.585938 10.988281 6.648438 C 11.015625 6.703125 11.039062 6.761719 11.0625 6.820312 C 11.082031 6.875 11.101562 6.9375 11.125 6.996094 C 11.140625 7.054688 11.160156 7.117188 11.175781 7.175781 C 11.191406 7.238281 11.203125 7.296875 11.21875 7.359375 C 11.226562 7.421875 11.242188 7.484375 11.25 7.546875 C 11.257812 7.609375 11.265625 7.671875 11.269531 7.734375 C 11.273438 7.796875 11.277344 7.859375 11.28125 7.921875 C 11.28125 7.984375 11.28125 8.046875 11.277344 8.109375 C 11.273438 8.171875 11.273438 8.234375 11.265625 8.296875 C 11.261719 8.359375 11.253906 8.421875 11.242188 8.480469 C 11.234375 8.542969 11.226562 8.605469 11.210938 8.664062 C 11.199219 8.726562 11.183594 8.789062 11.167969 8.851562 C 11.152344 8.910156 11.132812 8.96875 11.113281 9.03125 C 11.09375 9.085938 11.070312 9.148438 11.050781 9.203125 C 11.027344 9.265625 11 9.320312 10.976562 9.378906 C 10.949219 9.4375 10.921875 9.492188 10.890625 9.546875 C 10.863281 9.601562 10.832031 9.65625 10.796875 9.710938 C 10.765625 9.761719 10.734375 9.8125 10.695312 9.867188 C 10.660156 9.917969 10.625 9.96875 10.585938 10.015625 C 10.546875 10.066406 10.507812 10.117188 10.464844 10.164062 C 10.421875 10.210938 10.382812 10.257812 10.335938 10.300781 C 10.292969 10.34375 10.25 10.390625 10.203125 10.429688 C 10.15625 10.472656 10.109375 10.515625 10.058594 10.554688 C 10.011719 10.59375 9.960938 10.628906 9.910156 10.664062 C 9.859375 10.703125 9.804688 10.738281 9.753906 10.773438 C 9.703125 10.804688 9.648438 10.835938 9.59375 10.867188 C 9.539062 10.898438 9.484375 10.925781 9.425781 10.953125 C 9.367188 10.980469 9.3125 11.007812 9.253906 11.03125 C 9.195312 11.054688 9.140625 11.078125 9.078125 11.097656 C 9.019531 11.117188 8.960938 11.136719 8.898438 11.15625 C 8.839844 11.171875 8.78125 11.1875 8.71875 11.199219 C 8.65625 11.214844 8.59375 11.226562 8.53125 11.234375 C 8.472656 11.246094 8.410156 11.253906 8.347656 11.261719 C 8.285156 11.265625 8.222656 11.273438 8.160156 11.273438 C 8.097656 11.28125 8.035156 11.28125 7.972656 11.28125 C 7.910156 11.28125 7.847656 11.277344 7.785156 11.273438 C 7.722656 11.269531 7.660156 11.265625 7.597656 11.257812 C 7.535156 11.25 7.476562 11.238281 7.414062 11.226562 C 7.351562 11.214844 7.289062 11.203125 7.226562 11.1875 C 7.167969 11.171875 7.109375 11.15625 7.046875 11.140625 C 6.984375 11.121094 6.929688 11.101562 6.867188 11.078125 C 6.8125 11.054688 6.75 11.03125 6.695312 11.007812 C 6.636719 10.984375 6.578125 10.957031 6.523438 10.929688 C 6.46875 10.898438 6.414062 10.871094 6.359375 10.839844 C 6.304688 10.808594 6.25 10.773438 6.199219 10.742188 C 6.148438 10.707031 6.09375 10.671875 6.046875 10.632812 C 5.992188 10.597656 5.945312 10.558594 5.898438 10.515625 C 5.851562 10.476562 5.804688 10.4375 5.757812 10.394531 C 5.710938 10.351562 5.664062 10.304688 5.625 10.261719 C 5.578125 10.21875 5.539062 10.171875 5.5 10.121094 C 5.457031 10.074219 5.417969 10.023438 5.382812 9.976562 C 5.34375 9.925781 5.304688 9.875 5.273438 9.820312 C 5.234375 9.769531 5.203125 9.71875 5.171875 9.664062 C 5.140625 9.609375 5.109375 9.554688 5.082031 9.5 C 5.054688 9.445312 5.023438 9.386719 5 9.328125 C 4.976562 9.273438 4.953125 9.210938 4.929688 9.15625 C 4.90625 9.09375 4.886719 9.039062 4.867188 8.976562 C 4.851562 8.917969 4.832031 8.859375 4.816406 8.796875 C 4.804688 8.734375 4.789062 8.671875 4.777344 8.613281 C 4.765625 8.550781 4.757812 8.492188 4.75 8.429688 C 4.738281 8.367188 4.734375 8.304688 4.726562 8.242188 C 4.722656 8.179688 4.71875 8.117188 4.71875 8.054688 C 4.71875 7.992188 4.71875 7.929688 4.722656 7.867188 C 4.726562 7.804688 4.726562 7.742188 4.734375 7.679688 C 4.742188 7.617188 4.75 7.554688 4.757812 7.492188 C 4.765625 7.429688 4.78125 7.367188 4.792969 7.304688 C 4.804688 7.246094 4.820312 7.1875 4.835938 7.125 C 4.855469 7.0625 4.875 7.003906 4.890625 6.945312 C 4.914062 6.882812 4.9375 6.828125 4.960938 6.769531 C 4.984375 6.710938 5.007812 6.65625 5.03125 6.597656 C 5.0625 6.539062 5.089844 6.484375 5.117188 6.429688 C 5.148438 6.375 5.179688 6.320312 5.210938 6.265625 C 5.246094 6.214844 5.28125 6.164062 5.320312 6.109375 C 5.351562 6.058594 5.390625 6.007812 5.429688 5.960938 C 5.46875 5.914062 5.507812 5.863281 5.550781 5.816406 C 5.59375 5.769531 5.632812 5.726562 5.679688 5.679688 C 5.757812 5.601562 5.835938 5.53125 5.917969 5.460938 C 6 5.394531 6.085938 5.328125 6.175781 5.273438 C 6.265625 5.210938 6.359375 5.15625 6.453125 5.105469 C 6.546875 5.054688 6.644531 5.007812 6.742188 4.96875 C 6.84375 4.925781 6.945312 4.890625 7.046875 4.859375 C 7.148438 4.828125 7.253906 4.800781 7.359375 4.78125 C 7.464844 4.757812 7.570312 4.742188 7.679688 4.734375 C 7.785156 4.726562 7.890625 4.71875 8 4.71875 M 8 4.160156 C 7.9375 4.160156 7.875 4.164062 7.8125 4.164062 C 7.75 4.167969 7.6875 4.171875 7.625 4.179688 C 7.5625 4.1875 7.5 4.195312 7.4375 4.203125 C 7.375 4.210938 7.3125 4.222656 7.25 4.234375 C 7.1875 4.246094 7.128906 4.257812 7.066406 4.273438 C 7.007812 4.289062 6.945312 4.308594 6.882812 4.328125 C 6.828125 4.34375 6.765625 4.363281 6.707031 4.382812 C 6.648438 4.40625 6.585938 4.429688 6.53125 4.453125 C 6.472656 4.476562 6.414062 4.5 6.359375 4.53125 C 6.300781 4.554688 6.246094 4.585938 6.1875 4.613281 C 6.132812 4.640625 6.078125 4.671875 6.023438 4.707031 C 5.972656 4.738281 5.921875 4.773438 5.867188 4.808594 C 5.8125 4.84375 5.765625 4.878906 5.710938 4.914062 C 5.664062 4.953125 5.613281 4.992188 5.5625 5.03125 C 5.515625 5.070312 5.46875 5.113281 5.421875 5.15625 C 5.375 5.195312 5.328125 5.242188 5.285156 5.285156 C 5.242188 5.328125 5.195312 5.375 5.15625 5.421875 C 5.113281 5.46875 5.070312 5.515625 5.03125 5.5625 C 4.992188 5.613281 4.953125 5.664062 4.914062 5.710938 C 4.878906 5.765625 4.84375 5.8125 4.808594 5.867188 C 4.773438 5.921875 4.738281 5.972656 4.707031 6.023438 C 4.671875 6.078125 4.640625 6.132812 4.613281 6.1875 C 4.585938 6.246094 4.554688 6.300781 4.53125 6.359375 C 4.5 6.414062 4.476562 6.472656 4.453125 6.53125 C 4.429688 6.585938 4.40625 6.648438 4.382812 6.707031 C 4.363281 6.765625 4.34375 6.828125 4.328125 6.882812 C 4.308594 6.945312 4.289062 7.007812 4.273438 7.066406 C 4.257812 7.128906 4.246094 7.1875 4.234375 7.25 C 4.222656 7.3125 4.210938 7.375 4.203125 7.4375 C 4.195312 7.5 4.1875 7.5625 4.179688 7.625 C 4.171875 7.6875 4.167969 7.75 4.164062 7.8125 C 4.164062 7.875 4.160156 7.9375 4.160156 8 C 4.160156 8.0625 4.164062 8.125 4.164062 8.1875 C 4.167969 8.25 4.171875 8.3125 4.179688 8.375 C 4.1875 8.4375 4.195312 8.5 4.203125 8.5625 C 4.210938 8.625 4.222656 8.6875 4.234375 8.75 C 4.246094 8.8125 4.257812 8.871094 4.273438 8.933594 C 4.289062 8.992188 4.308594 9.054688 4.328125 9.117188 C 4.34375 9.171875 4.363281 9.234375 4.382812 9.292969 C 4.40625 9.351562 4.429688 9.414062 4.453125 9.46875 C 4.476562 9.527344 4.5 9.585938 4.53125 9.640625 C 4.554688 9.699219 4.585938 9.753906 4.613281 9.8125 C 4.640625 9.867188 4.671875 9.921875 4.707031 9.976562 C 4.738281 10.027344 4.773438 10.078125 4.808594 10.132812 C 4.84375 10.1875 4.878906 10.234375 4.914062 10.289062 C 4.953125 10.335938 4.992188 10.386719 5.03125 10.4375 C 5.070312 10.484375 5.113281 10.53125 5.15625 10.578125 C 5.195312 10.625 5.242188 10.671875 5.285156 10.714844 C 5.328125 10.757812 5.375 10.804688 5.421875 10.84375 C 5.46875 10.886719 5.515625 10.929688 5.5625 10.96875 C 5.613281 11.007812 5.664062 11.046875 5.710938 11.085938 C 5.765625 11.121094 5.8125 11.15625 5.867188 11.191406 C 5.921875 11.226562 5.972656 11.261719 6.023438 11.292969 C 6.078125 11.328125 6.132812 11.359375 6.1875 11.386719 C 6.246094 11.414062 6.300781 11.445312 6.359375 11.46875 C 6.414062 11.5 6.472656 11.523438 6.53125 11.546875 C 6.585938 11.570312 6.648438 11.59375 6.707031 11.617188 C 6.765625 11.636719 6.828125 11.65625 6.882812 11.671875 C 6.945312 11.691406 7.007812 11.710938 7.066406 11.726562 C 7.128906 11.742188 7.1875 11.753906 7.25 11.765625 C 7.3125 11.777344 7.375 11.789062 7.4375 11.796875 C 7.5 11.804688 7.5625 11.8125 7.625 11.820312 C 7.6875 11.828125 7.75 11.832031 7.8125 11.835938 C 7.875 11.835938 7.9375 11.839844 8 11.839844 C 8.0625 11.839844 8.125 11.835938 8.1875 11.835938 C 8.25 11.832031 8.3125 11.828125 8.375 11.820312 C 8.4375 11.8125 8.5 11.804688 8.5625 11.796875 C 8.625 11.789062 8.6875 11.777344 8.75 11.765625 C 8.8125 11.753906 8.871094 11.742188 8.933594 11.726562 C 8.992188 11.710938 9.054688 11.691406 9.117188 11.671875 C 9.171875 11.65625 9.234375 11.636719 9.292969 11.617188 C 9.351562 11.59375 9.414062 11.570312 9.46875 11.546875 C 9.527344 11.523438 9.585938 11.5 9.640625 11.46875 C 9.699219 11.445312 9.753906 11.414062 9.8125 11.386719 C 9.867188 11.359375 9.921875 11.328125 9.976562 11.292969 C 10.027344 11.261719 10.078125 11.226562 10.132812 11.191406 C 10.1875 11.15625 10.234375 11.121094 10.289062 11.085938 C 10.335938 11.046875 10.386719 11.007812 10.4375 10.96875 C 10.484375 10.929688 10.53125 10.886719 10.578125 10.84375 C 10.625 10.804688 10.671875 10.757812 10.714844 10.714844 C 10.757812 10.671875 10.804688 10.625 10.84375 10.578125 C 10.886719 10.53125 10.929688 10.484375 10.96875 10.4375 C 11.007812 10.386719 11.046875 10.335938 11.085938 10.289062 C 11.121094 10.234375 11.15625 10.1875 11.191406 10.132812 C 11.226562 10.078125 11.261719 10.027344 11.292969 9.976562 C 11.328125 9.921875 11.359375 9.867188 11.386719 9.8125 C 11.414062 9.753906 11.445312 9.699219 11.46875 9.640625 C 11.5 9.585938 11.523438 9.527344 11.546875 9.46875 C 11.570312 9.414062 11.59375 9.351562 11.617188 9.292969 C 11.636719 9.234375 11.65625 9.171875 11.671875 9.117188 C 11.691406 9.054688 11.710938 8.992188 11.726562 8.933594 C 11.742188 8.871094 11.753906 8.8125 11.765625 8.75 C 11.777344 8.6875 11.789062 8.625 11.796875 8.5625 C 11.804688 8.5 11.8125 8.4375 11.820312 8.375 C 11.828125 8.3125 11.832031 8.25 11.835938 8.1875 C 11.835938 8.125 11.839844 8.0625 11.839844 8 C 11.839844 7.9375 11.835938 7.875 11.835938 7.8125 C 11.832031 7.75 11.828125 7.6875 11.820312 7.625 C 11.8125 7.5625 11.804688 7.5 11.796875 7.4375 C 11.789062 7.375 11.777344 7.3125 11.765625 7.25 C 11.753906 7.1875 11.742188 7.128906 11.726562 7.066406 C 11.710938 7.007812 11.691406 6.945312 11.671875 6.882812 C 11.65625 6.828125 11.636719 6.765625 11.617188 6.707031 C 11.59375 6.648438 11.570312 6.585938 11.546875 6.53125 C 11.523438 6.472656 11.5 6.414062 11.46875 6.359375 C 11.445312 6.300781 11.414062 6.246094 11.386719 6.1875 C 11.359375 6.132812 11.328125 6.078125 11.292969 6.023438 C 11.261719 5.972656 11.226562 5.921875 11.191406 5.867188 C 11.15625 5.8125 11.121094 5.765625 11.085938 5.710938 C 11.046875 5.664062 11.007812 5.613281 10.96875 5.5625 C 10.929688 5.515625 10.886719 5.46875 10.84375 5.421875 C 10.804688 5.375 10.757812 5.328125 10.714844 5.285156 C 10.671875 5.242188 10.625 5.195312 10.578125 5.15625 C 10.53125 5.113281 10.484375 5.070312 10.4375 5.03125 C 10.386719 4.992188 10.335938 4.953125 10.289062 4.914062 C 10.234375 4.878906 10.1875 4.84375 10.132812 4.808594 C 10.078125 4.773438 10.027344 4.738281 9.976562 4.707031 C 9.921875 4.671875 9.867188 4.640625 9.8125 4.613281 C 9.753906 4.585938 9.699219 4.554688 9.640625 4.53125 C 9.585938 4.5 9.527344 4.476562 9.46875 4.453125 C 9.414062 4.429688 9.351562 4.40625 9.292969 4.382812 C 9.234375 4.363281 9.171875 4.34375 9.117188 4.328125 C 9.054688 4.308594 8.992188 4.289062 8.933594 4.273438 C 8.871094 4.257812 8.8125 4.246094 8.75 4.234375 C 8.6875 4.222656 8.625 4.210938 8.5625 4.203125 C 8.5 4.195312 8.4375 4.1875 8.375 4.179688 C 8.3125 4.171875 8.25 4.167969 8.1875 4.164062 C 8.125 4.164062 8.0625 4.160156 8 4.160156 Z M 8 4.160156 "/>
<path style=" stroke:none;fill-rule:nonzero;fill:rgb(0%,0%,0%);fill-opacity:1;" d="M 8 5.765625 C 8.070312 5.765625 8.148438 5.769531 8.21875 5.777344 C 8.289062 5.78125 8.363281 5.796875 8.4375 5.808594 C 8.507812 5.824219 8.578125 5.84375 8.648438 5.863281 C 8.71875 5.882812 8.789062 5.90625 8.855469 5.9375 C 8.921875 5.964844 8.988281 5.996094 9.054688 6.03125 C 9.117188 6.0625 9.179688 6.101562 9.242188 6.140625 C 9.304688 6.183594 9.359375 6.226562 9.417969 6.273438 C 9.476562 6.320312 9.527344 6.367188 9.578125 6.421875 C 9.632812 6.472656 9.679688 6.523438 9.726562 6.582031 C 9.773438 6.640625 9.816406 6.695312 9.859375 6.757812 C 9.898438 6.820312 9.9375 6.882812 9.96875 6.945312 C 10.003906 7.011719 10.035156 7.078125 10.0625 7.144531 C 10.09375 7.210938 10.117188 7.28125 10.136719 7.351562 C 10.15625 7.421875 10.175781 7.492188 10.191406 7.5625 C 10.203125 7.636719 10.21875 7.710938 10.222656 7.78125 C 10.230469 7.851562 10.234375 7.929688 10.234375 8 C 10.234375 8.070312 10.230469 8.148438 10.222656 8.21875 C 10.21875 8.289062 10.203125 8.363281 10.191406 8.4375 C 10.175781 8.507812 10.15625 8.578125 10.136719 8.648438 C 10.117188 8.71875 10.09375 8.789062 10.0625 8.855469 C 10.035156 8.921875 10.003906 8.988281 9.96875 9.054688 C 9.9375 9.117188 9.898438 9.179688 9.859375 9.242188 C 9.816406 9.304688 9.773438 9.359375 9.726562 9.417969 C 9.679688 9.476562 9.632812 9.527344 9.578125 9.578125 C 9.527344 9.632812 9.476562 9.679688 9.417969 9.726562 C 9.359375 9.773438 9.304688 9.816406 9.242188 9.859375 C 9.179688 9.898438 9.117188 9.9375 9.054688 9.96875 C 8.988281 10.003906 8.921875 10.035156 8.855469 10.0625 C 8.789062 10.09375 8.71875 10.117188 8.648438 10.136719 C 8.578125 10.15625 8.507812 10.175781 8.4375 10.191406 C 8.363281 10.203125 8.289062 10.21875 8.21875 10.222656 C 8.148438 10.230469 8.070312 10.234375 8 10.234375 C 7.929688 10.234375 7.851562 10.230469 7.78125 10.222656 C 7.710938 10.21875 7.636719 10.203125 7.5625 10.191406 C 7.492188 10.175781 7.421875 10.15625 7.351562 10.136719 C 7.28125 10.117188 7.210938 10.09375 7.144531 10.0625 C 7.078125 10.035156 7.011719 10.003906 6.945312 9.96875 C 6.882812 9.9375 6.820312 9.898438 6.757812 9.859375 C 6.695312 9.816406 6.640625 9.773438 6.582031 9.726562 C 6.523438 9.679688 6.472656 9.632812 6.421875 9.578125 C 6.367188 9.527344 6.320312 9.476562 6.273438 9.417969 C 6.226562 9.359375 6.183594 9.304688 6.140625 9.242188 C 6.101562 9.179688 6.0625 9.117188 6.03125 9.054688 C 5.996094 8.988281 5.964844 8.921875 5.9375 8.855469 C 5.90625 8.789062 5.882812 8.71875 5.863281 8.648438 C 5.84375 8.578125 5.824219 8.507812 5.808594 8.4375 C 5.796875 8.363281 5.78125 8.289062 5.777344 8.21875 C 5.769531 8.148438 5.765625 8.070312 5.765625 8 C 5.765625 7.929688 5.769531 7.851562 5.777344 7.78125 C 5.785156 7.710938 5.796875 7.636719 5.808594 7.5625 C 5.824219 7.492188 5.84375 7.421875 5.863281 7.351562 C 5.882812 7.28125 5.90625 7.210938 5.9375 7.144531 C 5.964844 7.078125 5.996094 7.011719 6.03125 6.945312 C 6.0625 6.882812 6.101562 6.820312 6.140625 6.757812 C 6.183594 6.699219 6.226562 6.640625 6.273438 6.585938 C 6.320312 6.527344 6.367188 6.472656 6.421875 6.421875 C 6.472656 6.367188 6.527344 6.320312 6.585938 6.273438 C 6.640625 6.226562 6.699219 6.183594 6.757812 6.140625 C 6.820312 6.101562 6.882812 6.0625 6.945312 6.03125 C 7.011719 5.996094 7.078125 5.964844 7.144531 5.9375 C 7.210938 5.90625 7.28125 5.882812 7.351562 5.863281 C 7.421875 5.84375 7.492188 5.824219 7.5625 5.808594 C 7.636719 5.796875 7.710938 5.785156 7.78125 5.777344 C 7.851562 5.769531 7.929688 5.765625 8 5.765625 M 8 5.207031 C 7.953125 5.207031 7.90625 5.210938 7.863281 5.210938 C 7.816406 5.210938 7.773438 5.21875 7.726562 5.21875 C 7.679688 5.226562 7.632812 5.230469 7.589844 5.238281 C 7.546875 5.242188 7.5 5.25 7.453125 5.261719 C 7.410156 5.269531 7.367188 5.28125 7.320312 5.289062 C 7.277344 5.304688 7.234375 5.3125 7.1875 5.328125 C 7.148438 5.34375 7.101562 5.355469 7.058594 5.371094 C 7.015625 5.386719 6.976562 5.402344 6.929688 5.421875 C 6.890625 5.4375 6.847656 5.457031 6.804688 5.476562 C 6.765625 5.496094 6.726562 5.515625 6.683594 5.539062 C 6.640625 5.558594 6.601562 5.582031 6.5625 5.605469 C 6.523438 5.628906 6.484375 5.652344 6.449219 5.679688 C 6.410156 5.703125 6.375 5.730469 6.335938 5.757812 C 6.300781 5.785156 6.265625 5.8125 6.226562 5.84375 C 6.195312 5.871094 6.15625 5.898438 6.125 5.929688 C 6.09375 5.960938 6.058594 5.992188 6.023438 6.023438 C 5.992188 6.058594 5.960938 6.09375 5.929688 6.125 C 5.898438 6.15625 5.871094 6.195312 5.84375 6.226562 C 5.8125 6.265625 5.785156 6.300781 5.757812 6.335938 C 5.730469 6.375 5.703125 6.410156 5.679688 6.449219 C 5.652344 6.484375 5.628906 6.523438 5.605469 6.5625 C 5.582031 6.601562 5.558594 6.640625 5.539062 6.683594 C 5.515625 6.726562 5.496094 6.765625 5.476562 6.804688 C 5.457031 6.847656 5.4375 6.890625 5.421875 6.929688 C 5.402344 6.976562 5.386719 7.015625 5.371094 7.058594 C 5.355469 7.101562 5.34375 7.148438 5.328125 7.1875 C 5.3125 7.234375 5.304688 7.277344 5.289062 7.320312 C 5.28125 7.367188 5.269531 7.410156 5.261719 7.453125 C 5.25 7.5 5.242188 7.546875 5.238281 7.589844 C 5.230469 7.632812 5.226562 7.679688 5.21875 7.726562 C 5.21875 7.773438 5.210938 7.816406 5.210938 7.863281 C 5.210938 7.90625 5.207031 7.953125 5.207031 8 C 5.207031 8.046875 5.210938 8.09375 5.210938 8.136719 C 5.210938 8.183594 5.21875 8.226562 5.21875 8.273438 C 5.226562 8.320312 5.230469 8.367188 5.238281 8.410156 C 5.242188 8.453125 5.25 8.5 5.261719 8.546875 C 5.269531 8.589844 5.28125 8.632812 5.289062 8.679688 C 5.304688 8.722656 5.3125 8.765625 5.328125 8.8125 C 5.34375 8.851562 5.355469 8.898438 5.371094 8.941406 C 5.386719 8.984375 5.402344 9.023438 5.421875 9.070312 C 5.4375 9.109375 5.457031 9.152344 5.476562 9.195312 C 5.496094 9.234375 5.515625 9.273438 5.539062 9.316406 C 5.558594 9.359375 5.582031 9.398438 5.605469 9.4375 C 5.628906 9.476562 5.652344 9.515625 5.679688 9.550781 C 5.703125 9.589844 5.730469 9.625 5.757812 9.664062 C 5.785156 9.699219 5.8125 9.734375 5.84375 9.773438 C 5.871094 9.804688 5.898438 9.84375 5.929688 9.875 C 5.960938 9.90625 5.992188 9.941406 6.023438 9.976562 C 6.058594 10.007812 6.09375 10.039062 6.125 10.070312 C 6.15625 10.101562 6.195312 10.128906 6.226562 10.15625 C 6.265625 10.1875 6.300781 10.214844 6.335938 10.242188 C 6.375 10.269531 6.410156 10.296875 6.449219 10.320312 C 6.484375 10.347656 6.523438 10.371094 6.5625 10.394531 C 6.601562 10.417969 6.640625 10.441406 6.683594 10.460938 C 6.726562 10.484375 6.765625 10.503906 6.804688 10.523438 C 6.847656 10.542969 6.890625 10.5625 6.929688 10.578125 C 6.976562 10.597656 7.015625 10.613281 7.058594 10.628906 C 7.101562 10.644531 7.148438 10.65625 7.1875 10.671875 C 7.234375 10.6875 7.277344 10.695312 7.320312 10.710938 C 7.367188 10.71875 7.410156 10.730469 7.453125 10.738281 C 7.5 10.75 7.546875 10.757812 7.589844 10.761719 C 7.632812 10.769531 7.679688 10.773438 7.726562 10.78125 C 7.773438 10.78125 7.816406 10.789062 7.863281 10.789062 C 7.90625 10.789062 7.953125 10.792969 8 10.792969 C 8.046875 10.792969 8.09375 10.789062 8.136719 10.789062 C 8.183594 10.789062 8.226562 10.78125 8.273438 10.78125 C 8.320312 10.773438 8.367188 10.769531 8.410156 10.761719 C 8.453125 10.757812 8.5 10.75 8.546875 10.738281 C 8.589844 10.730469 8.632812 10.71875 8.679688 10.710938 C 8.722656 10.695312 8.765625 10.6875 8.8125 10.671875 C 8.851562 10.65625 8.898438 10.644531 8.941406 10.628906 C 8.984375 10.613281 9.023438 10.597656 9.070312 10.578125 C 9.109375 10.5625 9.152344 10.542969 9.195312 10.523438 C 9.234375 10.503906 9.273438 10.484375 9.316406 10.460938 C 9.359375 10.441406 9.398438 10.417969 9.4375 10.394531 C 9.476562 10.371094 9.515625 10.347656 9.550781 10.320312 C 9.589844 10.296875 9.625 10.269531 9.664062 10.242188 C 9.699219 10.214844 9.734375 10.1875 9.773438 10.15625 C 9.804688 10.128906 9.84375 10.101562 9.875 10.070312 C 9.90625 10.039062 9.941406 10.007812 9.976562 9.976562 C 10.007812 9.941406 10.039062 9.90625 10.070312 9.875 C 10.101562 9.84375 10.128906 9.804688 10.15625 9.773438 C 10.1875 9.734375 10.214844 9.699219 10.242188 9.664062 C 10.269531 9.625 10.296875 9.589844 10.320312 9.550781 C 10.347656 9.515625 10.371094 9.476562 10.394531 9.4375 C 10.417969 9.398438 10.441406 9.359375 10.460938 9.316406 C 10.484375 9.273438 10.503906 9.234375 10.523438 9.195312 C 10.542969 9.152344 10.5625 9.109375 10.578125 9.070312 C 10.597656 9.023438 10.613281 8.984375 10.628906 8.941406 C 10.644531 8.898438 10.65625 8.851562 10.671875 8.8125 C 10.6875 8.765625 10.695312 8.722656 10.710938 8.679688 C 10.71875 8.632812 10.730469 8.589844 10.738281 8.546875 C 10.75 8.5 10.757812 8.453125 10.761719 8.410156 C 10.769531 8.367188 10.773438 8.320312 10.78125 8.273438 C 10.78125 8.226562 10.789062 8.183594 10.789062 8.136719 C 10.789062 8.09375 10.792969 8.046875 10.792969 8 C 10.792969 7.953125 10.789062 7.90625 10.789062 7.863281 C 10.789062 7.816406 10.78125 7.773438 10.78125 7.726562 C 10.773438 7.679688 10.769531 7.632812 10.761719 7.589844 C 10.757812 7.546875 10.75 7.5 10.738281 7.453125 C 10.730469 7.410156 10.71875 7.367188 10.710938 7.320312 C 10.695312 7.277344 10.6875 7.234375 10.671875 7.1875 C 10.65625 7.148438 10.644531 7.101562 10.628906 7.058594 C 10.613281 7.015625 10.597656 6.976562 10.578125 6.929688 C 10.5625 6.890625 10.542969 6.847656 10.523438 6.804688 C 10.503906 6.765625 10.484375 6.726562 10.460938 6.683594 C 10.441406 6.640625 10.417969 6.601562 10.394531 6.5625 C 10.371094 6.523438 10.347656 6.484375 10.320312 6.449219 C 10.296875 6.410156 10.269531 6.375 10.242188 6.335938 C 10.214844 6.300781 10.1875 6.265625 10.15625 6.226562 C 10.128906 6.195312 10.101562 6.15625 10.070312 6.125 C 10.039062 6.09375 10.007812 6.058594 9.976562 6.023438 C 9.941406 5.992188 9.90625 5.960938 9.875 5.929688 C 9.84375 5.898438 9.804688 5.871094 9.773438 5.84375 C 9.734375 5.8125 9.699219 5.785156 9.664062 5.757812 C 9.625 5.730469 9.589844 5.703125 9.550781 5.679688 C 9.515625 5.652344 9.476562 5.628906 9.4375 5.605469 C 9.398438 5.582031 9.359375 5.558594 9.316406 5.539062 C 9.273438 5.515625 9.234375 5.496094 9.195312 5.476562 C 9.152344 5.457031 9.109375 5.4375 9.070312 5.421875 C 9.023438 5.402344 8.984375 5.386719 8.941406 5.371094 C 8.898438 5.355469 8.851562 5.34375 8.8125 5.328125 C 8.765625 5.3125 8.722656 5.304688 8.679688 5.289062 C 8.632812 5.28125 8.589844 5.269531 8.546875 5.261719 C 8.5 5.25 8.453125 5.242188 8.410156 5.238281 C 8.367188 5.230469 8.320312 5.226562 8.273438 5.21875 C 8.226562 5.21875 8.183594 5.210938 8.136719 5.210938 C 8.09375 5.210938 8.046875 5.207031 8 5.207031 Z M 8 5.207031 "/>
</g>
</svg>
