<?xml version="1.0" encoding="UTF-8"?>
<svg xmlns="http://www.w3.org/2000/svg" xmlns:xlink="http://www.w3.org/1999/xlink" width="32px" height="32px" viewBox="0 0 32 32" version="1.1">
<defs>
<clipPath id="clip1">
  <path d="M 0.597656 0.597656 L 31.402344 0.597656 L 31.402344 31.402344 L 0.597656 31.402344 Z M 0.597656 0.597656 "/>
</clipPath>
<clipPath id="clip2">
  <path d="M 5.109375 0.640625 L 26.890625 0.640625 C 27.035156 0.640625 27.183594 0.648438 27.328125 0.664062 C 27.472656 0.679688 27.617188 0.699219 27.761719 0.726562 C 27.90625 0.757812 28.046875 0.792969 28.1875 0.835938 C 28.328125 0.878906 28.464844 0.925781 28.601562 0.980469 C 28.734375 1.039062 28.867188 1.101562 28.996094 1.167969 C 29.125 1.238281 29.25 1.3125 29.371094 1.394531 C 29.492188 1.476562 29.613281 1.5625 29.722656 1.65625 C 29.835938 1.75 29.945312 1.847656 30.050781 1.949219 C 30.152344 2.054688 30.25 2.164062 30.34375 2.277344 C 30.4375 2.386719 30.523438 2.507812 30.605469 2.628906 C 30.6875 2.75 30.761719 2.875 30.832031 3.003906 C 30.898438 3.132812 30.960938 3.265625 31.019531 3.398438 C 31.074219 3.535156 31.121094 3.671875 31.164062 3.8125 C 31.207031 3.953125 31.242188 4.09375 31.273438 4.238281 C 31.300781 4.382812 31.320312 4.527344 31.335938 4.671875 C 31.351562 4.816406 31.359375 4.964844 31.359375 5.109375 L 31.359375 26.890625 C 31.359375 27.035156 31.351562 27.183594 31.335938 27.328125 C 31.320312 27.472656 31.300781 27.617188 31.273438 27.761719 C 31.242188 27.90625 31.207031 28.046875 31.164062 28.1875 C 31.121094 28.328125 31.074219 28.464844 31.019531 28.601562 C 30.960938 28.734375 30.898438 28.867188 30.832031 28.996094 C 30.761719 29.125 30.6875 29.25 30.605469 29.371094 C 30.523438 29.492188 30.4375 29.613281 30.34375 29.722656 C 30.25 29.835938 30.152344 29.945312 30.050781 30.050781 C 29.945312 30.152344 29.835938 30.25 29.722656 30.34375 C 29.613281 30.4375 29.492188 30.523438 29.371094 30.605469 C 29.25 30.6875 29.125 30.761719 28.996094 30.832031 C 28.867188 30.898438 28.734375 30.960938 28.601562 31.019531 C 28.464844 31.074219 28.328125 31.121094 28.1875 31.164062 C 28.046875 31.207031 27.90625 31.242188 27.761719 31.273438 C 27.617188 31.300781 27.472656 31.320312 27.328125 31.335938 C 27.183594 31.351562 27.035156 31.359375 26.890625 31.359375 L 5.109375 31.359375 C 4.964844 31.359375 4.816406 31.351562 4.671875 31.335938 C 4.527344 31.320312 4.382812 31.300781 4.238281 31.273438 C 4.09375 31.242188 3.953125 31.207031 3.8125 31.164062 C 3.671875 31.121094 3.535156 31.074219 3.398438 31.019531 C 3.265625 30.960938 3.132812 30.898438 3.003906 30.832031 C 2.875 30.761719 2.75 30.6875 2.628906 30.605469 C 2.507812 30.523438 2.386719 30.4375 2.277344 30.34375 C 2.164062 30.25 2.054688 30.152344 1.949219 30.050781 C 1.847656 29.945312 1.75 29.835938 1.65625 29.722656 C 1.5625 29.613281 1.476562 29.492188 1.394531 29.371094 C 1.3125 29.25 1.238281 29.125 1.167969 28.996094 C 1.101562 28.867188 1.039062 28.734375 0.980469 28.601562 C 0.925781 28.464844 0.878906 28.328125 0.835938 28.1875 C 0.792969 28.046875 0.757812 27.90625 0.726562 27.761719 C 0.699219 27.617188 0.679688 27.472656 0.664062 27.328125 C 0.648438 27.183594 0.640625 27.035156 0.640625 26.890625 L 0.640625 5.109375 C 0.640625 4.964844 0.648438 4.816406 0.664062 4.671875 C 0.679688 4.527344 0.699219 4.382812 0.726562 4.238281 C 0.757812 4.09375 0.792969 3.953125 0.835938 3.8125 C 0.878906 3.671875 0.925781 3.535156 0.980469 3.398438 C 1.039062 3.265625 1.101562 3.132812 1.167969 3.003906 C 1.238281 2.875 1.3125 2.75 1.394531 2.628906 C 1.476562 2.507812 1.5625 2.386719 1.65625 2.277344 C 1.75 2.164062 1.847656 2.054688 1.949219 1.949219 C 2.054688 1.847656 2.164062 1.75 2.277344 1.65625 C 2.386719 1.5625 2.507812 1.476562 2.628906 1.394531 C 2.75 1.3125 2.875 1.238281 3.003906 1.167969 C 3.132812 1.101562 3.265625 1.039062 3.398438 0.980469 C 3.535156 0.925781 3.671875 0.878906 3.8125 0.835938 C 3.953125 0.792969 4.09375 0.757812 4.238281 0.726562 C 4.382812 0.699219 4.527344 0.679688 4.671875 0.664062 C 4.816406 0.648438 4.964844 0.640625 5.109375 0.640625 Z M 5.109375 0.640625 "/>
</clipPath>
<linearGradient id="linear0" gradientUnits="userSpaceOnUse" x1="286.5" y1="11.5" x2="286.5" y2="561.5" gradientTransform="matrix(0.0558464,0,0,0.0558464,0,0)">
<stop offset="0" style="stop-color:rgb(65.490196%,66.27451%,67.45098%);stop-opacity:1;"/>
<stop offset="0.004" style="stop-color:rgb(65.882353%,66.666667%,67.843137%);stop-opacity:1;"/>
<stop offset="0.008" style="stop-color:rgb(66.27451%,67.058824%,68.235294%);stop-opacity:1;"/>
<stop offset="0.012" style="stop-color:rgb(66.27451%,67.058824%,68.235294%);stop-opacity:1;"/>
<stop offset="0.016" style="stop-color:rgb(66.666667%,67.45098%,68.627451%);stop-opacity:1;"/>
<stop offset="0.02" style="stop-color:rgb(67.058824%,67.843137%,69.019608%);stop-opacity:1;"/>
<stop offset="0.023" style="stop-color:rgb(67.45098%,68.235294%,69.411765%);stop-opacity:1;"/>
<stop offset="0.027" style="stop-color:rgb(67.45098%,68.235294%,69.411765%);stop-opacity:1;"/>
<stop offset="0.031" style="stop-color:rgb(67.843137%,68.627451%,69.803922%);stop-opacity:1;"/>
<stop offset="0.035" style="stop-color:rgb(68.235294%,69.019608%,70.196078%);stop-opacity:1;"/>
<stop offset="0.039" style="stop-color:rgb(68.627451%,69.411765%,70.588235%);stop-opacity:1;"/>
<stop offset="0.043" style="stop-color:rgb(68.627451%,69.411765%,70.588235%);stop-opacity:1;"/>
<stop offset="0.047" style="stop-color:rgb(69.019608%,69.803922%,70.980392%);stop-opacity:1;"/>
<stop offset="0.051" style="stop-color:rgb(69.411765%,70.196078%,71.372549%);stop-opacity:1;"/>
<stop offset="0.055" style="stop-color:rgb(69.803922%,70.196078%,71.372549%);stop-opacity:1;"/>
<stop offset="0.059" style="stop-color:rgb(69.803922%,70.588235%,71.764706%);stop-opacity:1;"/>
<stop offset="0.063" style="stop-color:rgb(70.196078%,70.980392%,72.156863%);stop-opacity:1;"/>
<stop offset="0.066" style="stop-color:rgb(70.588235%,71.372549%,72.156863%);stop-opacity:1;"/>
<stop offset="0.07" style="stop-color:rgb(70.588235%,71.372549%,72.54902%);stop-opacity:1;"/>
<stop offset="0.074" style="stop-color:rgb(70.980392%,71.764706%,72.941176%);stop-opacity:1;"/>
<stop offset="0.078" style="stop-color:rgb(71.372549%,72.156863%,72.941176%);stop-opacity:1;"/>
<stop offset="0.082" style="stop-color:rgb(71.764706%,72.156863%,73.333333%);stop-opacity:1;"/>
<stop offset="0.086" style="stop-color:rgb(71.764706%,72.54902%,73.72549%);stop-opacity:1;"/>
<stop offset="0.09" style="stop-color:rgb(72.156863%,72.941176%,73.72549%);stop-opacity:1;"/>
<stop offset="0.094" style="stop-color:rgb(72.54902%,73.333333%,74.117647%);stop-opacity:1;"/>
<stop offset="0.098" style="stop-color:rgb(72.941176%,73.333333%,74.509804%);stop-opacity:1;"/>
<stop offset="0.102" style="stop-color:rgb(72.941176%,73.72549%,74.901961%);stop-opacity:1;"/>
<stop offset="0.105" style="stop-color:rgb(73.333333%,74.117647%,74.901961%);stop-opacity:1;"/>
<stop offset="0.109" style="stop-color:rgb(73.72549%,74.117647%,75.294118%);stop-opacity:1;"/>
<stop offset="0.113" style="stop-color:rgb(74.117647%,74.509804%,75.686275%);stop-opacity:1;"/>
<stop offset="0.117" style="stop-color:rgb(74.117647%,74.901961%,75.686275%);stop-opacity:1;"/>
<stop offset="0.121" style="stop-color:rgb(74.509804%,74.901961%,76.078431%);stop-opacity:1;"/>
<stop offset="0.125" style="stop-color:rgb(74.901961%,75.294118%,76.470588%);stop-opacity:1;"/>
<stop offset="0.129" style="stop-color:rgb(74.901961%,75.686275%,76.470588%);stop-opacity:1;"/>
<stop offset="0.133" style="stop-color:rgb(75.294118%,76.078431%,76.862745%);stop-opacity:1;"/>
<stop offset="0.137" style="stop-color:rgb(75.686275%,76.078431%,77.254902%);stop-opacity:1;"/>
<stop offset="0.141" style="stop-color:rgb(76.078431%,76.470588%,77.254902%);stop-opacity:1;"/>
<stop offset="0.145" style="stop-color:rgb(76.078431%,76.862745%,77.647059%);stop-opacity:1;"/>
<stop offset="0.148" style="stop-color:rgb(76.470588%,76.862745%,78.039216%);stop-opacity:1;"/>
<stop offset="0.152" style="stop-color:rgb(76.862745%,77.254902%,78.039216%);stop-opacity:1;"/>
<stop offset="0.156" style="stop-color:rgb(77.254902%,77.647059%,78.431373%);stop-opacity:1;"/>
<stop offset="0.16" style="stop-color:rgb(77.254902%,78.039216%,78.823529%);stop-opacity:1;"/>
<stop offset="0.164" style="stop-color:rgb(77.647059%,78.039216%,78.823529%);stop-opacity:1;"/>
<stop offset="0.168" style="stop-color:rgb(78.039216%,78.431373%,79.215686%);stop-opacity:1;"/>
<stop offset="0.172" style="stop-color:rgb(78.431373%,78.823529%,79.607843%);stop-opacity:1;"/>
<stop offset="0.176" style="stop-color:rgb(78.431373%,78.823529%,80%);stop-opacity:1;"/>
<stop offset="0.18" style="stop-color:rgb(78.823529%,79.215686%,80%);stop-opacity:1;"/>
<stop offset="0.184" style="stop-color:rgb(79.215686%,79.607843%,80.392157%);stop-opacity:1;"/>
<stop offset="0.188" style="stop-color:rgb(79.607843%,80%,80.784314%);stop-opacity:1;"/>
<stop offset="0.191" style="stop-color:rgb(79.607843%,80%,80.784314%);stop-opacity:1;"/>
<stop offset="0.195" style="stop-color:rgb(80%,80.392157%,81.176471%);stop-opacity:1;"/>
<stop offset="0.199" style="stop-color:rgb(80%,80.392157%,81.176471%);stop-opacity:1;"/>
<stop offset="0.203" style="stop-color:rgb(80.392157%,80.784314%,81.568627%);stop-opacity:1;"/>
<stop offset="0.207" style="stop-color:rgb(80.392157%,80.784314%,81.568627%);stop-opacity:1;"/>
<stop offset="0.211" style="stop-color:rgb(80.784314%,81.176471%,81.960784%);stop-opacity:1;"/>
<stop offset="0.215" style="stop-color:rgb(80.784314%,81.176471%,81.960784%);stop-opacity:1;"/>
<stop offset="0.219" style="stop-color:rgb(81.176471%,81.568627%,82.352941%);stop-opacity:1;"/>
<stop offset="0.223" style="stop-color:rgb(81.176471%,81.568627%,82.352941%);stop-opacity:1;"/>
<stop offset="0.227" style="stop-color:rgb(81.568627%,81.960784%,82.745098%);stop-opacity:1;"/>
<stop offset="0.23" style="stop-color:rgb(81.568627%,81.960784%,82.745098%);stop-opacity:1;"/>
<stop offset="0.234" style="stop-color:rgb(81.960784%,82.352941%,83.137255%);stop-opacity:1;"/>
<stop offset="0.238" style="stop-color:rgb(81.960784%,82.745098%,83.137255%);stop-opacity:1;"/>
<stop offset="0.242" style="stop-color:rgb(82.352941%,82.745098%,83.529412%);stop-opacity:1;"/>
<stop offset="0.246" style="stop-color:rgb(82.745098%,83.137255%,83.529412%);stop-opacity:1;"/>
<stop offset="0.25" style="stop-color:rgb(82.745098%,83.137255%,83.921569%);stop-opacity:1;"/>
<stop offset="0.254" style="stop-color:rgb(83.137255%,83.529412%,83.921569%);stop-opacity:1;"/>
<stop offset="0.258" style="stop-color:rgb(83.137255%,83.529412%,84.313725%);stop-opacity:1;"/>
<stop offset="0.262" style="stop-color:rgb(83.529412%,83.921569%,84.313725%);stop-opacity:1;"/>
<stop offset="0.266" style="stop-color:rgb(83.529412%,83.921569%,84.705882%);stop-opacity:1;"/>
<stop offset="0.27" style="stop-color:rgb(83.921569%,84.313725%,84.705882%);stop-opacity:1;"/>
<stop offset="0.273" style="stop-color:rgb(83.921569%,84.313725%,85.098039%);stop-opacity:1;"/>
<stop offset="0.277" style="stop-color:rgb(84.313725%,84.705882%,85.098039%);stop-opacity:1;"/>
<stop offset="0.281" style="stop-color:rgb(84.313725%,84.705882%,85.490196%);stop-opacity:1;"/>
<stop offset="0.285" style="stop-color:rgb(84.705882%,85.098039%,85.490196%);stop-opacity:1;"/>
<stop offset="0.289" style="stop-color:rgb(84.705882%,85.098039%,85.882353%);stop-opacity:1;"/>
<stop offset="0.293" style="stop-color:rgb(85.098039%,85.490196%,85.882353%);stop-opacity:1;"/>
<stop offset="0.297" style="stop-color:rgb(85.098039%,85.490196%,86.27451%);stop-opacity:1;"/>
<stop offset="0.301" style="stop-color:rgb(85.490196%,85.882353%,86.27451%);stop-opacity:1;"/>
<stop offset="0.305" style="stop-color:rgb(85.490196%,85.882353%,86.666667%);stop-opacity:1;"/>
<stop offset="0.309" style="stop-color:rgb(85.882353%,86.27451%,86.666667%);stop-opacity:1;"/>
<stop offset="0.313" style="stop-color:rgb(86.27451%,86.666667%,87.058824%);stop-opacity:1;"/>
<stop offset="0.316" style="stop-color:rgb(86.27451%,86.666667%,87.058824%);stop-opacity:1;"/>
<stop offset="0.32" style="stop-color:rgb(86.666667%,87.058824%,87.45098%);stop-opacity:1;"/>
<stop offset="0.324" style="stop-color:rgb(86.666667%,87.058824%,87.45098%);stop-opacity:1;"/>
<stop offset="0.328" style="stop-color:rgb(87.058824%,87.45098%,87.843137%);stop-opacity:1;"/>
<stop offset="0.332" style="stop-color:rgb(87.058824%,87.45098%,87.843137%);stop-opacity:1;"/>
<stop offset="0.336" style="stop-color:rgb(87.45098%,87.843137%,88.235294%);stop-opacity:1;"/>
<stop offset="0.34" style="stop-color:rgb(87.45098%,87.843137%,88.235294%);stop-opacity:1;"/>
<stop offset="0.344" style="stop-color:rgb(87.843137%,88.235294%,88.627451%);stop-opacity:1;"/>
<stop offset="0.348" style="stop-color:rgb(87.843137%,88.235294%,88.627451%);stop-opacity:1;"/>
<stop offset="0.352" style="stop-color:rgb(88.235294%,88.627451%,89.019608%);stop-opacity:1;"/>
<stop offset="0.355" style="stop-color:rgb(88.235294%,88.627451%,89.019608%);stop-opacity:1;"/>
<stop offset="0.359" style="stop-color:rgb(88.627451%,89.019608%,89.411765%);stop-opacity:1;"/>
<stop offset="0.367" style="stop-color:rgb(88.627451%,89.019608%,89.411765%);stop-opacity:1;"/>
<stop offset="0.375" style="stop-color:rgb(89.019608%,89.411765%,89.803922%);stop-opacity:1;"/>
<stop offset="0.383" style="stop-color:rgb(89.411765%,89.803922%,90.196078%);stop-opacity:1;"/>
<stop offset="0.391" style="stop-color:rgb(89.411765%,89.803922%,90.196078%);stop-opacity:1;"/>
<stop offset="0.398" style="stop-color:rgb(89.803922%,90.196078%,90.588235%);stop-opacity:1;"/>
<stop offset="0.406" style="stop-color:rgb(90.196078%,90.588235%,90.980392%);stop-opacity:1;"/>
<stop offset="0.414" style="stop-color:rgb(90.196078%,90.588235%,90.980392%);stop-opacity:1;"/>
<stop offset="0.422" style="stop-color:rgb(90.588235%,90.980392%,91.372549%);stop-opacity:1;"/>
<stop offset="0.43" style="stop-color:rgb(90.980392%,91.372549%,91.372549%);stop-opacity:1;"/>
<stop offset="0.438" style="stop-color:rgb(90.980392%,91.764706%,91.764706%);stop-opacity:1;"/>
<stop offset="0.445" style="stop-color:rgb(91.372549%,91.764706%,92.156863%);stop-opacity:1;"/>
<stop offset="0.453" style="stop-color:rgb(91.764706%,92.156863%,92.156863%);stop-opacity:1;"/>
<stop offset="0.461" style="stop-color:rgb(92.156863%,92.54902%,92.54902%);stop-opacity:1;"/>
<stop offset="0.469" style="stop-color:rgb(92.156863%,92.54902%,92.941176%);stop-opacity:1;"/>
<stop offset="0.477" style="stop-color:rgb(92.54902%,92.941176%,92.941176%);stop-opacity:1;"/>
<stop offset="0.484" style="stop-color:rgb(92.941176%,93.333333%,93.333333%);stop-opacity:1;"/>
<stop offset="0.492" style="stop-color:rgb(92.941176%,93.333333%,93.72549%);stop-opacity:1;"/>
<stop offset="0.5" style="stop-color:rgb(93.333333%,93.72549%,93.72549%);stop-opacity:1;"/>
<stop offset="0.508" style="stop-color:rgb(93.72549%,94.117647%,94.117647%);stop-opacity:1;"/>
<stop offset="0.516" style="stop-color:rgb(93.72549%,94.117647%,94.509804%);stop-opacity:1;"/>
<stop offset="0.523" style="stop-color:rgb(94.117647%,94.509804%,94.509804%);stop-opacity:1;"/>
<stop offset="0.531" style="stop-color:rgb(94.509804%,94.901961%,94.901961%);stop-opacity:1;"/>
<stop offset="0.539" style="stop-color:rgb(94.901961%,95.294118%,95.294118%);stop-opacity:1;"/>
<stop offset="0.547" style="stop-color:rgb(94.901961%,95.294118%,95.294118%);stop-opacity:1;"/>
<stop offset="0.563" style="stop-color:rgb(95.294118%,95.686275%,95.686275%);stop-opacity:1;"/>
<stop offset="0.578" style="stop-color:rgb(95.294118%,95.686275%,95.686275%);stop-opacity:1;"/>
<stop offset="0.594" style="stop-color:rgb(95.686275%,96.078431%,96.078431%);stop-opacity:1;"/>
<stop offset="0.609" style="stop-color:rgb(96.078431%,96.470588%,96.470588%);stop-opacity:1;"/>
<stop offset="0.625" style="stop-color:rgb(96.470588%,96.470588%,96.470588%);stop-opacity:1;"/>
<stop offset="0.641" style="stop-color:rgb(96.862745%,96.862745%,96.862745%);stop-opacity:1;"/>
<stop offset="0.656" style="stop-color:rgb(96.862745%,97.254902%,97.254902%);stop-opacity:1;"/>
<stop offset="0.672" style="stop-color:rgb(97.254902%,97.647059%,97.647059%);stop-opacity:1;"/>
<stop offset="0.688" style="stop-color:rgb(97.647059%,97.647059%,97.647059%);stop-opacity:1;"/>
<stop offset="0.703" style="stop-color:rgb(98.039216%,98.039216%,98.039216%);stop-opacity:1;"/>
<stop offset="0.719" style="stop-color:rgb(98.039216%,98.431373%,98.431373%);stop-opacity:1;"/>
<stop offset="0.734" style="stop-color:rgb(98.431373%,98.431373%,98.431373%);stop-opacity:1;"/>
<stop offset="0.75" style="stop-color:rgb(98.823529%,98.823529%,98.823529%);stop-opacity:1;"/>
<stop offset="0.813" style="stop-color:rgb(98.823529%,98.823529%,98.823529%);stop-opacity:1;"/>
<stop offset="0.875" style="stop-color:rgb(99.215686%,99.215686%,99.215686%);stop-opacity:1;"/>
<stop offset="0.938" style="stop-color:rgb(99.607843%,99.607843%,99.607843%);stop-opacity:1;"/>
<stop offset="1" style="stop-color:rgb(100%,100%,100%);stop-opacity:1;"/>
</linearGradient>
<clipPath id="clip3">
  <path d="M 2.558594 2.558594 L 29.441406 2.558594 L 29.441406 29.441406 L 2.558594 29.441406 Z M 2.558594 2.558594 "/>
</clipPath>
<clipPath id="clip4">
  <path d="M 5.390625 2.597656 L 26.609375 2.597656 C 26.703125 2.597656 26.792969 2.601562 26.882812 2.609375 C 26.976562 2.621094 27.066406 2.632812 27.15625 2.652344 C 27.246094 2.667969 27.335938 2.691406 27.421875 2.71875 C 27.507812 2.742188 27.59375 2.773438 27.679688 2.808594 C 27.765625 2.84375 27.847656 2.882812 27.925781 2.925781 C 28.007812 2.96875 28.085938 3.015625 28.160156 3.066406 C 28.238281 3.117188 28.3125 3.171875 28.382812 3.230469 C 28.453125 3.289062 28.519531 3.351562 28.585938 3.414062 C 28.648438 3.480469 28.710938 3.546875 28.769531 3.617188 C 28.828125 3.6875 28.882812 3.761719 28.933594 3.839844 C 28.984375 3.914062 29.03125 3.992188 29.074219 4.074219 C 29.117188 4.152344 29.15625 4.234375 29.191406 4.320312 C 29.226562 4.40625 29.257812 4.492188 29.28125 4.578125 C 29.308594 4.664062 29.332031 4.753906 29.347656 4.84375 C 29.367188 4.933594 29.378906 5.023438 29.390625 5.117188 C 29.398438 5.207031 29.402344 5.296875 29.402344 5.390625 L 29.402344 26.609375 C 29.402344 26.703125 29.398438 26.792969 29.390625 26.882812 C 29.378906 26.976562 29.367188 27.066406 29.347656 27.15625 C 29.332031 27.246094 29.308594 27.335938 29.28125 27.421875 C 29.257812 27.507812 29.226562 27.59375 29.191406 27.679688 C 29.15625 27.765625 29.117188 27.847656 29.074219 27.925781 C 29.03125 28.007812 28.984375 28.085938 28.933594 28.160156 C 28.882812 28.238281 28.828125 28.3125 28.769531 28.382812 C 28.710938 28.453125 28.648438 28.519531 28.585938 28.585938 C 28.519531 28.648438 28.453125 28.710938 28.382812 28.769531 C 28.3125 28.828125 28.238281 28.882812 28.160156 28.933594 C 28.085938 28.984375 28.007812 29.03125 27.925781 29.074219 C 27.847656 29.117188 27.765625 29.15625 27.679688 29.191406 C 27.59375 29.226562 27.507812 29.257812 27.421875 29.28125 C 27.335938 29.308594 27.246094 29.332031 27.15625 29.347656 C 27.066406 29.367188 26.976562 29.378906 26.882812 29.390625 C 26.792969 29.398438 26.703125 29.402344 26.609375 29.402344 L 5.390625 29.402344 C 5.296875 29.402344 5.207031 29.398438 5.117188 29.390625 C 5.023438 29.378906 4.933594 29.367188 4.84375 29.347656 C 4.753906 29.332031 4.664062 29.308594 4.578125 29.28125 C 4.492188 29.257812 4.40625 29.226562 4.320312 29.191406 C 4.234375 29.15625 4.152344 29.117188 4.074219 29.074219 C 3.992188 29.03125 3.914062 28.984375 3.839844 28.933594 C 3.761719 28.882812 3.6875 28.828125 3.617188 28.769531 C 3.546875 28.710938 3.480469 28.648438 3.414062 28.585938 C 3.351562 28.519531 3.289062 28.453125 3.230469 28.382812 C 3.171875 28.3125 3.117188 28.238281 3.066406 28.160156 C 3.015625 28.085938 2.96875 28.007812 2.925781 27.925781 C 2.882812 27.847656 2.84375 27.765625 2.808594 27.679688 C 2.773438 27.59375 2.742188 27.507812 2.71875 27.421875 C 2.691406 27.335938 2.667969 27.246094 2.652344 27.15625 C 2.632812 27.066406 2.621094 26.976562 2.609375 26.882812 C 2.601562 26.792969 2.597656 26.703125 2.597656 26.609375 L 2.597656 5.390625 C 2.597656 5.296875 2.601562 5.207031 2.609375 5.117188 C 2.621094 5.023438 2.632812 4.933594 2.652344 4.84375 C 2.667969 4.753906 2.691406 4.664062 2.71875 4.578125 C 2.742188 4.492188 2.773438 4.40625 2.808594 4.320312 C 2.84375 4.234375 2.882812 4.152344 2.925781 4.074219 C 2.96875 3.992188 3.015625 3.914062 3.066406 3.839844 C 3.117188 3.761719 3.171875 3.6875 3.230469 3.617188 C 3.289062 3.546875 3.351562 3.480469 3.414062 3.414062 C 3.480469 3.351562 3.546875 3.289062 3.617188 3.230469 C 3.6875 3.171875 3.761719 3.117188 3.839844 3.066406 C 3.914062 3.015625 3.992188 2.96875 4.074219 2.925781 C 4.152344 2.882812 4.234375 2.84375 4.320312 2.808594 C 4.40625 2.773438 4.492188 2.742188 4.578125 2.71875 C 4.664062 2.691406 4.753906 2.667969 4.84375 2.652344 C 4.933594 2.632812 5.023438 2.621094 5.117188 2.609375 C 5.207031 2.601562 5.296875 2.597656 5.390625 2.597656 Z M 5.390625 2.597656 "/>
</clipPath>
<linearGradient id="linear1" gradientUnits="userSpaceOnUse" x1="286.5" y1="46.5" x2="286.5" y2="526.5" gradientTransform="matrix(0.0558464,0,0,0.0558464,0,0)">
<stop offset="0" style="stop-color:rgb(100%,100%,100%);stop-opacity:1;"/>
<stop offset="0.063" style="stop-color:rgb(100%,100%,100%);stop-opacity:1;"/>
<stop offset="0.125" style="stop-color:rgb(99.607843%,99.607843%,99.607843%);stop-opacity:1;"/>
<stop offset="0.188" style="stop-color:rgb(99.215686%,99.215686%,99.215686%);stop-opacity:1;"/>
<stop offset="0.25" style="stop-color:rgb(99.215686%,99.215686%,99.215686%);stop-opacity:1;"/>
<stop offset="0.313" style="stop-color:rgb(98.823529%,98.823529%,98.823529%);stop-opacity:1;"/>
<stop offset="0.328" style="stop-color:rgb(98.431373%,98.431373%,98.431373%);stop-opacity:1;"/>
<stop offset="0.344" style="stop-color:rgb(98.431373%,98.431373%,98.431373%);stop-opacity:1;"/>
<stop offset="0.359" style="stop-color:rgb(98.039216%,98.039216%,98.039216%);stop-opacity:1;"/>
<stop offset="0.375" style="stop-color:rgb(98.039216%,98.039216%,98.039216%);stop-opacity:1;"/>
<stop offset="0.391" style="stop-color:rgb(97.647059%,97.647059%,97.647059%);stop-opacity:1;"/>
<stop offset="0.406" style="stop-color:rgb(97.254902%,97.254902%,97.254902%);stop-opacity:1;"/>
<stop offset="0.422" style="stop-color:rgb(97.254902%,97.254902%,97.254902%);stop-opacity:1;"/>
<stop offset="0.438" style="stop-color:rgb(96.862745%,96.862745%,96.862745%);stop-opacity:1;"/>
<stop offset="0.453" style="stop-color:rgb(96.470588%,96.470588%,96.470588%);stop-opacity:1;"/>
<stop offset="0.469" style="stop-color:rgb(96.470588%,96.470588%,96.470588%);stop-opacity:1;"/>
<stop offset="0.484" style="stop-color:rgb(96.078431%,96.078431%,96.078431%);stop-opacity:1;"/>
<stop offset="0.5" style="stop-color:rgb(95.686275%,95.686275%,95.686275%);stop-opacity:1;"/>
<stop offset="0.516" style="stop-color:rgb(95.686275%,95.686275%,95.686275%);stop-opacity:1;"/>
<stop offset="0.523" style="stop-color:rgb(95.294118%,95.294118%,95.294118%);stop-opacity:1;"/>
<stop offset="0.531" style="stop-color:rgb(94.901961%,94.901961%,94.901961%);stop-opacity:1;"/>
<stop offset="0.539" style="stop-color:rgb(94.901961%,94.901961%,94.901961%);stop-opacity:1;"/>
<stop offset="0.547" style="stop-color:rgb(94.509804%,94.509804%,94.509804%);stop-opacity:1;"/>
<stop offset="0.555" style="stop-color:rgb(94.117647%,94.117647%,94.117647%);stop-opacity:1;"/>
<stop offset="0.563" style="stop-color:rgb(94.117647%,94.117647%,94.117647%);stop-opacity:1;"/>
<stop offset="0.57" style="stop-color:rgb(93.72549%,93.72549%,93.72549%);stop-opacity:1;"/>
<stop offset="0.578" style="stop-color:rgb(93.333333%,93.333333%,93.333333%);stop-opacity:1;"/>
<stop offset="0.586" style="stop-color:rgb(93.333333%,93.333333%,93.333333%);stop-opacity:1;"/>
<stop offset="0.594" style="stop-color:rgb(92.941176%,92.941176%,92.941176%);stop-opacity:1;"/>
<stop offset="0.602" style="stop-color:rgb(92.54902%,92.54902%,92.54902%);stop-opacity:1;"/>
<stop offset="0.609" style="stop-color:rgb(92.156863%,92.156863%,92.156863%);stop-opacity:1;"/>
<stop offset="0.617" style="stop-color:rgb(92.156863%,92.156863%,92.156863%);stop-opacity:1;"/>
<stop offset="0.625" style="stop-color:rgb(91.764706%,91.764706%,91.764706%);stop-opacity:1;"/>
<stop offset="0.633" style="stop-color:rgb(91.372549%,91.372549%,91.372549%);stop-opacity:1;"/>
<stop offset="0.641" style="stop-color:rgb(91.372549%,91.372549%,91.372549%);stop-opacity:1;"/>
<stop offset="0.648" style="stop-color:rgb(90.980392%,90.980392%,90.980392%);stop-opacity:1;"/>
<stop offset="0.656" style="stop-color:rgb(90.588235%,90.588235%,90.588235%);stop-opacity:1;"/>
<stop offset="0.664" style="stop-color:rgb(90.588235%,90.588235%,90.588235%);stop-opacity:1;"/>
<stop offset="0.672" style="stop-color:rgb(90.196078%,90.196078%,90.196078%);stop-opacity:1;"/>
<stop offset="0.68" style="stop-color:rgb(89.803922%,89.803922%,89.803922%);stop-opacity:1;"/>
<stop offset="0.688" style="stop-color:rgb(89.803922%,89.803922%,89.803922%);stop-opacity:1;"/>
<stop offset="0.695" style="stop-color:rgb(89.411765%,89.411765%,89.411765%);stop-opacity:1;"/>
<stop offset="0.699" style="stop-color:rgb(89.019608%,89.019608%,89.019608%);stop-opacity:1;"/>
<stop offset="0.703" style="stop-color:rgb(88.627451%,88.627451%,88.627451%);stop-opacity:1;"/>
<stop offset="0.707" style="stop-color:rgb(88.627451%,88.627451%,88.627451%);stop-opacity:1;"/>
<stop offset="0.711" style="stop-color:rgb(88.235294%,88.235294%,88.235294%);stop-opacity:1;"/>
<stop offset="0.715" style="stop-color:rgb(88.235294%,88.235294%,88.235294%);stop-opacity:1;"/>
<stop offset="0.719" style="stop-color:rgb(87.843137%,87.843137%,87.843137%);stop-opacity:1;"/>
<stop offset="0.723" style="stop-color:rgb(87.843137%,87.843137%,87.843137%);stop-opacity:1;"/>
<stop offset="0.727" style="stop-color:rgb(87.45098%,87.45098%,87.45098%);stop-opacity:1;"/>
<stop offset="0.73" style="stop-color:rgb(87.45098%,87.45098%,87.45098%);stop-opacity:1;"/>
<stop offset="0.734" style="stop-color:rgb(87.058824%,87.058824%,87.058824%);stop-opacity:1;"/>
<stop offset="0.738" style="stop-color:rgb(87.058824%,87.058824%,87.058824%);stop-opacity:1;"/>
<stop offset="0.742" style="stop-color:rgb(86.666667%,86.666667%,86.666667%);stop-opacity:1;"/>
<stop offset="0.746" style="stop-color:rgb(86.666667%,86.666667%,86.666667%);stop-opacity:1;"/>
<stop offset="0.75" style="stop-color:rgb(86.27451%,86.27451%,86.27451%);stop-opacity:1;"/>
<stop offset="0.754" style="stop-color:rgb(86.27451%,86.27451%,86.27451%);stop-opacity:1;"/>
<stop offset="0.758" style="stop-color:rgb(85.882353%,85.882353%,85.882353%);stop-opacity:1;"/>
<stop offset="0.762" style="stop-color:rgb(85.882353%,85.882353%,85.882353%);stop-opacity:1;"/>
<stop offset="0.766" style="stop-color:rgb(85.490196%,85.490196%,85.490196%);stop-opacity:1;"/>
<stop offset="0.77" style="stop-color:rgb(85.490196%,85.490196%,85.490196%);stop-opacity:1;"/>
<stop offset="0.773" style="stop-color:rgb(85.098039%,85.098039%,85.098039%);stop-opacity:1;"/>
<stop offset="0.777" style="stop-color:rgb(85.098039%,85.098039%,85.098039%);stop-opacity:1;"/>
<stop offset="0.781" style="stop-color:rgb(84.705882%,84.705882%,84.705882%);stop-opacity:1;"/>
<stop offset="0.785" style="stop-color:rgb(84.705882%,84.705882%,84.705882%);stop-opacity:1;"/>
<stop offset="0.789" style="stop-color:rgb(84.313725%,84.313725%,84.313725%);stop-opacity:1;"/>
<stop offset="0.793" style="stop-color:rgb(84.313725%,84.313725%,84.313725%);stop-opacity:1;"/>
<stop offset="0.797" style="stop-color:rgb(83.921569%,83.921569%,83.921569%);stop-opacity:1;"/>
<stop offset="0.801" style="stop-color:rgb(83.529412%,83.529412%,83.529412%);stop-opacity:1;"/>
<stop offset="0.805" style="stop-color:rgb(83.529412%,83.529412%,83.529412%);stop-opacity:1;"/>
<stop offset="0.809" style="stop-color:rgb(83.137255%,83.137255%,83.137255%);stop-opacity:1;"/>
<stop offset="0.813" style="stop-color:rgb(83.137255%,83.137255%,83.137255%);stop-opacity:1;"/>
<stop offset="0.816" style="stop-color:rgb(82.745098%,82.745098%,82.745098%);stop-opacity:1;"/>
<stop offset="0.82" style="stop-color:rgb(82.745098%,82.745098%,82.745098%);stop-opacity:1;"/>
<stop offset="0.824" style="stop-color:rgb(82.352941%,82.352941%,82.352941%);stop-opacity:1;"/>
<stop offset="0.828" style="stop-color:rgb(82.352941%,82.352941%,82.352941%);stop-opacity:1;"/>
<stop offset="0.832" style="stop-color:rgb(81.960784%,81.960784%,81.960784%);stop-opacity:1;"/>
<stop offset="0.836" style="stop-color:rgb(81.960784%,81.960784%,81.960784%);stop-opacity:1;"/>
<stop offset="0.84" style="stop-color:rgb(81.568627%,81.568627%,81.568627%);stop-opacity:1;"/>
<stop offset="0.844" style="stop-color:rgb(81.568627%,81.568627%,81.568627%);stop-opacity:1;"/>
<stop offset="0.848" style="stop-color:rgb(81.176471%,81.176471%,81.176471%);stop-opacity:1;"/>
<stop offset="0.852" style="stop-color:rgb(81.176471%,81.176471%,81.176471%);stop-opacity:1;"/>
<stop offset="0.855" style="stop-color:rgb(80.784314%,80.784314%,80.784314%);stop-opacity:1;"/>
<stop offset="0.859" style="stop-color:rgb(80.392157%,80.392157%,80.392157%);stop-opacity:1;"/>
<stop offset="0.863" style="stop-color:rgb(80%,80%,80%);stop-opacity:1;"/>
<stop offset="0.867" style="stop-color:rgb(80%,80%,80%);stop-opacity:1;"/>
<stop offset="0.871" style="stop-color:rgb(79.607843%,79.607843%,79.607843%);stop-opacity:1;"/>
<stop offset="0.875" style="stop-color:rgb(79.215686%,79.215686%,79.215686%);stop-opacity:1;"/>
<stop offset="0.879" style="stop-color:rgb(78.823529%,78.823529%,78.823529%);stop-opacity:1;"/>
<stop offset="0.883" style="stop-color:rgb(78.823529%,78.823529%,78.823529%);stop-opacity:1;"/>
<stop offset="0.887" style="stop-color:rgb(78.431373%,78.431373%,78.431373%);stop-opacity:1;"/>
<stop offset="0.891" style="stop-color:rgb(78.039216%,78.039216%,78.039216%);stop-opacity:1;"/>
<stop offset="0.895" style="stop-color:rgb(77.647059%,77.647059%,77.647059%);stop-opacity:1;"/>
<stop offset="0.898" style="stop-color:rgb(77.647059%,77.647059%,77.647059%);stop-opacity:1;"/>
<stop offset="0.902" style="stop-color:rgb(77.254902%,77.254902%,77.254902%);stop-opacity:1;"/>
<stop offset="0.906" style="stop-color:rgb(76.862745%,76.862745%,76.862745%);stop-opacity:1;"/>
<stop offset="0.91" style="stop-color:rgb(76.470588%,76.470588%,76.470588%);stop-opacity:1;"/>
<stop offset="0.914" style="stop-color:rgb(76.470588%,76.470588%,76.470588%);stop-opacity:1;"/>
<stop offset="0.918" style="stop-color:rgb(76.078431%,76.078431%,76.078431%);stop-opacity:1;"/>
<stop offset="0.922" style="stop-color:rgb(75.686275%,75.686275%,75.686275%);stop-opacity:1;"/>
<stop offset="0.926" style="stop-color:rgb(75.294118%,75.294118%,75.294118%);stop-opacity:1;"/>
<stop offset="0.93" style="stop-color:rgb(75.294118%,75.294118%,75.294118%);stop-opacity:1;"/>
<stop offset="0.934" style="stop-color:rgb(74.901961%,74.901961%,74.901961%);stop-opacity:1;"/>
<stop offset="0.938" style="stop-color:rgb(74.509804%,74.509804%,74.509804%);stop-opacity:1;"/>
<stop offset="0.941" style="stop-color:rgb(74.117647%,74.117647%,74.117647%);stop-opacity:1;"/>
<stop offset="0.945" style="stop-color:rgb(74.117647%,74.117647%,74.117647%);stop-opacity:1;"/>
<stop offset="0.949" style="stop-color:rgb(73.72549%,73.72549%,73.72549%);stop-opacity:1;"/>
<stop offset="0.953" style="stop-color:rgb(73.333333%,73.333333%,73.333333%);stop-opacity:1;"/>
<stop offset="0.957" style="stop-color:rgb(72.941176%,72.941176%,72.941176%);stop-opacity:1;"/>
<stop offset="0.961" style="stop-color:rgb(72.941176%,72.941176%,72.941176%);stop-opacity:1;"/>
<stop offset="0.965" style="stop-color:rgb(72.54902%,72.54902%,72.54902%);stop-opacity:1;"/>
<stop offset="0.969" style="stop-color:rgb(72.156863%,72.156863%,72.156863%);stop-opacity:1;"/>
<stop offset="0.973" style="stop-color:rgb(71.764706%,71.764706%,71.764706%);stop-opacity:1;"/>
<stop offset="0.977" style="stop-color:rgb(71.764706%,71.764706%,71.764706%);stop-opacity:1;"/>
<stop offset="0.98" style="stop-color:rgb(71.372549%,71.372549%,71.372549%);stop-opacity:1;"/>
<stop offset="0.984" style="stop-color:rgb(70.980392%,70.980392%,70.980392%);stop-opacity:1;"/>
<stop offset="0.988" style="stop-color:rgb(70.588235%,70.588235%,70.588235%);stop-opacity:1;"/>
<stop offset="0.992" style="stop-color:rgb(70.588235%,70.588235%,70.588235%);stop-opacity:1;"/>
<stop offset="1" style="stop-color:rgb(70.196078%,70.196078%,70.196078%);stop-opacity:1;"/>
</linearGradient>
</defs>
<g id="surface1">
<g clip-path="url(#clip1)" clip-rule="nonzero">
<g clip-path="url(#clip2)" clip-rule="nonzero">
<path style=" stroke:none;fill-rule:nonzero;fill:url(#linear0);" d="M 0.640625 0.640625 L 0.640625 31.359375 L 31.359375 31.359375 L 31.359375 0.640625 Z M 0.640625 0.640625 "/>
</g>
</g>
<path style="fill:none;stroke-width:23;stroke-linecap:butt;stroke-linejoin:miter;stroke:rgb(50.196081%,50.196081%,50.196081%);stroke-opacity:1;stroke-miterlimit:10;" d="M 91.489783 11.471196 L 481.510447 11.471196 C 484.098461 11.471196 486.756421 11.611089 489.344435 11.890874 C 491.932448 12.170659 494.520462 12.520391 497.108476 13.010015 C 499.696489 13.569586 502.214557 14.199102 504.732624 14.968512 C 507.250692 15.737921 509.698813 16.577277 512.146934 17.556526 C 514.525109 18.60572 516.903283 19.724861 519.211512 20.913949 C 521.51974 22.172983 523.758023 23.501963 525.926358 24.970835 C 528.094694 26.439708 530.193084 27.978527 532.221527 29.657238 C 534.24997 31.33595 536.208467 33.084608 538.097018 34.903212 C 539.915622 36.791763 541.66428 38.75026 543.342991 40.778703 C 545.021703 42.7372 546.560522 44.905536 548.029395 47.073871 C 549.498267 49.242207 550.827247 51.480489 552.086281 53.788718 C 553.275368 56.096946 554.394509 58.475121 555.443704 60.853296 C 556.422953 63.301417 557.262308 65.749538 558.031718 68.267606 C 558.801127 70.785673 559.430644 73.30374 559.990215 75.891754 C 560.479839 78.479768 560.829571 81.067782 561.109356 83.655795 C 561.389141 86.243809 561.529034 88.901769 561.529034 91.489783 L 561.529034 481.510447 C 561.529034 484.098461 561.389141 486.756421 561.109356 489.344435 C 560.829571 491.932448 560.479839 494.520462 559.990215 497.108476 C 559.430644 499.696489 558.801127 502.214557 558.031718 504.732624 C 557.262308 507.250692 556.422953 509.698813 555.443704 512.146934 C 554.394509 514.525109 553.275368 516.903283 552.086281 519.211512 C 550.827247 521.51974 549.498267 523.758023 548.029395 525.926358 C 546.560522 528.094694 545.021703 530.193084 543.342991 532.221527 C 541.66428 534.24997 539.915622 536.208467 538.097018 538.097018 C 536.208467 539.915622 534.24997 541.66428 532.221527 543.342991 C 530.193084 545.021703 528.094694 546.560522 525.926358 548.029395 C 523.758023 549.498267 521.51974 550.827247 519.211512 552.086281 C 516.903283 553.275368 514.525109 554.394509 512.146934 555.443704 C 509.698813 556.422953 507.250692 557.262308 504.732624 558.031718 C 502.214557 558.801127 499.696489 559.430644 497.108476 559.990215 C 494.520462 560.479839 491.932448 560.829571 489.344435 561.109356 C 486.756421 561.389141 484.098461 561.529034 481.510447 561.529034 L 91.489783 561.529034 C 88.901769 561.529034 86.243809 561.389141 83.655795 561.109356 C 81.067782 560.829571 78.479768 560.479839 75.891754 559.990215 C 73.30374 559.430644 70.785673 558.801127 68.267606 558.031718 C 65.749538 557.262308 63.301417 556.422953 60.853296 555.443704 C 58.475121 554.394509 56.096946 553.275368 53.788718 552.086281 C 51.480489 550.827247 49.242207 549.498267 47.073871 548.029395 C 44.905536 546.560522 42.7372 545.021703 40.778703 543.342991 C 38.75026 541.66428 36.791763 539.915622 34.903212 538.097018 C 33.084608 536.208467 31.33595 534.24997 29.657238 532.221527 C 27.978527 530.193084 26.439708 528.094694 24.970835 525.926358 C 23.501963 523.758023 22.172983 521.51974 20.913949 519.211512 C 19.724861 516.903283 18.60572 514.525109 17.556526 512.146934 C 16.577277 509.698813 15.737921 507.250692 14.968512 504.732624 C 14.199102 502.214557 13.569586 499.696489 13.010015 497.108476 C 12.520391 494.520462 12.170659 491.932448 11.890874 489.344435 C 11.611089 486.756421 11.471196 484.098461 11.471196 481.510447 L 11.471196 91.489783 C 11.471196 88.901769 11.611089 86.243809 11.890874 83.655795 C 12.170659 81.067782 12.520391 78.479768 13.010015 75.891754 C 13.569586 73.30374 14.199102 70.785673 14.968512 68.267606 C 15.737921 65.749538 16.577277 63.301417 17.556526 60.853296 C 18.60572 58.475121 19.724861 56.096946 20.913949 53.788718 C 22.172983 51.480489 23.501963 49.242207 24.970835 47.073871 C 26.439708 44.905536 27.978527 42.7372 29.657238 40.778703 C 31.33595 38.75026 33.084608 36.791763 34.903212 34.903212 C 36.791763 33.084608 38.75026 31.33595 40.778703 29.657238 C 42.7372 27.978527 44.905536 26.439708 47.073871 24.970835 C 49.242207 23.501963 51.480489 22.172983 53.788718 20.913949 C 56.096946 19.724861 58.475121 18.60572 60.853296 17.556526 C 63.301417 16.577277 65.749538 15.737921 68.267606 14.968512 C 70.785673 14.199102 73.30374 13.569586 75.891754 13.010015 C 78.479768 12.520391 81.067782 12.170659 83.655795 11.890874 C 86.243809 11.611089 88.901769 11.471196 91.489783 11.471196 Z M 91.489783 11.471196 " transform="matrix(0.0558464,0,0,0.0558464,0,0)"/>
<g clip-path="url(#clip3)" clip-rule="nonzero">
<g clip-path="url(#clip4)" clip-rule="nonzero">
<path style=" stroke:none;fill-rule:nonzero;fill:url(#linear1);" d="M 2.597656 2.597656 L 2.597656 29.402344 L 29.402344 29.402344 L 29.402344 2.597656 Z M 2.597656 2.597656 "/>
</g>
</g>
<path style=" stroke:none;fill-rule:nonzero;fill:rgb(0%,0%,0%);fill-opacity:1;" d="M 16 9.4375 C 16.125 9.4375 16.25 9.441406 16.375 9.449219 C 16.5 9.457031 16.625 9.464844 16.75 9.480469 C 16.875 9.496094 17 9.511719 17.121094 9.535156 C 17.246094 9.554688 17.367188 9.582031 17.488281 9.609375 C 17.613281 9.636719 17.734375 9.671875 17.851562 9.707031 C 17.972656 9.742188 18.09375 9.78125 18.210938 9.820312 C 18.328125 9.863281 18.445312 9.910156 18.558594 9.957031 C 18.675781 10.007812 18.789062 10.058594 18.902344 10.113281 C 19.015625 10.171875 19.125 10.230469 19.234375 10.289062 C 19.34375 10.351562 19.449219 10.417969 19.554688 10.484375 C 19.660156 10.554688 19.761719 10.625 19.863281 10.699219 C 19.964844 10.773438 20.066406 10.847656 20.160156 10.929688 C 20.257812 11.007812 20.351562 11.089844 20.445312 11.175781 C 20.539062 11.257812 20.628906 11.347656 20.714844 11.4375 C 20.800781 11.527344 20.886719 11.621094 20.96875 11.714844 C 21.050781 11.808594 21.128906 11.90625 21.203125 12.003906 C 21.28125 12.105469 21.355469 12.207031 21.425781 12.308594 C 21.496094 12.414062 21.5625 12.519531 21.625 12.625 C 21.691406 12.734375 21.753906 12.84375 21.8125 12.953125 C 21.867188 13.066406 21.921875 13.175781 21.976562 13.292969 C 22.027344 13.40625 22.074219 13.523438 22.121094 13.636719 C 22.164062 13.753906 22.207031 13.875 22.246094 13.992188 C 22.285156 14.113281 22.320312 14.230469 22.351562 14.351562 C 22.382812 14.476562 22.410156 14.597656 22.433594 14.71875 C 22.457031 14.84375 22.480469 14.964844 22.496094 15.089844 C 22.515625 15.214844 22.527344 15.339844 22.539062 15.464844 C 22.546875 15.589844 22.554688 15.714844 22.558594 15.839844 C 22.5625 15.964844 22.558594 16.089844 22.554688 16.214844 C 22.550781 16.339844 22.542969 16.464844 22.535156 16.589844 C 22.523438 16.714844 22.507812 16.839844 22.488281 16.960938 C 22.46875 17.085938 22.449219 17.210938 22.421875 17.332031 C 22.398438 17.453125 22.367188 17.578125 22.335938 17.699219 C 22.304688 17.820312 22.269531 17.9375 22.226562 18.058594 C 22.1875 18.175781 22.144531 18.292969 22.101562 18.410156 C 22.054688 18.527344 22.003906 18.640625 21.953125 18.757812 C 21.898438 18.871094 21.84375 18.980469 21.785156 19.09375 C 21.726562 19.203125 21.664062 19.3125 21.597656 19.417969 C 21.53125 19.523438 21.464844 19.628906 21.394531 19.734375 C 21.320312 19.835938 21.246094 19.9375 21.171875 20.035156 C 21.09375 20.132812 21.015625 20.230469 20.929688 20.324219 C 20.847656 20.417969 20.761719 20.511719 20.675781 20.601562 C 20.585938 20.691406 20.496094 20.777344 20.40625 20.859375 C 20.3125 20.945312 20.214844 21.027344 20.117188 21.105469 C 20.023438 21.183594 19.921875 21.257812 19.820312 21.332031 C 19.71875 21.40625 19.613281 21.476562 19.507812 21.542969 C 19.402344 21.609375 19.296875 21.671875 19.1875 21.734375 C 19.074219 21.792969 18.964844 21.851562 18.851562 21.90625 C 18.738281 21.960938 18.625 22.011719 18.507812 22.058594 C 18.394531 22.109375 18.277344 22.152344 18.160156 22.195312 C 18.039062 22.234375 17.921875 22.273438 17.800781 22.308594 C 17.679688 22.34375 17.558594 22.371094 17.4375 22.398438 C 17.3125 22.429688 17.191406 22.453125 17.066406 22.472656 C 16.945312 22.492188 16.820312 22.507812 16.695312 22.523438 C 16.570312 22.535156 16.445312 22.546875 16.320312 22.550781 C 16.195312 22.558594 16.070312 22.5625 15.945312 22.558594 C 15.820312 22.558594 15.695312 22.554688 15.570312 22.546875 C 15.445312 22.539062 15.320312 22.527344 15.195312 22.511719 C 15.070312 22.496094 14.949219 22.476562 14.824219 22.453125 C 14.699219 22.429688 14.578125 22.40625 14.457031 22.375 C 14.335938 22.347656 14.214844 22.3125 14.09375 22.277344 C 13.972656 22.242188 13.855469 22.199219 13.738281 22.15625 C 13.621094 22.113281 13.503906 22.066406 13.390625 22.019531 C 13.273438 21.96875 13.160156 21.914062 13.050781 21.859375 C 12.9375 21.800781 12.828125 21.742188 12.71875 21.679688 C 12.609375 21.617188 12.503906 21.550781 12.398438 21.484375 C 12.292969 21.414062 12.191406 21.34375 12.089844 21.269531 C 11.988281 21.195312 11.890625 21.117188 11.796875 21.035156 C 11.699219 20.957031 11.605469 20.871094 11.515625 20.789062 C 11.421875 20.703125 11.332031 20.613281 11.246094 20.523438 C 11.160156 20.433594 11.078125 20.339844 10.996094 20.242188 C 10.914062 20.148438 10.835938 20.050781 10.761719 19.949219 C 10.6875 19.851562 10.613281 19.746094 10.542969 19.644531 C 10.472656 19.539062 10.40625 19.433594 10.34375 19.324219 C 10.28125 19.21875 10.21875 19.109375 10.164062 18.996094 C 10.105469 18.886719 10.050781 18.773438 10 18.65625 C 9.949219 18.542969 9.902344 18.425781 9.859375 18.308594 C 9.8125 18.191406 9.773438 18.074219 9.738281 17.953125 C 9.699219 17.835938 9.664062 17.714844 9.632812 17.59375 C 9.605469 17.472656 9.578125 17.347656 9.554688 17.226562 C 9.53125 17.101562 9.511719 16.980469 9.496094 16.855469 C 9.476562 16.730469 9.464844 16.605469 9.457031 16.480469 C 9.445312 16.355469 9.441406 16.230469 9.4375 16.105469 C 9.4375 15.980469 9.4375 15.855469 9.445312 15.730469 C 9.449219 15.605469 9.457031 15.480469 9.46875 15.355469 C 9.480469 15.230469 9.496094 15.105469 9.515625 14.984375 C 9.535156 14.859375 9.558594 14.738281 9.585938 14.613281 C 9.613281 14.492188 9.640625 14.371094 9.675781 14.25 C 9.710938 14.128906 9.746094 14.007812 9.785156 13.890625 C 9.828125 13.769531 9.871094 13.652344 9.917969 13.539062 C 9.964844 13.421875 10.015625 13.308594 10.066406 13.195312 C 10.121094 13.082031 10.179688 12.96875 10.238281 12.859375 C 10.296875 12.75 10.363281 12.640625 10.425781 12.535156 C 10.492188 12.429688 10.5625 12.324219 10.636719 12.222656 C 10.707031 12.117188 10.78125 12.019531 10.859375 11.921875 C 10.9375 11.824219 11.019531 11.726562 11.101562 11.632812 C 11.183594 11.539062 11.269531 11.449219 11.359375 11.359375 C 11.511719 11.207031 11.671875 11.0625 11.835938 10.925781 C 12.003906 10.789062 12.175781 10.660156 12.351562 10.542969 C 12.53125 10.421875 12.714844 10.3125 12.90625 10.210938 C 13.09375 10.109375 13.289062 10.015625 13.488281 9.933594 C 13.6875 9.851562 13.886719 9.78125 14.09375 9.71875 C 14.300781 9.65625 14.507812 9.601562 14.71875 9.5625 C 14.929688 9.519531 15.140625 9.488281 15.355469 9.46875 C 15.570312 9.449219 15.785156 9.4375 16 9.4375 M 16 8.320312 C 15.875 8.320312 15.75 8.324219 15.625 8.332031 C 15.496094 8.335938 15.371094 8.34375 15.246094 8.359375 C 15.121094 8.371094 14.996094 8.386719 14.875 8.40625 C 14.75 8.421875 14.625 8.445312 14.503906 8.46875 C 14.378906 8.492188 14.257812 8.519531 14.132812 8.550781 C 14.011719 8.582031 13.890625 8.617188 13.769531 8.652344 C 13.652344 8.6875 13.53125 8.726562 13.414062 8.769531 C 13.292969 8.8125 13.175781 8.859375 13.0625 8.90625 C 12.945312 8.953125 12.832031 9.003906 12.71875 9.058594 C 12.601562 9.113281 12.492188 9.167969 12.378906 9.226562 C 12.269531 9.285156 12.160156 9.347656 12.050781 9.414062 C 11.945312 9.476562 11.839844 9.546875 11.734375 9.617188 C 11.628906 9.683594 11.527344 9.757812 11.425781 9.832031 C 11.324219 9.90625 11.226562 9.984375 11.128906 10.0625 C 11.03125 10.144531 10.9375 10.226562 10.84375 10.308594 C 10.75 10.394531 10.660156 10.480469 10.570312 10.570312 C 10.480469 10.660156 10.394531 10.75 10.308594 10.84375 C 10.226562 10.9375 10.144531 11.03125 10.0625 11.128906 C 9.984375 11.226562 9.90625 11.324219 9.832031 11.425781 C 9.757812 11.527344 9.683594 11.628906 9.617188 11.734375 C 9.546875 11.839844 9.476562 11.945312 9.414062 12.050781 C 9.347656 12.160156 9.285156 12.269531 9.226562 12.378906 C 9.167969 12.492188 9.113281 12.601562 9.058594 12.71875 C 9.003906 12.832031 8.953125 12.945312 8.90625 13.0625 C 8.859375 13.175781 8.8125 13.292969 8.769531 13.414062 C 8.726562 13.53125 8.6875 13.652344 8.652344 13.769531 C 8.617188 13.890625 8.582031 14.011719 8.550781 14.132812 C 8.519531 14.257812 8.492188 14.378906 8.46875 14.503906 C 8.445312 14.625 8.421875 14.75 8.40625 14.875 C 8.386719 14.996094 8.371094 15.121094 8.359375 15.246094 C 8.34375 15.371094 8.335938 15.496094 8.332031 15.625 C 8.324219 15.75 8.320312 15.875 8.320312 16 C 8.320312 16.125 8.324219 16.25 8.332031 16.375 C 8.335938 16.503906 8.34375 16.628906 8.359375 16.753906 C 8.371094 16.878906 8.386719 17.003906 8.40625 17.125 C 8.421875 17.25 8.445312 17.375 8.46875 17.496094 C 8.492188 17.621094 8.519531 17.742188 8.550781 17.867188 C 8.582031 17.988281 8.617188 18.109375 8.652344 18.230469 C 8.6875 18.347656 8.726562 18.46875 8.769531 18.585938 C 8.8125 18.707031 8.859375 18.824219 8.90625 18.9375 C 8.953125 19.054688 9.003906 19.167969 9.058594 19.28125 C 9.113281 19.398438 9.167969 19.507812 9.226562 19.621094 C 9.285156 19.730469 9.347656 19.839844 9.414062 19.949219 C 9.476562 20.054688 9.546875 20.160156 9.617188 20.265625 C 9.683594 20.371094 9.757812 20.472656 9.832031 20.574219 C 9.90625 20.675781 9.984375 20.773438 10.0625 20.871094 C 10.144531 20.96875 10.226562 21.0625 10.308594 21.15625 C 10.394531 21.25 10.480469 21.339844 10.570312 21.429688 C 10.660156 21.519531 10.75 21.605469 10.84375 21.691406 C 10.9375 21.773438 11.03125 21.855469 11.128906 21.9375 C 11.226562 22.015625 11.324219 22.09375 11.425781 22.167969 C 11.527344 22.242188 11.628906 22.316406 11.734375 22.382812 C 11.839844 22.453125 11.945312 22.523438 12.050781 22.585938 C 12.160156 22.652344 12.269531 22.714844 12.378906 22.773438 C 12.492188 22.832031 12.601562 22.886719 12.71875 22.941406 C 12.832031 22.996094 12.945312 23.046875 13.0625 23.09375 C 13.175781 23.140625 13.292969 23.1875 13.414062 23.230469 C 13.53125 23.273438 13.652344 23.3125 13.769531 23.347656 C 13.890625 23.382812 14.011719 23.417969 14.132812 23.449219 C 14.257812 23.480469 14.378906 23.507812 14.503906 23.53125 C 14.625 23.554688 14.75 23.578125 14.875 23.59375 C 14.996094 23.613281 15.121094 23.628906 15.246094 23.640625 C 15.371094 23.65625 15.496094 23.664062 15.625 23.667969 C 15.75 23.675781 15.875 23.679688 16 23.679688 C 16.125 23.679688 16.25 23.675781 16.375 23.667969 C 16.503906 23.664062 16.628906 23.65625 16.753906 23.640625 C 16.878906 23.628906 17.003906 23.613281 17.125 23.59375 C 17.25 23.578125 17.375 23.554688 17.496094 23.53125 C 17.621094 23.507812 17.742188 23.480469 17.867188 23.449219 C 17.988281 23.417969 18.109375 23.382812 18.230469 23.347656 C 18.347656 23.3125 18.46875 23.273438 18.585938 23.230469 C 18.707031 23.1875 18.824219 23.140625 18.9375 23.09375 C 19.054688 23.046875 19.167969 22.996094 19.28125 22.941406 C 19.398438 22.886719 19.507812 22.832031 19.621094 22.773438 C 19.730469 22.714844 19.839844 22.652344 19.949219 22.585938 C 20.054688 22.523438 20.160156 22.453125 20.265625 22.382812 C 20.371094 22.316406 20.472656 22.242188 20.574219 22.167969 C 20.675781 22.09375 20.773438 22.015625 20.871094 21.9375 C 20.96875 21.855469 21.0625 21.773438 21.15625 21.691406 C 21.25 21.605469 21.339844 21.519531 21.429688 21.429688 C 21.519531 21.339844 21.605469 21.25 21.691406 21.15625 C 21.773438 21.0625 21.855469 20.96875 21.9375 20.871094 C 22.015625 20.773438 22.09375 20.675781 22.167969 20.574219 C 22.242188 20.472656 22.316406 20.371094 22.382812 20.265625 C 22.453125 20.160156 22.523438 20.054688 22.585938 19.949219 C 22.652344 19.839844 22.714844 19.730469 22.773438 19.621094 C 22.832031 19.507812 22.886719 19.398438 22.941406 19.28125 C 22.996094 19.167969 23.046875 19.054688 23.09375 18.9375 C 23.140625 18.824219 23.1875 18.707031 23.230469 18.585938 C 23.273438 18.46875 23.3125 18.347656 23.347656 18.230469 C 23.382812 18.109375 23.417969 17.988281 23.449219 17.867188 C 23.480469 17.742188 23.507812 17.621094 23.53125 17.496094 C 23.554688 17.375 23.578125 17.25 23.59375 17.125 C 23.613281 17.003906 23.628906 16.878906 23.640625 16.753906 C 23.65625 16.628906 23.664062 16.503906 23.667969 16.375 C 23.675781 16.25 23.679688 16.125 23.679688 16 C 23.679688 15.875 23.675781 15.75 23.667969 15.625 C 23.664062 15.496094 23.65625 15.371094 23.640625 15.246094 C 23.628906 15.121094 23.613281 14.996094 23.59375 14.875 C 23.578125 14.75 23.554688 14.625 23.53125 14.503906 C 23.507812 14.378906 23.480469 14.257812 23.449219 14.132812 C 23.417969 14.011719 23.382812 13.890625 23.347656 13.769531 C 23.3125 13.652344 23.273438 13.53125 23.230469 13.414062 C 23.1875 13.292969 23.140625 13.175781 23.09375 13.0625 C 23.046875 12.945312 22.996094 12.832031 22.941406 12.71875 C 22.886719 12.601562 22.832031 12.492188 22.773438 12.378906 C 22.714844 12.269531 22.652344 12.160156 22.585938 12.050781 C 22.523438 11.945312 22.453125 11.839844 22.382812 11.734375 C 22.316406 11.628906 22.242188 11.527344 22.167969 11.425781 C 22.09375 11.324219 22.015625 11.226562 21.9375 11.128906 C 21.855469 11.03125 21.773438 10.9375 21.691406 10.84375 C 21.605469 10.75 21.519531 10.660156 21.429688 10.570312 C 21.339844 10.480469 21.25 10.394531 21.15625 10.308594 C 21.0625 10.226562 20.96875 10.144531 20.871094 10.0625 C 20.773438 9.984375 20.675781 9.90625 20.574219 9.832031 C 20.472656 9.757812 20.371094 9.683594 20.265625 9.617188 C 20.160156 9.546875 20.054688 9.476562 19.949219 9.414062 C 19.839844 9.347656 19.730469 9.285156 19.621094 9.226562 C 19.507812 9.167969 19.398438 9.113281 19.28125 9.058594 C 19.167969 9.003906 19.054688 8.953125 18.9375 8.90625 C 18.824219 8.859375 18.707031 8.8125 18.585938 8.769531 C 18.46875 8.726562 18.347656 8.6875 18.230469 8.652344 C 18.109375 8.617188 17.988281 8.582031 17.867188 8.550781 C 17.742188 8.519531 17.621094 8.492188 17.496094 8.46875 C 17.375 8.445312 17.25 8.421875 17.125 8.40625 C 17.003906 8.386719 16.878906 8.371094 16.753906 8.359375 C 16.628906 8.34375 16.503906 8.335938 16.375 8.332031 C 16.25 8.324219 16.125 8.320312 16 8.320312 Z M 16 8.320312 "/>
<path style=" stroke:none;fill-rule:nonzero;fill:rgb(0%,0%,0%);fill-opacity:1;" d="M 16 11.53125 C 16.144531 11.53125 16.292969 11.539062 16.4375 11.554688 C 16.582031 11.566406 16.726562 11.589844 16.871094 11.617188 C 17.015625 11.648438 17.15625 11.683594 17.296875 11.726562 C 17.4375 11.765625 17.574219 11.816406 17.710938 11.871094 C 17.84375 11.929688 17.976562 11.992188 18.105469 12.058594 C 18.234375 12.128906 18.359375 12.203125 18.480469 12.285156 C 18.605469 12.367188 18.722656 12.453125 18.835938 12.546875 C 18.949219 12.640625 19.054688 12.738281 19.160156 12.839844 C 19.261719 12.945312 19.359375 13.050781 19.453125 13.164062 C 19.546875 13.277344 19.632812 13.394531 19.714844 13.519531 C 19.796875 13.640625 19.871094 13.765625 19.941406 13.894531 C 20.007812 14.023438 20.070312 14.15625 20.128906 14.289062 C 20.183594 14.425781 20.234375 14.5625 20.273438 14.703125 C 20.316406 14.84375 20.351562 14.984375 20.382812 15.128906 C 20.410156 15.273438 20.433594 15.417969 20.445312 15.5625 C 20.460938 15.707031 20.46875 15.855469 20.46875 16 C 20.46875 16.144531 20.460938 16.292969 20.445312 16.4375 C 20.433594 16.582031 20.410156 16.726562 20.382812 16.871094 C 20.351562 17.015625 20.316406 17.15625 20.273438 17.296875 C 20.234375 17.4375 20.183594 17.574219 20.128906 17.710938 C 20.070312 17.84375 20.007812 17.976562 19.941406 18.105469 C 19.871094 18.234375 19.796875 18.359375 19.714844 18.480469 C 19.632812 18.605469 19.546875 18.722656 19.453125 18.835938 C 19.359375 18.949219 19.261719 19.054688 19.160156 19.160156 C 19.054688 19.261719 18.949219 19.359375 18.835938 19.453125 C 18.722656 19.546875 18.605469 19.632812 18.480469 19.714844 C 18.359375 19.796875 18.234375 19.871094 18.105469 19.941406 C 17.976562 20.007812 17.84375 20.070312 17.710938 20.128906 C 17.574219 20.183594 17.4375 20.234375 17.296875 20.273438 C 17.15625 20.316406 17.015625 20.351562 16.871094 20.382812 C 16.726562 20.410156 16.582031 20.433594 16.4375 20.445312 C 16.292969 20.460938 16.144531 20.46875 16 20.46875 C 15.855469 20.46875 15.707031 20.460938 15.5625 20.445312 C 15.417969 20.433594 15.273438 20.410156 15.128906 20.382812 C 14.984375 20.351562 14.84375 20.316406 14.703125 20.273438 C 14.5625 20.234375 14.425781 20.183594 14.289062 20.128906 C 14.15625 20.070312 14.023438 20.007812 13.894531 19.941406 C 13.765625 19.871094 13.640625 19.796875 13.519531 19.714844 C 13.394531 19.632812 13.277344 19.546875 13.164062 19.453125 C 13.050781 19.359375 12.945312 19.261719 12.839844 19.160156 C 12.738281 19.054688 12.640625 18.949219 12.546875 18.835938 C 12.453125 18.722656 12.367188 18.605469 12.285156 18.480469 C 12.203125 18.359375 12.128906 18.234375 12.058594 18.105469 C 11.992188 17.976562 11.929688 17.84375 11.871094 17.710938 C 11.816406 17.574219 11.765625 17.4375 11.726562 17.296875 C 11.683594 17.15625 11.648438 17.015625 11.617188 16.871094 C 11.589844 16.726562 11.566406 16.582031 11.554688 16.4375 C 11.539062 16.292969 11.53125 16.144531 11.53125 16 C 11.53125 15.855469 11.539062 15.707031 11.554688 15.5625 C 11.570312 15.417969 11.589844 15.273438 11.617188 15.128906 C 11.648438 14.984375 11.683594 14.84375 11.726562 14.703125 C 11.769531 14.5625 11.816406 14.425781 11.875 14.289062 C 11.929688 14.15625 11.992188 14.023438 12.0625 13.894531 C 12.128906 13.765625 12.207031 13.640625 12.285156 13.519531 C 12.367188 13.398438 12.453125 13.28125 12.546875 13.167969 C 12.640625 13.054688 12.738281 12.945312 12.84375 12.84375 C 12.945312 12.738281 13.054688 12.640625 13.167969 12.546875 C 13.28125 12.453125 13.398438 12.367188 13.519531 12.285156 C 13.640625 12.207031 13.765625 12.128906 13.894531 12.0625 C 14.023438 11.992188 14.15625 11.929688 14.289062 11.875 C 14.425781 11.816406 14.5625 11.769531 14.703125 11.726562 C 14.84375 11.683594 14.984375 11.648438 15.128906 11.617188 C 15.273438 11.589844 15.417969 11.570312 15.5625 11.554688 C 15.707031 11.539062 15.855469 11.53125 16 11.53125 M 16 10.414062 C 15.910156 10.414062 15.816406 10.417969 15.726562 10.421875 C 15.632812 10.425781 15.542969 10.433594 15.453125 10.441406 C 15.363281 10.453125 15.269531 10.460938 15.179688 10.476562 C 15.089844 10.488281 15 10.503906 14.910156 10.523438 C 14.820312 10.539062 14.730469 10.5625 14.644531 10.582031 C 14.554688 10.605469 14.464844 10.628906 14.378906 10.65625 C 14.292969 10.683594 14.203125 10.710938 14.117188 10.742188 C 14.03125 10.773438 13.949219 10.804688 13.863281 10.839844 C 13.777344 10.875 13.695312 10.914062 13.613281 10.953125 C 13.53125 10.992188 13.449219 11.03125 13.367188 11.074219 C 13.285156 11.117188 13.207031 11.164062 13.128906 11.210938 C 13.050781 11.257812 12.972656 11.304688 12.898438 11.355469 C 12.820312 11.40625 12.746094 11.460938 12.671875 11.515625 C 12.601562 11.570312 12.527344 11.625 12.457031 11.683594 C 12.386719 11.742188 12.316406 11.800781 12.25 11.863281 C 12.183594 11.921875 12.117188 11.988281 12.050781 12.050781 C 11.988281 12.117188 11.921875 12.183594 11.863281 12.25 C 11.800781 12.316406 11.742188 12.386719 11.683594 12.457031 C 11.625 12.527344 11.570312 12.601562 11.515625 12.671875 C 11.460938 12.746094 11.40625 12.820312 11.355469 12.898438 C 11.304688 12.972656 11.257812 13.050781 11.210938 13.128906 C 11.164062 13.207031 11.117188 13.285156 11.074219 13.367188 C 11.03125 13.449219 10.992188 13.53125 10.953125 13.613281 C 10.914062 13.695312 10.875 13.777344 10.839844 13.863281 C 10.804688 13.949219 10.773438 14.03125 10.742188 14.117188 C 10.710938 14.203125 10.683594 14.292969 10.65625 14.378906 C 10.628906 14.464844 10.605469 14.554688 10.582031 14.644531 C 10.5625 14.730469 10.539062 14.820312 10.523438 14.910156 C 10.503906 15 10.488281 15.089844 10.476562 15.179688 C 10.460938 15.269531 10.453125 15.363281 10.441406 15.453125 C 10.433594 15.542969 10.425781 15.632812 10.421875 15.726562 C 10.417969 15.816406 10.414062 15.910156 10.414062 16 C 10.414062 16.089844 10.417969 16.183594 10.421875 16.273438 C 10.425781 16.367188 10.433594 16.457031 10.441406 16.546875 C 10.453125 16.636719 10.460938 16.730469 10.476562 16.820312 C 10.488281 16.910156 10.503906 17 10.523438 17.089844 C 10.539062 17.179688 10.5625 17.269531 10.582031 17.355469 C 10.605469 17.445312 10.628906 17.535156 10.65625 17.621094 C 10.683594 17.707031 10.710938 17.796875 10.742188 17.882812 C 10.773438 17.96875 10.804688 18.050781 10.839844 18.136719 C 10.875 18.222656 10.914062 18.304688 10.953125 18.386719 C 10.992188 18.46875 11.03125 18.550781 11.074219 18.632812 C 11.117188 18.714844 11.164062 18.792969 11.210938 18.871094 C 11.257812 18.949219 11.304688 19.027344 11.355469 19.101562 C 11.40625 19.179688 11.460938 19.253906 11.515625 19.328125 C 11.570312 19.398438 11.625 19.472656 11.683594 19.542969 C 11.742188 19.613281 11.800781 19.683594 11.863281 19.75 C 11.921875 19.816406 11.988281 19.882812 12.050781 19.949219 C 12.117188 20.011719 12.183594 20.078125 12.25 20.136719 C 12.316406 20.199219 12.386719 20.257812 12.457031 20.316406 C 12.527344 20.375 12.601562 20.429688 12.671875 20.484375 C 12.746094 20.539062 12.820312 20.59375 12.898438 20.644531 C 12.972656 20.695312 13.050781 20.742188 13.128906 20.789062 C 13.207031 20.835938 13.285156 20.882812 13.367188 20.925781 C 13.449219 20.96875 13.53125 21.007812 13.613281 21.046875 C 13.695312 21.085938 13.777344 21.125 13.863281 21.160156 C 13.949219 21.195312 14.03125 21.226562 14.117188 21.257812 C 14.203125 21.289062 14.292969 21.316406 14.378906 21.34375 C 14.464844 21.371094 14.554688 21.394531 14.644531 21.417969 C 14.730469 21.4375 14.820312 21.460938 14.910156 21.476562 C 15 21.496094 15.089844 21.511719 15.179688 21.523438 C 15.269531 21.539062 15.363281 21.546875 15.453125 21.558594 C 15.542969 21.566406 15.632812 21.574219 15.726562 21.578125 C 15.816406 21.582031 15.910156 21.585938 16 21.585938 C 16.089844 21.585938 16.183594 21.582031 16.273438 21.578125 C 16.367188 21.574219 16.457031 21.566406 16.546875 21.558594 C 16.636719 21.546875 16.730469 21.539062 16.820312 21.523438 C 16.910156 21.511719 17 21.496094 17.089844 21.476562 C 17.179688 21.460938 17.269531 21.4375 17.355469 21.417969 C 17.445312 21.394531 17.535156 21.371094 17.621094 21.34375 C 17.707031 21.316406 17.796875 21.289062 17.882812 21.257812 C 17.96875 21.226562 18.050781 21.195312 18.136719 21.160156 C 18.222656 21.125 18.304688 21.085938 18.386719 21.046875 C 18.46875 21.007812 18.550781 20.96875 18.632812 20.925781 C 18.714844 20.882812 18.792969 20.835938 18.871094 20.789062 C 18.949219 20.742188 19.027344 20.695312 19.101562 20.644531 C 19.179688 20.59375 19.253906 20.539062 19.328125 20.484375 C 19.398438 20.429688 19.472656 20.375 19.542969 20.316406 C 19.613281 20.257812 19.683594 20.199219 19.75 20.136719 C 19.816406 20.078125 19.882812 20.011719 19.949219 19.949219 C 20.011719 19.882812 20.078125 19.816406 20.136719 19.75 C 20.199219 19.683594 20.257812 19.613281 20.316406 19.542969 C 20.375 19.472656 20.429688 19.398438 20.484375 19.328125 C 20.539062 19.253906 20.59375 19.179688 20.644531 19.101562 C 20.695312 19.027344 20.742188 18.949219 20.789062 18.871094 C 20.835938 18.792969 20.882812 18.714844 20.925781 18.632812 C 20.96875 18.550781 21.007812 18.46875 21.046875 18.386719 C 21.085938 18.304688 21.125 18.222656 21.160156 18.136719 C 21.195312 18.050781 21.226562 17.96875 21.257812 17.882812 C 21.289062 17.796875 21.316406 17.707031 21.34375 17.621094 C 21.371094 17.535156 21.394531 17.445312 21.417969 17.355469 C 21.4375 17.269531 21.460938 17.179688 21.476562 17.089844 C 21.496094 17 21.511719 16.910156 21.523438 16.820312 C 21.539062 16.730469 21.546875 16.636719 21.558594 16.546875 C 21.566406 16.457031 21.574219 16.367188 21.578125 16.273438 C 21.582031 16.183594 21.585938 16.089844 21.585938 16 C 21.585938 15.910156 21.582031 15.816406 21.578125 15.726562 C 21.574219 15.632812 21.566406 15.542969 21.558594 15.453125 C 21.546875 15.363281 21.539062 15.269531 21.523438 15.179688 C 21.511719 15.089844 21.496094 15 21.476562 14.910156 C 21.460938 14.820312 21.4375 14.730469 21.417969 14.644531 C 21.394531 14.554688 21.371094 14.464844 21.34375 14.378906 C 21.316406 14.292969 21.289062 14.203125 21.257812 14.117188 C 21.226562 14.03125 21.195312 13.949219 21.160156 13.863281 C 21.125 13.777344 21.085938 13.695312 21.046875 13.613281 C 21.007812 13.53125 20.96875 13.449219 20.925781 13.367188 C 20.882812 13.285156 20.835938 13.207031 20.789062 13.128906 C 20.742188 13.050781 20.695312 12.972656 20.644531 12.898438 C 20.59375 12.820312 20.539062 12.746094 20.484375 12.671875 C 20.429688 12.601562 20.375 12.527344 20.316406 12.457031 C 20.257812 12.386719 20.199219 12.316406 20.136719 12.25 C 20.078125 12.183594 20.011719 12.117188 19.949219 12.050781 C 19.882812 11.988281 19.816406 11.921875 19.75 11.863281 C 19.683594 11.800781 19.613281 11.742188 19.542969 11.683594 C 19.472656 11.625 19.398438 11.570312 19.328125 11.515625 C 19.253906 11.460938 19.179688 11.40625 19.101562 11.355469 C 19.027344 11.304688 18.949219 11.257812 18.871094 11.210938 C 18.792969 11.164062 18.714844 11.117188 18.632812 11.074219 C 18.550781 11.03125 18.46875 10.992188 18.386719 10.953125 C 18.304688 10.914062 18.222656 10.875 18.136719 10.839844 C 18.050781 10.804688 17.96875 10.773438 17.882812 10.742188 C 17.796875 10.710938 17.707031 10.683594 17.621094 10.65625 C 17.535156 10.628906 17.445312 10.605469 17.355469 10.582031 C 17.269531 10.5625 17.179688 10.539062 17.089844 10.523438 C 17 10.503906 16.910156 10.488281 16.820312 10.476562 C 16.730469 10.460938 16.636719 10.453125 16.546875 10.441406 C 16.457031 10.433594 16.367188 10.425781 16.273438 10.421875 C 16.183594 10.417969 16.089844 10.414062 16 10.414062 Z M 16 10.414062 "/>
</g>
</svg>
